{"glyphs":{"0":{"ha":833,"x_min":51,"x_max":782,"o":"m 417 -12 q 145 117 239 -12 q 51 490 51 246 q 146 860 51 732 q 417 989 240 989 q 688 860 593 989 q 782 490 782 732 q 688 117 782 246 q 417 -12 594 -12 m 417 153 q 534 233 497 153 q 571 490 571 314 q 534 744 571 665 q 417 824 497 824 q 299 744 336 824 q 263 490 263 665 q 299 233 263 314 q 417 153 336 153 z "},"1":{"ha":833,"x_min":108,"x_max":785,"o":"m 785 174 l 785 0 l 146 0 l 146 174 l 357 174 l 357 739 l 190 642 l 108 797 l 419 979 l 574 979 l 574 174 l 785 174 z "},"2":{"ha":835,"x_min":61,"x_max":765,"o":"m 765 174 l 765 0 l 92 0 l 92 160 l 418 506 q 521 706 521 614 q 388 822 521 822 q 260 798 326 822 q 129 728 193 774 l 61 882 q 211 962 119 932 q 399 992 303 992 q 642 918 551 992 q 733 721 733 844 q 698 564 733 636 q 579 403 663 492 l 361 174 l 765 174 z "},"3":{"ha":833,"x_min":47,"x_max":758,"o":"m 579 504 q 712 417 665 479 q 758 267 758 356 q 660 63 758 138 q 393 -11 561 -11 q 199 18 292 -11 q 47 99 106 47 l 115 253 q 383 158 249 158 q 513 190 472 158 q 553 288 553 221 q 513 382 553 353 q 383 411 472 411 l 243 411 l 243 579 l 360 579 q 485 608 444 579 q 526 699 526 638 q 490 790 526 758 q 386 822 454 822 q 258 798 325 822 q 129 728 192 774 l 61 882 q 212 962 119 932 q 401 992 304 992 q 576 959 501 992 q 692 867 651 926 q 733 728 733 807 q 692 590 733 649 q 579 504 651 531 z "},"4":{"ha":833,"x_min":50,"x_max":804,"o":"m 804 179 l 671 179 l 671 0 l 460 0 l 460 179 l 50 179 l 50 339 l 497 979 l 671 979 l 671 344 l 804 344 l 804 179 m 460 344 l 460 650 l 247 344 l 460 344 z "},"5":{"ha":833,"x_min":75,"x_max":786,"o":"m 476 633 q 638 594 567 633 q 747 483 708 554 q 786 319 786 413 q 740 146 786 221 q 608 30 693 71 q 408 -11 522 -11 q 224 19 315 -11 q 75 99 132 49 l 143 253 q 411 158 278 158 q 540 197 496 158 q 583 313 583 236 q 538 426 583 385 q 415 468 493 468 q 319 450 367 468 q 232 400 271 432 l 108 400 l 108 979 l 739 979 l 739 814 l 319 814 l 319 596 q 476 633 386 633 z "},"6":{"ha":833,"x_min":51,"x_max":785,"o":"m 488 636 q 641 596 574 636 q 747 483 708 556 q 785 319 785 411 q 742 148 785 224 q 622 30 699 72 q 450 -12 546 -12 q 156 114 260 -12 q 51 475 51 240 q 101 752 51 636 q 244 930 151 868 q 465 992 338 992 q 640 963 556 992 q 785 882 725 935 l 715 728 q 474 822 588 822 q 326 745 379 822 q 267 521 272 668 q 357 605 299 574 q 488 636 415 636 m 438 156 q 542 199 503 156 q 582 313 582 242 q 542 425 582 382 q 438 468 503 468 q 332 425 372 468 q 292 313 292 382 q 332 199 292 243 q 438 156 372 156 z "},"7":{"ha":833,"x_min":65,"x_max":769,"o":"m 769 979 l 769 818 l 333 0 l 103 0 l 538 806 l 65 806 l 65 979 l 769 979 z "},"8":{"ha":833,"x_min":40,"x_max":793,"o":"m 617 504 q 747 417 701 479 q 793 267 793 356 q 693 63 793 136 q 417 -11 593 -11 q 140 63 240 -11 q 40 267 40 136 q 86 419 40 358 q 218 504 132 481 q 106 590 146 532 q 65 726 65 649 q 160 920 65 849 q 417 992 254 992 q 674 921 581 992 q 768 726 768 850 q 728 588 768 647 q 617 504 688 528 m 417 826 q 268 703 268 826 q 417 578 268 578 q 565 703 565 578 q 417 826 565 826 m 417 154 q 592 283 592 154 q 417 413 592 413 q 242 283 242 413 q 417 154 242 154 z "},"9":{"ha":833,"x_min":49,"x_max":782,"o":"m 383 992 q 678 865 574 992 q 782 504 782 739 q 733 227 782 343 q 590 49 683 111 q 368 -12 496 -12 q 193 16 278 -12 q 49 97 108 44 l 118 251 q 360 157 246 157 q 508 233 456 157 q 567 458 560 310 q 476 374 535 406 q 346 343 418 343 q 192 383 260 343 q 87 496 125 424 q 49 660 49 568 q 92 831 49 756 q 211 949 135 907 q 383 992 288 992 m 396 511 q 501 554 461 511 q 542 667 542 597 q 501 780 542 736 q 396 824 461 824 q 291 781 331 824 q 251 667 251 738 q 291 554 251 597 q 396 511 331 511 z "},"\u0000":{"ha":0,"x_min":0,"x_max":0,"o":""},"\r":{"ha":388,"x_min":0,"x_max":0,"o":""}," ":{"ha":388,"x_min":0,"x_max":0,"o":""},"A":{"ha":1043,"x_min":-15,"x_max":1058,"o":"m 751 217 l 296 217 l 203 0 l -15 0 l 435 979 l 608 979 l 1058 0 l 844 0 l 751 217 m 681 381 l 524 747 l 367 381 l 681 381 z "},"Á":{"ha":1043,"x_min":-15,"x_max":1058,"o":"m 751 217 l 296 217 l 203 0 l -15 0 l 435 979 l 608 979 l 1058 0 l 844 0 l 751 217 m 681 381 l 524 747 l 367 381 l 681 381 m 456 1063 l 599 1279 l 793 1279 l 586 1063 l 456 1063 z "},"Ă":{"ha":1043,"x_min":-15,"x_max":1058,"o":"m 751 217 l 296 217 l 203 0 l -15 0 l 435 979 l 608 979 l 1058 0 l 844 0 l 751 217 m 681 381 l 524 747 l 367 381 l 681 381 m 521 1075 q 365 1114 431 1075 q 274 1226 300 1153 l 371 1267 q 521 1199 413 1199 q 671 1267 629 1199 l 768 1226 q 676 1114 742 1153 q 521 1075 611 1075 z "},"Ắ":{"ha":1043,"x_min":-15,"x_max":1058,"o":"m 751 217 l 296 217 l 203 0 l -15 0 l 435 979 l 608 979 l 1058 0 l 844 0 l 751 217 m 681 381 l 524 747 l 367 381 l 681 381 m 460 1211 l 599 1407 l 779 1407 l 582 1211 l 460 1211 m 521 1056 q 365 1094 431 1056 q 274 1207 300 1132 l 350 1239 q 420 1181 372 1201 q 521 1161 468 1161 q 622 1181 574 1161 q 692 1239 669 1201 l 768 1207 q 676 1094 742 1132 q 521 1056 611 1056 z "},"Ặ":{"ha":1043,"x_min":-15,"x_max":1058,"o":"m 751 217 l 296 217 l 203 0 l -15 0 l 435 979 l 608 979 l 1058 0 l 844 0 l 751 217 m 681 381 l 524 747 l 367 381 l 681 381 m 618 -93 l 618 -276 l 426 -276 l 426 -93 l 618 -93 m 521 1075 q 365 1114 431 1075 q 274 1226 300 1153 l 371 1267 q 521 1199 413 1199 q 671 1267 629 1199 l 768 1226 q 676 1114 742 1153 q 521 1075 611 1075 z "},"Ằ":{"ha":1043,"x_min":-15,"x_max":1058,"o":"m 751 217 l 296 217 l 203 0 l -15 0 l 435 979 l 608 979 l 1058 0 l 844 0 l 751 217 m 681 381 l 524 747 l 367 381 l 681 381 m 263 1407 l 443 1407 l 582 1211 l 460 1211 l 263 1407 m 521 1056 q 365 1094 431 1056 q 274 1207 300 1132 l 350 1239 q 420 1181 372 1201 q 521 1161 468 1161 q 622 1181 574 1161 q 692 1239 669 1201 l 768 1207 q 676 1094 742 1132 q 521 1056 611 1056 z "},"Ẳ":{"ha":1043,"x_min":-15,"x_max":1058,"o":"m 751 217 l 296 217 l 203 0 l -15 0 l 435 979 l 608 979 l 1058 0 l 844 0 l 751 217 m 681 381 l 524 747 l 367 381 l 681 381 m 572 1213 l 469 1213 l 469 1239 q 488 1278 469 1265 q 535 1303 506 1292 q 560 1317 560 1310 q 549 1329 560 1324 q 514 1335 538 1335 q 435 1319 479 1335 l 407 1390 q 539 1415 469 1415 q 647 1392 607 1415 q 688 1332 688 1369 q 670 1292 688 1306 q 621 1265 653 1278 q 584 1246 596 1254 q 572 1224 572 1238 l 572 1213 m 521 1056 q 365 1094 431 1056 q 274 1207 300 1132 l 350 1239 q 420 1181 372 1201 q 521 1161 468 1161 q 622 1181 574 1161 q 692 1239 669 1201 l 768 1207 q 676 1094 742 1132 q 521 1056 611 1056 z "},"Ẵ":{"ha":1043,"x_min":-15,"x_max":1058,"o":"m 751 217 l 296 217 l 203 0 l -15 0 l 435 979 l 608 979 l 1058 0 l 844 0 l 751 217 m 681 381 l 524 747 l 367 381 l 681 381 m 279 1268 q 324 1372 279 1331 q 431 1414 368 1414 q 473 1409 453 1414 q 511 1398 493 1404 q 536 1389 529 1392 q 577 1374 557 1381 q 614 1368 597 1368 q 672 1410 668 1368 l 763 1410 q 718 1306 763 1347 q 611 1264 674 1264 q 569 1269 589 1264 q 531 1280 549 1274 q 506 1289 513 1286 q 465 1303 485 1297 q 428 1310 444 1310 q 369 1268 374 1310 l 279 1268 m 521 1056 q 365 1094 431 1056 q 274 1207 300 1132 l 350 1239 q 420 1181 372 1201 q 521 1161 468 1161 q 622 1181 574 1161 q 692 1239 669 1201 l 768 1207 q 676 1094 742 1132 q 521 1056 611 1056 z "},"Â":{"ha":1043,"x_min":-15,"x_max":1058,"o":"m 751 217 l 296 217 l 203 0 l -15 0 l 435 979 l 608 979 l 1058 0 l 844 0 l 751 217 m 681 381 l 524 747 l 367 381 l 681 381 m 278 1063 l 461 1279 l 581 1279 l 764 1063 l 607 1063 l 521 1181 l 435 1063 l 278 1063 z "},"Ấ":{"ha":1043,"x_min":-15,"x_max":1058,"o":"m 751 217 l 296 217 l 203 0 l -15 0 l 435 979 l 608 979 l 1058 0 l 844 0 l 751 217 m 681 381 l 524 747 l 367 381 l 681 381 m 651 1211 l 751 1407 l 925 1407 l 754 1211 l 651 1211 m 278 1063 l 461 1256 l 581 1256 l 764 1063 l 610 1063 l 521 1161 l 432 1063 l 278 1063 z "},"Ậ":{"ha":1043,"x_min":-15,"x_max":1058,"o":"m 751 217 l 296 217 l 203 0 l -15 0 l 435 979 l 608 979 l 1058 0 l 844 0 l 751 217 m 681 381 l 524 747 l 367 381 l 681 381 m 618 -93 l 618 -276 l 426 -276 l 426 -93 l 618 -93 m 278 1063 l 461 1279 l 581 1279 l 764 1063 l 607 1063 l 521 1181 l 435 1063 l 278 1063 z "},"Ầ":{"ha":1043,"x_min":-15,"x_max":1058,"o":"m 751 217 l 296 217 l 203 0 l -15 0 l 435 979 l 608 979 l 1058 0 l 844 0 l 751 217 m 681 381 l 524 747 l 367 381 l 681 381 m 540 1407 l 714 1407 l 813 1211 l 710 1211 l 540 1407 m 278 1063 l 461 1256 l 581 1256 l 764 1063 l 610 1063 l 521 1161 l 432 1063 l 278 1063 z "},"Ẩ":{"ha":1043,"x_min":-15,"x_max":1058,"o":"m 751 217 l 296 217 l 203 0 l -15 0 l 435 979 l 608 979 l 1058 0 l 844 0 l 751 217 m 681 381 l 524 747 l 367 381 l 681 381 m 754 1213 l 650 1213 l 650 1239 q 668 1278 650 1265 q 715 1303 686 1292 q 740 1317 740 1310 q 729 1329 740 1324 q 696 1335 718 1335 q 617 1319 661 1335 l 589 1390 q 721 1415 651 1415 q 828 1392 789 1415 q 868 1332 868 1369 q 851 1292 868 1306 q 803 1265 835 1278 q 766 1246 778 1254 q 754 1224 754 1238 l 754 1213 m 278 1063 l 461 1256 l 581 1256 l 764 1063 l 610 1063 l 521 1161 l 432 1063 l 278 1063 z "},"Ẫ":{"ha":1043,"x_min":-15,"x_max":1058,"o":"m 751 217 l 296 217 l 203 0 l -15 0 l 435 979 l 608 979 l 1058 0 l 844 0 l 751 217 m 681 381 l 524 747 l 367 381 l 681 381 m 279 1279 q 324 1383 279 1342 q 431 1425 368 1425 q 473 1420 453 1425 q 511 1409 493 1415 q 536 1400 529 1403 q 577 1385 557 1392 q 614 1379 597 1379 q 672 1421 668 1379 l 763 1421 q 719 1317 763 1358 q 611 1276 675 1276 q 562 1283 586 1276 q 506 1301 538 1289 q 465 1315 485 1308 q 428 1321 444 1321 q 369 1279 374 1321 l 279 1279 m 278 1063 l 461 1256 l 581 1256 l 764 1063 l 610 1063 l 521 1161 l 432 1063 l 278 1063 z "},"Ȁ":{"ha":1043,"x_min":-15,"x_max":1058,"o":"m 751 217 l 296 217 l 203 0 l -15 0 l 435 979 l 608 979 l 1058 0 l 844 0 l 751 217 m 681 381 l 524 747 l 367 381 l 681 381 m 235 1279 l 375 1279 l 476 1063 l 374 1063 l 235 1279 m 428 1279 l 567 1279 l 668 1063 l 565 1063 l 428 1279 z "},"Ä":{"ha":1043,"x_min":-15,"x_max":1058,"o":"m 751 217 l 296 217 l 203 0 l -15 0 l 435 979 l 608 979 l 1058 0 l 844 0 l 751 217 m 681 381 l 524 747 l 367 381 l 681 381 m 485 1263 l 485 1081 l 292 1081 l 292 1263 l 485 1263 m 750 1263 l 750 1081 l 557 1081 l 557 1263 l 750 1263 z "},"Ạ":{"ha":1043,"x_min":-15,"x_max":1058,"o":"m 751 217 l 296 217 l 203 0 l -15 0 l 435 979 l 608 979 l 1058 0 l 844 0 l 751 217 m 681 381 l 524 747 l 367 381 l 681 381 m 618 -93 l 618 -276 l 426 -276 l 426 -93 l 618 -93 z "},"À":{"ha":1043,"x_min":-15,"x_max":1058,"o":"m 751 217 l 296 217 l 203 0 l -15 0 l 435 979 l 608 979 l 1058 0 l 844 0 l 751 217 m 681 381 l 524 747 l 367 381 l 681 381 m 249 1279 l 443 1279 l 586 1063 l 456 1063 l 249 1279 z "},"Ả":{"ha":1043,"x_min":-15,"x_max":1058,"o":"m 751 217 l 296 217 l 203 0 l -15 0 l 435 979 l 608 979 l 1058 0 l 844 0 l 751 217 m 681 381 l 524 747 l 367 381 l 681 381 m 572 1063 l 469 1063 l 469 1093 q 485 1131 469 1118 q 529 1156 501 1143 q 542 1162 532 1157 q 556 1171 551 1167 q 560 1179 560 1175 q 514 1203 560 1203 q 435 1186 478 1203 l 407 1260 q 539 1285 469 1285 q 647 1259 606 1285 q 688 1196 688 1233 q 670 1154 688 1169 q 621 1125 653 1139 q 584 1103 596 1113 q 572 1081 572 1094 l 572 1063 z "},"Ȃ":{"ha":1043,"x_min":-15,"x_max":1058,"o":"m 751 217 l 296 217 l 203 0 l -15 0 l 435 979 l 608 979 l 1058 0 l 844 0 l 751 217 m 681 381 l 524 747 l 367 381 l 681 381 m 521 1268 q 676 1229 611 1268 q 768 1117 742 1190 l 671 1075 q 521 1144 629 1144 q 371 1075 413 1144 l 274 1117 q 365 1229 300 1190 q 521 1268 431 1268 z "},"Ā":{"ha":1043,"x_min":-15,"x_max":1058,"o":"m 751 217 l 296 217 l 203 0 l -15 0 l 435 979 l 608 979 l 1058 0 l 844 0 l 751 217 m 681 381 l 524 747 l 367 381 l 681 381 m 303 1236 l 739 1236 l 739 1106 l 303 1106 l 303 1236 z "},"Ą":{"ha":1043,"x_min":-15,"x_max":1065,"o":"m 1065 -246 q 926 -274 1003 -274 q 800 -231 850 -274 q 750 -121 750 -189 q 772 -38 750 -76 q 833 26 793 0 l 751 217 l 296 217 l 203 0 l -15 0 l 435 979 l 608 979 l 1058 0 l 988 0 q 913 -26 942 0 q 885 -90 885 -51 q 906 -146 885 -126 q 967 -165 926 -165 q 1042 -147 999 -165 l 1065 -246 m 681 381 l 524 747 l 367 381 l 681 381 z "},"Å":{"ha":1043,"x_min":-15,"x_max":1058,"o":"m 751 217 l 296 217 l 203 0 l -15 0 l 428 963 q 386 1014 401 983 q 371 1081 371 1044 q 415 1186 371 1143 q 522 1229 458 1229 q 631 1186 586 1229 q 675 1081 675 1143 q 660 1013 675 1044 q 617 961 644 982 l 1058 0 l 844 0 l 751 217 m 522 1143 q 479 1125 496 1143 q 463 1081 463 1107 q 479 1035 463 1053 q 522 1017 496 1017 q 565 1035 549 1017 q 582 1081 582 1053 q 565 1125 582 1107 q 522 1143 549 1143 m 681 381 l 524 747 l 367 381 l 681 381 z "},"Ǻ":{"ha":1043,"x_min":-15,"x_max":1058,"o":"m 751 217 l 296 217 l 203 0 l -15 0 l 428 963 q 386 1014 401 983 q 371 1081 371 1044 q 415 1186 371 1143 q 522 1229 458 1229 q 588 1215 553 1229 l 676 1314 l 869 1314 l 663 1140 q 675 1081 675 1114 q 660 1013 675 1044 q 617 961 644 982 l 1058 0 l 844 0 l 751 217 m 522 1143 q 479 1125 496 1143 q 463 1081 463 1107 q 479 1035 463 1053 q 522 1017 496 1017 q 565 1035 549 1017 q 582 1081 582 1053 q 565 1125 582 1107 q 522 1143 549 1143 m 681 381 l 524 747 l 367 381 l 681 381 z "},"Ã":{"ha":1043,"x_min":-15,"x_max":1058,"o":"m 751 217 l 296 217 l 203 0 l -15 0 l 435 979 l 608 979 l 1058 0 l 844 0 l 751 217 m 681 381 l 524 747 l 367 381 l 681 381 m 279 1072 q 322 1224 279 1172 q 431 1275 364 1275 q 478 1265 456 1275 q 536 1235 501 1256 q 580 1210 563 1218 q 614 1201 597 1201 q 655 1220 640 1201 q 672 1271 669 1239 l 763 1271 q 720 1119 763 1171 q 611 1068 678 1068 q 563 1078 586 1068 q 506 1108 540 1088 q 461 1133 478 1125 q 428 1140 444 1140 q 387 1122 401 1140 q 369 1072 372 1104 l 279 1072 z "},"Æ":{"ha":1389,"x_min":-43,"x_max":1338,"o":"m 800 811 l 851 582 l 1310 582 l 1310 414 l 889 414 l 943 168 l 1338 168 l 1338 0 l 783 0 l 736 217 l 319 217 l 192 0 l -43 0 l 574 979 l 1338 979 l 1338 811 l 800 811 m 700 381 l 622 728 l 417 381 l 700 381 z "},"Ǽ":{"ha":1389,"x_min":-43,"x_max":1338,"o":"m 800 811 l 851 582 l 1310 582 l 1310 414 l 889 414 l 943 168 l 1338 168 l 1338 0 l 783 0 l 736 217 l 319 217 l 192 0 l -43 0 l 574 979 l 1338 979 l 1338 811 l 800 811 m 700 381 l 622 728 l 417 381 l 700 381 m 636 1063 l 779 1279 l 974 1279 l 767 1063 l 636 1063 z "},"B":{"ha":957,"x_min":97,"x_max":904,"o":"m 726 507 q 858 420 811 482 q 904 268 904 358 q 813 72 904 144 q 563 0 722 0 l 97 0 l 97 979 l 549 979 q 791 911 701 979 q 881 725 881 843 q 840 591 881 649 q 726 507 799 533 m 308 581 l 513 581 q 635 609 596 581 q 675 696 675 638 q 635 785 675 757 q 513 814 596 814 l 308 814 l 308 581 m 538 165 q 663 194 624 165 q 701 289 701 224 q 663 385 701 354 q 538 415 624 415 l 308 415 l 308 165 l 538 165 z "},"C":{"ha":942,"x_min":69,"x_max":889,"o":"m 557 -12 q 298 50 408 -12 q 128 226 188 113 q 69 490 69 340 q 128 754 69 640 q 298 930 188 868 q 557 992 408 992 q 743 962 654 992 q 889 879 832 932 l 819 725 q 692 796 756 774 q 561 818 629 818 q 360 735 431 818 q 290 490 290 651 q 360 245 290 329 q 561 161 431 161 q 692 183 629 161 q 819 254 756 206 l 889 100 q 743 17 832 47 q 557 -12 654 -12 z "},"Ć":{"ha":942,"x_min":69,"x_max":889,"o":"m 557 -12 q 298 50 408 -12 q 128 226 188 113 q 69 490 69 340 q 128 754 69 640 q 298 930 188 868 q 557 992 408 992 q 743 962 654 992 q 889 879 832 932 l 819 725 q 692 796 756 774 q 561 818 629 818 q 360 735 431 818 q 290 490 290 651 q 360 245 290 329 q 561 161 431 161 q 692 183 629 161 q 819 254 756 206 l 889 100 q 743 17 832 47 q 557 -12 654 -12 m 482 1063 l 625 1279 l 819 1279 l 613 1063 l 482 1063 z "},"Č":{"ha":942,"x_min":69,"x_max":889,"o":"m 557 -12 q 298 50 408 -12 q 128 226 188 113 q 69 490 69 340 q 128 754 69 640 q 298 930 188 868 q 557 992 408 992 q 743 962 654 992 q 889 879 832 932 l 819 725 q 692 796 756 774 q 561 818 629 818 q 360 735 431 818 q 290 490 290 651 q 360 245 290 329 q 561 161 431 161 q 692 183 629 161 q 819 254 756 206 l 889 100 q 743 17 832 47 q 557 -12 654 -12 m 790 1279 l 607 1063 l 488 1063 l 304 1279 l 461 1279 l 547 1160 l 633 1279 l 790 1279 z "},"Ç":{"ha":942,"x_min":69,"x_max":889,"o":"m 889 100 q 756 22 836 51 q 588 -11 676 -7 l 582 -57 q 599 -56 588 -56 q 683 -81 651 -56 q 715 -151 715 -107 q 667 -240 715 -206 q 528 -274 618 -274 q 461 -267 497 -274 q 397 -249 425 -261 l 414 -168 q 522 -187 476 -187 q 586 -151 586 -187 q 542 -125 586 -125 q 492 -133 517 -125 l 464 -104 l 476 -7 q 258 74 350 8 q 118 247 167 140 q 69 490 69 354 q 128 754 69 640 q 298 930 188 868 q 557 992 408 992 q 743 962 654 992 q 889 879 832 932 l 819 725 q 692 796 756 774 q 561 818 629 818 q 360 735 431 818 q 290 490 290 651 q 360 245 290 329 q 561 161 431 161 q 692 183 629 161 q 819 254 756 206 l 889 100 z "},"Ḉ":{"ha":942,"x_min":69,"x_max":889,"o":"m 613 1063 l 482 1063 l 625 1279 l 819 1279 l 613 1063 m 889 100 q 756 22 836 51 q 588 -11 676 -7 l 582 -57 q 599 -56 588 -56 q 683 -81 651 -56 q 715 -151 715 -107 q 667 -240 715 -206 q 528 -274 618 -274 q 461 -267 497 -274 q 397 -249 425 -261 l 414 -168 q 522 -187 476 -187 q 586 -151 586 -187 q 542 -125 586 -125 q 492 -133 517 -125 l 464 -104 l 476 -7 q 258 74 350 8 q 118 247 167 140 q 69 490 69 354 q 128 754 69 640 q 298 930 188 868 q 557 992 408 992 q 743 962 654 992 q 889 879 832 932 l 819 725 q 692 796 756 774 q 561 818 629 818 q 360 735 431 818 q 290 490 290 651 q 360 245 290 329 q 561 161 431 161 q 692 183 629 161 q 819 254 756 206 l 889 100 z "},"Ĉ":{"ha":942,"x_min":69,"x_max":889,"o":"m 557 -12 q 298 50 408 -12 q 128 226 188 113 q 69 490 69 340 q 128 754 69 640 q 298 930 188 868 q 557 992 408 992 q 743 962 654 992 q 889 879 832 932 l 819 725 q 692 796 756 774 q 561 818 629 818 q 360 735 431 818 q 290 490 290 651 q 360 245 290 329 q 561 161 431 161 q 692 183 629 161 q 819 254 756 206 l 889 100 q 743 17 832 47 q 557 -12 654 -12 m 304 1063 l 488 1279 l 607 1279 l 790 1063 l 633 1063 l 547 1181 l 461 1063 l 304 1063 z "},"Ċ":{"ha":942,"x_min":69,"x_max":889,"o":"m 557 -12 q 298 50 408 -12 q 128 226 188 113 q 69 490 69 340 q 128 754 69 640 q 298 930 188 868 q 557 992 408 992 q 743 962 654 992 q 889 879 832 932 l 819 725 q 692 796 756 774 q 561 818 629 818 q 360 735 431 818 q 290 490 290 651 q 360 245 290 329 q 561 161 431 161 q 692 183 629 161 q 819 254 756 206 l 889 100 q 743 17 832 47 q 557 -12 654 -12 m 660 1269 l 660 1074 l 435 1074 l 435 1269 l 660 1269 z "},"D":{"ha":1060,"x_min":97,"x_max":990,"o":"m 97 979 l 478 979 q 753 921 638 979 q 929 753 868 863 q 990 490 990 643 q 930 227 990 338 q 754 58 869 117 q 478 0 639 0 l 97 0 l 97 979 m 463 175 q 775 490 775 175 q 463 804 775 804 l 314 804 l 314 175 l 463 175 z "},"Ǆ":{"ha":1886,"x_min":97,"x_max":1836,"o":"m 97 979 l 478 979 q 753 921 638 979 q 929 753 868 863 q 990 490 990 643 q 930 227 990 338 q 754 58 869 117 q 478 0 639 0 l 97 0 l 97 979 m 463 175 q 775 490 775 175 q 463 804 775 804 l 314 804 l 314 175 l 463 175 m 1836 171 l 1836 0 l 1108 0 l 1108 158 l 1578 808 l 1108 808 l 1108 979 l 1822 979 l 1822 824 l 1349 171 l 1836 171 m 1707 1279 l 1524 1063 l 1404 1063 l 1221 1279 l 1378 1279 l 1464 1160 l 1550 1279 l 1707 1279 z "},"Ð":{"ha":1101,"x_min":21,"x_max":1032,"o":"m 518 979 q 794 921 679 979 q 971 753 910 863 q 1032 490 1032 643 q 972 227 1032 338 q 795 58 911 117 q 518 0 679 0 l 139 0 l 139 413 l 21 413 l 21 576 l 139 576 l 139 979 l 518 979 m 504 175 q 815 490 815 175 q 738 726 815 649 q 504 804 661 804 l 356 804 l 356 576 l 613 576 l 613 413 l 356 413 l 356 175 l 504 175 z "},"Ď":{"ha":1060,"x_min":97,"x_max":990,"o":"m 97 979 l 478 979 q 753 921 638 979 q 929 753 868 863 q 990 490 990 643 q 930 227 990 338 q 754 58 869 117 q 478 0 639 0 l 97 0 l 97 979 m 463 175 q 775 490 775 175 q 463 804 775 804 l 314 804 l 314 175 l 463 175 m 772 1279 l 589 1063 l 469 1063 l 286 1279 l 443 1279 l 529 1160 l 615 1279 l 772 1279 z "},"Đ":{"ha":1101,"x_min":21,"x_max":1032,"o":"m 518 979 q 794 921 679 979 q 971 753 910 863 q 1032 490 1032 643 q 972 227 1032 338 q 795 58 911 117 q 518 0 679 0 l 139 0 l 139 413 l 21 413 l 21 576 l 139 576 l 139 979 l 518 979 m 504 175 q 815 490 815 175 q 738 726 815 649 q 504 804 661 804 l 356 804 l 356 576 l 613 576 l 613 413 l 356 413 l 356 175 l 504 175 z "},"Ḍ":{"ha":1060,"x_min":97,"x_max":990,"o":"m 97 979 l 478 979 q 753 921 638 979 q 929 753 868 863 q 990 490 990 643 q 930 227 990 338 q 754 58 869 117 q 478 0 639 0 l 97 0 l 97 979 m 463 175 q 775 490 775 175 q 463 804 775 804 l 314 804 l 314 175 l 463 175 m 625 -93 l 625 -276 l 433 -276 l 433 -93 l 625 -93 z "},"Ḏ":{"ha":1060,"x_min":97,"x_max":990,"o":"m 97 979 l 478 979 q 753 921 638 979 q 929 753 868 863 q 990 490 990 643 q 930 227 990 338 q 754 58 869 117 q 478 0 639 0 l 97 0 l 97 979 m 463 175 q 775 490 775 175 q 463 804 775 804 l 314 804 l 314 175 l 463 175 m 311 -124 l 747 -124 l 747 -246 l 311 -246 l 311 -124 z "},"ǅ":{"ha":1774,"x_min":97,"x_max":1728,"o":"m 97 979 l 478 979 q 753 921 638 979 q 929 753 868 863 q 990 490 990 643 q 930 227 990 338 q 754 58 869 117 q 478 0 639 0 l 97 0 l 97 979 m 463 175 q 775 490 775 175 q 463 804 775 804 l 314 804 l 314 175 l 463 175 m 1728 157 l 1728 0 l 1124 0 l 1124 146 l 1463 525 l 1128 525 l 1128 682 l 1714 682 l 1714 542 l 1369 157 l 1728 157 m 1671 1056 l 1490 771 l 1365 771 l 1185 1056 l 1347 1056 l 1428 894 l 1508 1056 l 1671 1056 z "},"E":{"ha":824,"x_min":97,"x_max":772,"o":"m 97 979 l 772 979 l 772 811 l 308 811 l 308 582 l 744 582 l 744 414 l 308 414 l 308 168 l 772 168 l 772 0 l 97 0 l 97 979 z "},"É":{"ha":824,"x_min":97,"x_max":772,"o":"m 97 979 l 772 979 l 772 811 l 308 811 l 308 582 l 744 582 l 744 414 l 308 414 l 308 168 l 772 168 l 772 0 l 97 0 l 97 979 m 394 1063 l 538 1279 l 732 1279 l 525 1063 l 394 1063 z "},"Ĕ":{"ha":824,"x_min":97,"x_max":772,"o":"m 97 979 l 772 979 l 772 811 l 308 811 l 308 582 l 744 582 l 744 414 l 308 414 l 308 168 l 772 168 l 772 0 l 97 0 l 97 979 m 460 1075 q 304 1114 369 1075 q 213 1226 239 1153 l 310 1267 q 460 1199 351 1199 q 610 1267 568 1199 l 707 1226 q 615 1114 681 1153 q 460 1075 550 1075 z "},"Ě":{"ha":824,"x_min":97,"x_max":772,"o":"m 97 979 l 772 979 l 772 811 l 308 811 l 308 582 l 744 582 l 744 414 l 308 414 l 308 168 l 772 168 l 772 0 l 97 0 l 97 979 m 703 1279 l 519 1063 l 400 1063 l 217 1279 l 374 1279 l 460 1160 l 546 1279 l 703 1279 z "},"Ȩ":{"ha":824,"x_min":97,"x_max":772,"o":"m 308 811 l 308 582 l 744 582 l 744 414 l 308 414 l 308 168 l 772 168 l 772 0 l 501 0 l 494 -57 q 511 -56 500 -56 q 596 -81 564 -56 q 628 -151 628 -107 q 579 -240 628 -206 q 440 -274 531 -274 q 374 -267 410 -274 q 310 -249 338 -261 l 326 -168 q 435 -187 389 -187 q 499 -151 499 -187 q 454 -125 499 -125 q 404 -133 429 -125 l 376 -104 l 389 0 l 97 0 l 97 979 l 772 979 l 772 811 l 308 811 z "},"Ḝ":{"ha":824,"x_min":97,"x_max":772,"o":"m 460 1075 q 304 1114 369 1075 q 213 1226 239 1153 l 310 1267 q 460 1199 351 1199 q 610 1267 568 1199 l 707 1226 q 615 1114 681 1153 q 460 1075 550 1075 m 308 811 l 308 582 l 744 582 l 744 414 l 308 414 l 308 168 l 772 168 l 772 0 l 501 0 l 494 -57 q 511 -56 500 -56 q 596 -81 564 -56 q 628 -151 628 -107 q 579 -240 628 -206 q 440 -274 531 -274 q 374 -267 410 -274 q 310 -249 338 -261 l 326 -168 q 435 -187 389 -187 q 499 -151 499 -187 q 454 -125 499 -125 q 404 -133 429 -125 l 376 -104 l 389 0 l 97 0 l 97 979 l 772 979 l 772 811 l 308 811 z "},"Ê":{"ha":824,"x_min":97,"x_max":772,"o":"m 97 979 l 772 979 l 772 811 l 308 811 l 308 582 l 744 582 l 744 414 l 308 414 l 308 168 l 772 168 l 772 0 l 97 0 l 97 979 m 217 1063 l 400 1279 l 519 1279 l 703 1063 l 546 1063 l 460 1181 l 374 1063 l 217 1063 z "},"Ế":{"ha":824,"x_min":97,"x_max":864,"o":"m 97 979 l 772 979 l 772 811 l 308 811 l 308 582 l 744 582 l 744 414 l 308 414 l 308 168 l 772 168 l 772 0 l 97 0 l 97 979 m 590 1211 l 690 1407 l 864 1407 l 693 1211 l 590 1211 m 217 1063 l 400 1256 l 519 1256 l 703 1063 l 549 1063 l 460 1161 l 371 1063 l 217 1063 z "},"Ệ":{"ha":824,"x_min":97,"x_max":772,"o":"m 97 979 l 772 979 l 772 811 l 308 811 l 308 582 l 744 582 l 744 414 l 308 414 l 308 168 l 772 168 l 772 0 l 97 0 l 97 979 m 556 -93 l 556 -276 l 364 -276 l 364 -93 l 556 -93 m 217 1063 l 400 1279 l 519 1279 l 703 1063 l 546 1063 l 460 1181 l 374 1063 l 217 1063 z "},"Ề":{"ha":824,"x_min":97,"x_max":772,"o":"m 97 979 l 772 979 l 772 811 l 308 811 l 308 582 l 744 582 l 744 414 l 308 414 l 308 168 l 772 168 l 772 0 l 97 0 l 97 979 m 479 1407 l 653 1407 l 751 1211 l 649 1211 l 479 1407 m 217 1063 l 400 1256 l 519 1256 l 703 1063 l 549 1063 l 460 1161 l 371 1063 l 217 1063 z "},"Ể":{"ha":824,"x_min":97,"x_max":807,"o":"m 97 979 l 772 979 l 772 811 l 308 811 l 308 582 l 744 582 l 744 414 l 308 414 l 308 168 l 772 168 l 772 0 l 97 0 l 97 979 m 693 1213 l 589 1213 l 589 1239 q 607 1278 589 1265 q 654 1303 625 1292 q 679 1317 679 1310 q 668 1329 679 1324 q 635 1335 657 1335 q 556 1319 600 1335 l 528 1390 q 660 1415 590 1415 q 767 1392 728 1415 q 807 1332 807 1369 q 790 1292 807 1306 q 742 1265 774 1278 q 705 1246 717 1254 q 693 1224 693 1238 l 693 1213 m 217 1063 l 400 1256 l 519 1256 l 703 1063 l 549 1063 l 460 1161 l 371 1063 l 217 1063 z "},"Ễ":{"ha":824,"x_min":97,"x_max":772,"o":"m 97 979 l 772 979 l 772 811 l 308 811 l 308 582 l 744 582 l 744 414 l 308 414 l 308 168 l 772 168 l 772 0 l 97 0 l 97 979 m 218 1279 q 263 1383 218 1342 q 369 1425 307 1425 q 412 1420 392 1425 q 450 1409 432 1415 q 475 1400 468 1403 q 516 1385 496 1392 q 553 1379 536 1379 q 611 1421 607 1379 l 701 1421 q 658 1317 701 1358 q 550 1276 614 1276 q 501 1283 525 1276 q 444 1301 476 1289 q 403 1315 424 1308 q 367 1321 383 1321 q 308 1279 313 1321 l 218 1279 m 217 1063 l 400 1256 l 519 1256 l 703 1063 l 549 1063 l 460 1161 l 371 1063 l 217 1063 z "},"Ȅ":{"ha":824,"x_min":97,"x_max":772,"o":"m 97 979 l 772 979 l 772 811 l 308 811 l 308 582 l 744 582 l 744 414 l 308 414 l 308 168 l 772 168 l 772 0 l 97 0 l 97 979 m 174 1279 l 314 1279 l 415 1063 l 313 1063 l 174 1279 m 367 1279 l 506 1279 l 607 1063 l 504 1063 l 367 1279 z "},"Ë":{"ha":824,"x_min":97,"x_max":772,"o":"m 97 979 l 772 979 l 772 811 l 308 811 l 308 582 l 744 582 l 744 414 l 308 414 l 308 168 l 772 168 l 772 0 l 97 0 l 97 979 m 424 1263 l 424 1081 l 231 1081 l 231 1263 l 424 1263 m 689 1263 l 689 1081 l 496 1081 l 496 1263 l 689 1263 z "},"Ė":{"ha":824,"x_min":97,"x_max":772,"o":"m 97 979 l 772 979 l 772 811 l 308 811 l 308 582 l 744 582 l 744 414 l 308 414 l 308 168 l 772 168 l 772 0 l 97 0 l 97 979 m 572 1269 l 572 1074 l 347 1074 l 347 1269 l 572 1269 z "},"Ẹ":{"ha":824,"x_min":97,"x_max":772,"o":"m 97 979 l 772 979 l 772 811 l 308 811 l 308 582 l 744 582 l 744 414 l 308 414 l 308 168 l 772 168 l 772 0 l 97 0 l 97 979 m 556 -93 l 556 -276 l 364 -276 l 364 -93 l 556 -93 z "},"È":{"ha":824,"x_min":97,"x_max":772,"o":"m 97 979 l 772 979 l 772 811 l 308 811 l 308 582 l 744 582 l 744 414 l 308 414 l 308 168 l 772 168 l 772 0 l 97 0 l 97 979 m 188 1279 l 382 1279 l 525 1063 l 394 1063 l 188 1279 z "},"Ẻ":{"ha":824,"x_min":97,"x_max":772,"o":"m 97 979 l 772 979 l 772 811 l 308 811 l 308 582 l 744 582 l 744 414 l 308 414 l 308 168 l 772 168 l 772 0 l 97 0 l 97 979 m 511 1063 l 408 1063 l 408 1093 q 424 1131 408 1118 q 468 1156 440 1143 q 481 1162 471 1157 q 494 1171 490 1167 q 499 1179 499 1175 q 453 1203 499 1203 q 374 1186 417 1203 l 346 1260 q 478 1285 408 1285 q 585 1259 544 1285 q 626 1196 626 1233 q 609 1154 626 1169 q 560 1125 592 1139 q 523 1103 535 1113 q 511 1081 511 1094 l 511 1063 z "},"Ȇ":{"ha":824,"x_min":97,"x_max":772,"o":"m 97 979 l 772 979 l 772 811 l 308 811 l 308 582 l 744 582 l 744 414 l 308 414 l 308 168 l 772 168 l 772 0 l 97 0 l 97 979 m 460 1268 q 615 1229 550 1268 q 707 1117 681 1190 l 610 1075 q 460 1144 568 1144 q 310 1075 351 1144 l 213 1117 q 304 1229 239 1190 q 460 1268 369 1268 z "},"Ē":{"ha":824,"x_min":97,"x_max":772,"o":"m 97 979 l 772 979 l 772 811 l 308 811 l 308 582 l 744 582 l 744 414 l 308 414 l 308 168 l 772 168 l 772 0 l 97 0 l 97 979 m 242 1236 l 678 1236 l 678 1106 l 242 1106 l 242 1236 z "},"Ḗ":{"ha":824,"x_min":97,"x_max":772,"o":"m 97 979 l 772 979 l 772 811 l 308 811 l 308 582 l 744 582 l 744 414 l 308 414 l 308 168 l 772 168 l 772 0 l 97 0 l 97 979 m 242 1236 l 678 1236 l 678 1106 l 242 1106 l 242 1236 m 394 1285 l 538 1501 l 732 1501 l 525 1285 l 394 1285 z "},"Ḕ":{"ha":824,"x_min":97,"x_max":772,"o":"m 97 979 l 772 979 l 772 811 l 308 811 l 308 582 l 744 582 l 744 414 l 308 414 l 308 168 l 772 168 l 772 0 l 97 0 l 97 979 m 242 1236 l 678 1236 l 678 1106 l 242 1106 l 242 1236 m 188 1501 l 382 1501 l 525 1285 l 394 1285 l 188 1501 z "},"Ę":{"ha":824,"x_min":97,"x_max":826,"o":"m 826 -246 q 688 -274 764 -274 q 560 -231 610 -274 q 511 -121 511 -187 q 564 0 511 -49 l 97 0 l 97 979 l 772 979 l 772 811 l 308 811 l 308 582 l 744 582 l 744 414 l 308 414 l 308 168 l 772 168 l 772 0 l 743 0 q 672 -25 699 0 q 644 -90 644 -50 q 666 -146 644 -126 q 728 -165 688 -165 q 803 -147 760 -165 l 826 -246 z "},"Ẽ":{"ha":824,"x_min":97,"x_max":772,"o":"m 97 979 l 772 979 l 772 811 l 308 811 l 308 582 l 744 582 l 744 414 l 308 414 l 308 168 l 772 168 l 772 0 l 97 0 l 97 979 m 218 1072 q 260 1224 218 1172 q 369 1275 303 1275 q 417 1265 394 1275 q 475 1235 440 1256 q 519 1210 501 1218 q 553 1201 536 1201 q 594 1220 579 1201 q 611 1271 608 1239 l 701 1271 q 659 1119 701 1171 q 550 1068 617 1068 q 502 1078 525 1068 q 444 1108 479 1088 q 400 1133 417 1125 q 367 1140 383 1140 q 326 1122 340 1140 q 308 1072 311 1104 l 218 1072 z "},"F":{"ha":794,"x_min":97,"x_max":758,"o":"m 97 979 l 758 979 l 758 808 l 311 808 l 311 583 l 731 583 l 731 413 l 311 413 l 311 0 l 97 0 l 97 979 z "},"G":{"ha":1025,"x_min":69,"x_max":939,"o":"m 939 540 l 939 61 q 772 7 868 26 q 575 -12 676 -12 q 306 48 419 -12 q 131 222 192 108 q 69 490 69 335 q 130 756 69 643 q 303 931 190 869 q 565 992 415 992 q 762 963 671 992 q 913 882 853 933 l 844 728 q 712 798 776 776 q 572 819 647 819 q 289 490 289 819 q 363 238 289 321 q 585 154 436 154 q 744 175 665 154 l 744 390 l 553 390 l 553 540 l 939 540 z "},"Ğ":{"ha":1025,"x_min":69,"x_max":939,"o":"m 939 540 l 939 61 q 772 7 868 26 q 575 -12 676 -12 q 306 48 419 -12 q 131 222 192 108 q 69 490 69 335 q 130 756 69 643 q 303 931 190 869 q 565 992 415 992 q 762 963 671 992 q 913 882 853 933 l 844 728 q 712 798 776 776 q 572 819 647 819 q 289 490 289 819 q 363 238 289 321 q 585 154 436 154 q 744 175 665 154 l 744 390 l 553 390 l 553 540 l 939 540 m 565 1075 q 410 1114 475 1075 q 318 1226 344 1153 l 415 1267 q 565 1199 457 1199 q 715 1267 674 1199 l 813 1226 q 721 1114 786 1153 q 565 1075 656 1075 z "},"Ǧ":{"ha":1025,"x_min":69,"x_max":939,"o":"m 939 540 l 939 61 q 772 7 868 26 q 575 -12 676 -12 q 306 48 419 -12 q 131 222 192 108 q 69 490 69 335 q 130 756 69 643 q 303 931 190 869 q 565 992 415 992 q 762 963 671 992 q 913 882 853 933 l 844 728 q 712 798 776 776 q 572 819 647 819 q 289 490 289 819 q 363 238 289 321 q 585 154 436 154 q 744 175 665 154 l 744 390 l 553 390 l 553 540 l 939 540 m 808 1279 l 625 1063 l 506 1063 l 322 1279 l 479 1279 l 565 1160 l 651 1279 l 808 1279 z "},"Ĝ":{"ha":1025,"x_min":69,"x_max":939,"o":"m 939 540 l 939 61 q 772 7 868 26 q 575 -12 676 -12 q 306 48 419 -12 q 131 222 192 108 q 69 490 69 335 q 130 756 69 643 q 303 931 190 869 q 565 992 415 992 q 762 963 671 992 q 913 882 853 933 l 844 728 q 712 798 776 776 q 572 819 647 819 q 289 490 289 819 q 363 238 289 321 q 585 154 436 154 q 744 175 665 154 l 744 390 l 553 390 l 553 540 l 939 540 m 322 1063 l 506 1279 l 625 1279 l 808 1063 l 651 1063 l 565 1181 l 479 1063 l 322 1063 z "},"Ģ":{"ha":1025,"x_min":69,"x_max":939,"o":"m 939 540 l 939 61 q 772 7 868 26 q 575 -12 676 -12 q 306 48 419 -12 q 131 222 192 108 q 69 490 69 335 q 130 756 69 643 q 303 931 190 869 q 565 992 415 992 q 762 963 671 992 q 913 882 853 933 l 844 728 q 712 798 776 776 q 572 819 647 819 q 289 490 289 819 q 363 238 289 321 q 585 154 436 154 q 744 175 665 154 l 744 390 l 553 390 l 553 540 l 939 540 m 678 -90 l 678 -181 q 659 -293 678 -244 q 594 -382 640 -342 l 519 -331 q 568 -249 560 -293 l 471 -249 l 471 -90 l 678 -90 z "},"Ġ":{"ha":1025,"x_min":69,"x_max":939,"o":"m 939 540 l 939 61 q 772 7 868 26 q 575 -12 676 -12 q 306 48 419 -12 q 131 222 192 108 q 69 490 69 335 q 130 756 69 643 q 303 931 190 869 q 565 992 415 992 q 762 963 671 992 q 913 882 853 933 l 844 728 q 712 798 776 776 q 572 819 647 819 q 289 490 289 819 q 363 238 289 321 q 585 154 436 154 q 744 175 665 154 l 744 390 l 553 390 l 553 540 l 939 540 m 678 1269 l 678 1074 l 453 1074 l 453 1269 l 678 1269 z "},"Ḡ":{"ha":1025,"x_min":69,"x_max":939,"o":"m 939 540 l 939 61 q 772 7 868 26 q 575 -12 676 -12 q 306 48 419 -12 q 131 222 192 108 q 69 490 69 335 q 130 756 69 643 q 303 931 190 869 q 565 992 415 992 q 762 963 671 992 q 913 882 853 933 l 844 728 q 712 798 776 776 q 572 819 647 819 q 289 490 289 819 q 363 238 289 321 q 585 154 436 154 q 744 175 665 154 l 744 390 l 553 390 l 553 540 l 939 540 m 347 1236 l 783 1236 l 783 1106 l 347 1106 l 347 1236 z "},"H":{"ha":1071,"x_min":97,"x_max":974,"o":"m 974 979 l 974 0 l 761 0 l 761 411 l 310 411 l 310 0 l 97 0 l 97 979 l 310 979 l 310 583 l 761 583 l 761 979 l 974 979 z "},"Ħ":{"ha":1154,"x_min":21,"x_max":1133,"o":"m 1133 706 l 1015 706 l 1015 0 l 803 0 l 803 411 l 351 411 l 351 0 l 139 0 l 139 706 l 21 706 l 21 864 l 139 864 l 139 979 l 351 979 l 351 864 l 803 864 l 803 979 l 1015 979 l 1015 864 l 1133 864 l 1133 706 m 803 706 l 351 706 l 351 583 l 803 583 l 803 706 z "},"Ḫ":{"ha":1071,"x_min":97,"x_max":974,"o":"m 974 979 l 974 0 l 761 0 l 761 411 l 310 411 l 310 0 l 97 0 l 97 979 l 310 979 l 310 583 l 761 583 l 761 979 l 974 979 m 536 -315 q 374 -264 446 -315 q 278 -114 303 -212 l 375 -74 q 536 -183 435 -183 q 697 -74 638 -183 l 794 -114 q 698 -264 769 -212 q 536 -315 626 -315 z "},"Ĥ":{"ha":1071,"x_min":97,"x_max":974,"o":"m 974 979 l 974 0 l 761 0 l 761 411 l 310 411 l 310 0 l 97 0 l 97 979 l 310 979 l 310 583 l 761 583 l 761 979 l 974 979 m 293 1063 l 476 1279 l 596 1279 l 779 1063 l 622 1063 l 536 1181 l 450 1063 l 293 1063 z "},"Ḥ":{"ha":1071,"x_min":97,"x_max":974,"o":"m 974 979 l 974 0 l 761 0 l 761 411 l 310 411 l 310 0 l 97 0 l 97 979 l 310 979 l 310 583 l 761 583 l 761 979 l 974 979 m 632 -93 l 632 -276 l 440 -276 l 440 -93 l 632 -93 z "},"I":{"ha":411,"x_min":97,"x_max":314,"o":"m 97 979 l 314 979 l 314 0 l 97 0 l 97 979 z "},"Í":{"ha":411,"x_min":97,"x_max":478,"o":"m 97 979 l 314 979 l 314 0 l 97 0 l 97 979 m 140 1063 l 283 1279 l 478 1279 l 271 1063 l 140 1063 z "},"Ĭ":{"ha":411,"x_min":-42,"x_max":453,"o":"m 97 979 l 314 979 l 314 0 l 97 0 l 97 979 m 206 1075 q 50 1114 115 1075 q -42 1226 -15 1153 l 56 1267 q 206 1199 97 1199 q 356 1267 314 1199 l 453 1226 q 361 1114 426 1153 q 206 1075 296 1075 z "},"Î":{"ha":411,"x_min":-37,"x_max":449,"o":"m 97 979 l 314 979 l 314 0 l 97 0 l 97 979 m -37 1063 l 146 1279 l 265 1279 l 449 1063 l 292 1063 l 206 1181 l 119 1063 l -37 1063 z "},"Ȉ":{"ha":411,"x_min":-81,"x_max":353,"o":"m 97 979 l 314 979 l 314 0 l 97 0 l 97 979 m -81 1279 l 60 1279 l 161 1063 l 58 1063 l -81 1279 m 113 1279 l 251 1279 l 353 1063 l 250 1063 l 113 1279 z "},"Ï":{"ha":411,"x_min":-24,"x_max":435,"o":"m 97 979 l 314 979 l 314 0 l 97 0 l 97 979 m 169 1263 l 169 1081 l -24 1081 l -24 1263 l 169 1263 m 435 1263 l 435 1081 l 242 1081 l 242 1263 l 435 1263 z "},"Ḯ":{"ha":411,"x_min":-24,"x_max":478,"o":"m 97 979 l 314 979 l 314 0 l 97 0 l 97 979 m 169 1263 l 169 1081 l -24 1081 l -24 1263 l 169 1263 m 435 1263 l 435 1081 l 242 1081 l 242 1263 l 435 1263 m 140 1285 l 283 1501 l 478 1501 l 271 1285 l 140 1285 z "},"İ":{"ha":411,"x_min":93,"x_max":318,"o":"m 97 979 l 314 979 l 314 0 l 97 0 l 97 979 m 318 1269 l 318 1074 l 93 1074 l 93 1269 l 318 1269 z "},"Ị":{"ha":411,"x_min":97,"x_max":314,"o":"m 97 979 l 314 979 l 314 0 l 97 0 l 97 979 m 301 -93 l 301 -276 l 110 -276 l 110 -93 l 301 -93 z "},"Ì":{"ha":411,"x_min":-67,"x_max":314,"o":"m 97 979 l 314 979 l 314 0 l 97 0 l 97 979 m -67 1279 l 128 1279 l 271 1063 l 140 1063 l -67 1279 z "},"Ỉ":{"ha":411,"x_min":92,"x_max":372,"o":"m 97 979 l 314 979 l 314 0 l 97 0 l 97 979 m 257 1063 l 154 1063 l 154 1093 q 170 1131 154 1118 q 214 1156 186 1143 q 226 1162 217 1157 q 240 1171 236 1167 q 244 1179 244 1175 q 199 1203 244 1203 q 119 1186 163 1203 l 92 1260 q 224 1285 154 1285 q 331 1259 290 1285 q 372 1196 372 1233 q 355 1154 372 1169 q 306 1125 338 1139 q 269 1103 281 1113 q 257 1081 257 1094 l 257 1063 z "},"Ȋ":{"ha":411,"x_min":-42,"x_max":453,"o":"m 97 979 l 314 979 l 314 0 l 97 0 l 97 979 m 206 1268 q 361 1229 296 1268 q 453 1117 426 1190 l 356 1075 q 206 1144 314 1144 q 56 1075 97 1144 l -42 1117 q 50 1229 -15 1190 q 206 1268 115 1268 z "},"Ī":{"ha":411,"x_min":-12,"x_max":424,"o":"m 97 979 l 314 979 l 314 0 l 97 0 l 97 979 m -12 1236 l 424 1236 l 424 1106 l -12 1106 l -12 1236 z "},"Į":{"ha":411,"x_min":43,"x_max":360,"o":"m 360 -246 q 221 -274 296 -274 q 94 -231 144 -274 q 43 -118 43 -189 q 97 3 43 -47 l 97 979 l 314 979 l 314 0 l 293 0 q 209 -26 240 0 q 178 -90 178 -51 q 199 -146 178 -126 q 260 -165 219 -165 q 336 -147 293 -165 l 360 -246 z "},"Ĩ":{"ha":411,"x_min":-36,"x_max":447,"o":"m 97 979 l 314 979 l 314 0 l 97 0 l 97 979 m -36 1072 q 6 1224 -36 1172 q 115 1275 49 1275 q 163 1265 140 1275 q 221 1235 186 1256 q 265 1210 247 1218 q 299 1201 282 1201 q 340 1220 325 1201 q 357 1271 354 1239 l 447 1271 q 405 1119 447 1171 q 296 1068 363 1068 q 248 1078 271 1068 q 190 1108 225 1088 q 146 1133 163 1125 q 113 1140 129 1140 q 72 1122 86 1140 q 54 1072 57 1104 l -36 1072 z "},"J":{"ha":524,"x_min":-6,"x_max":426,"o":"m -6 160 l 100 167 q 182 198 156 169 q 208 283 208 226 l 208 979 l 426 979 l 426 286 q 136 -7 426 10 l 7 -14 l -6 160 z "},"Ĵ":{"ha":524,"x_min":-6,"x_max":561,"o":"m -6 160 l 100 167 q 182 198 156 169 q 208 283 208 226 l 208 979 l 426 979 l 426 286 q 136 -7 426 10 l 7 -14 l -6 160 m 75 1063 l 258 1279 l 378 1279 l 561 1063 l 404 1063 l 318 1181 l 232 1063 l 75 1063 z "},"K":{"ha":942,"x_min":97,"x_max":999,"o":"m 739 0 l 314 451 l 314 0 l 97 0 l 97 979 l 314 979 l 314 549 l 725 979 l 981 979 l 525 511 l 999 0 l 739 0 z "},"Ķ":{"ha":942,"x_min":97,"x_max":999,"o":"m 739 0 l 314 451 l 314 0 l 97 0 l 97 979 l 314 979 l 314 549 l 725 979 l 981 979 l 525 511 l 999 0 l 739 0 m 576 -90 l 576 -181 q 558 -293 576 -244 q 493 -382 539 -342 l 418 -331 q 467 -249 458 -293 l 369 -249 l 369 -90 l 576 -90 z "},"L":{"ha":782,"x_min":97,"x_max":751,"o":"m 97 979 l 314 979 l 314 176 l 751 176 l 751 0 l 97 0 l 97 979 z "},"Ǉ":{"ha":1310,"x_min":97,"x_max":1213,"o":"m 97 979 l 314 979 l 314 176 l 710 176 l 710 0 l 97 0 l 97 979 m 781 160 l 886 167 q 969 198 943 169 q 996 282 996 226 l 996 979 l 1213 979 l 1213 285 q 922 -7 1213 10 l 794 -14 l 781 160 z "},"Ĺ":{"ha":782,"x_min":97,"x_max":751,"o":"m 97 979 l 314 979 l 314 176 l 751 176 l 751 0 l 97 0 l 97 979 m 140 1063 l 283 1279 l 478 1279 l 271 1063 l 140 1063 z "},"Ľ":{"ha":782,"x_min":97,"x_max":751,"o":"m 97 979 l 314 979 l 314 176 l 751 176 l 751 0 l 97 0 l 97 979 m 435 710 l 435 979 l 569 979 l 533 710 l 435 710 z "},"Ļ":{"ha":782,"x_min":97,"x_max":751,"o":"m 97 979 l 314 979 l 314 176 l 751 176 l 751 0 l 97 0 l 97 979 m 538 -90 l 538 -181 q 519 -293 538 -244 q 454 -382 500 -342 l 379 -331 q 428 -249 419 -293 l 331 -249 l 331 -90 l 538 -90 z "},"Ŀ":{"ha":782,"x_min":97,"x_max":751,"o":"m 97 979 l 314 979 l 314 176 l 751 176 l 751 0 l 97 0 l 97 979 m 656 588 l 656 393 l 431 393 l 431 588 l 656 588 z "},"Ḷ":{"ha":782,"x_min":97,"x_max":751,"o":"m 97 979 l 314 979 l 314 176 l 751 176 l 751 0 l 97 0 l 97 979 m 531 -93 l 531 -276 l 339 -276 l 339 -93 l 531 -93 z "},"ǈ":{"ha":1153,"x_min":97,"x_max":1079,"o":"m 97 979 l 314 979 l 314 176 l 751 176 l 751 0 l 97 0 l 97 979 m 1072 44 q 1042 -122 1072 -60 q 944 -216 1011 -185 q 761 -254 876 -247 l 696 -258 l 681 -108 l 751 -103 q 837 -74 811 -99 q 863 6 863 -49 l 863 682 l 1072 682 l 1072 44 m 1079 1010 l 1079 814 l 854 814 l 854 1010 l 1079 1010 z "},"Ḻ":{"ha":782,"x_min":97,"x_max":751,"o":"m 97 979 l 314 979 l 314 176 l 751 176 l 751 0 l 97 0 l 97 979 m 217 -124 l 653 -124 l 653 -246 l 217 -246 l 217 -124 z "},"Ł":{"ha":824,"x_min":-21,"x_max":793,"o":"m 793 176 l 793 0 l 139 0 l 139 339 l 57 292 l -21 432 l 139 524 l 139 979 l 356 979 l 356 649 l 567 771 l 644 631 l 356 464 l 356 176 l 793 176 z "},"M":{"ha":1169,"x_min":100,"x_max":1069,"o":"m 1069 979 l 1069 0 l 879 0 l 879 581 l 654 161 l 515 161 l 290 575 l 290 0 l 100 0 l 100 979 l 271 979 l 586 381 l 901 979 l 1069 979 z "},"Ṃ":{"ha":1169,"x_min":100,"x_max":1069,"o":"m 1069 979 l 1069 0 l 879 0 l 879 581 l 654 161 l 515 161 l 290 575 l 290 0 l 100 0 l 100 979 l 271 979 l 586 381 l 901 979 l 1069 979 m 681 -93 l 681 -276 l 489 -276 l 489 -93 l 681 -93 z "},"N":{"ha":1044,"x_min":97,"x_max":947,"o":"m 947 979 l 947 0 l 786 0 l 299 624 l 299 0 l 97 0 l 97 979 l 257 979 l 744 358 l 744 979 l 947 979 z "},"Ǌ":{"ha":1568,"x_min":97,"x_max":1471,"o":"m 947 979 l 947 0 l 786 0 l 299 624 l 299 0 l 97 0 l 97 979 l 257 979 l 744 358 l 744 979 l 947 979 m 1039 160 l 1144 167 q 1226 198 1200 169 q 1253 283 1253 226 l 1253 979 l 1471 979 l 1471 286 q 1181 -7 1471 10 l 1051 -14 l 1039 160 z "},"Ń":{"ha":1044,"x_min":97,"x_max":947,"o":"m 947 979 l 947 0 l 786 0 l 299 624 l 299 0 l 97 0 l 97 979 l 257 979 l 744 358 l 744 979 l 947 979 m 457 1063 l 600 1279 l 794 1279 l 588 1063 l 457 1063 z "},"Ň":{"ha":1044,"x_min":97,"x_max":947,"o":"m 947 979 l 947 0 l 786 0 l 299 624 l 299 0 l 97 0 l 97 979 l 257 979 l 744 358 l 744 979 l 947 979 m 765 1279 l 582 1063 l 463 1063 l 279 1279 l 436 1279 l 522 1160 l 608 1279 l 765 1279 z "},"Ņ":{"ha":1044,"x_min":97,"x_max":947,"o":"m 947 979 l 947 0 l 786 0 l 299 624 l 299 0 l 97 0 l 97 979 l 257 979 l 744 358 l 744 979 l 947 979 m 626 -90 l 626 -181 q 608 -293 626 -244 q 543 -382 589 -342 l 468 -331 q 517 -249 508 -293 l 419 -249 l 419 -90 l 626 -90 z "},"Ṅ":{"ha":1044,"x_min":97,"x_max":947,"o":"m 947 979 l 947 0 l 786 0 l 299 624 l 299 0 l 97 0 l 97 979 l 257 979 l 744 358 l 744 979 l 947 979 m 635 1269 l 635 1074 l 410 1074 l 410 1269 l 635 1269 z "},"Ṇ":{"ha":1044,"x_min":97,"x_max":947,"o":"m 947 979 l 947 0 l 786 0 l 299 624 l 299 0 l 97 0 l 97 979 l 257 979 l 744 358 l 744 979 l 947 979 m 619 -93 l 619 -276 l 428 -276 l 428 -93 l 619 -93 z "},"Ŋ":{"ha":1044,"x_min":97,"x_max":947,"o":"m 947 979 l 947 39 q 656 -254 947 -237 l 528 -261 l 515 -99 l 619 -92 q 710 -56 678 -87 q 743 31 743 -24 l 743 56 l 299 624 l 299 0 l 97 0 l 97 979 l 257 979 l 744 358 l 744 979 l 947 979 z "},"ǋ":{"ha":1415,"x_min":97,"x_max":1342,"o":"m 947 979 l 947 0 l 786 0 l 299 624 l 299 0 l 97 0 l 97 979 l 257 979 l 744 358 l 744 979 l 947 979 m 1335 44 q 1304 -122 1335 -60 q 1206 -216 1274 -185 q 1024 -254 1139 -247 l 958 -258 l 943 -108 l 1014 -103 q 1099 -74 1074 -99 q 1125 6 1125 -49 l 1125 682 l 1335 682 l 1335 44 m 1342 1010 l 1342 814 l 1117 814 l 1117 1010 l 1342 1010 z "},"Ṉ":{"ha":1044,"x_min":97,"x_max":947,"o":"m 947 979 l 947 0 l 786 0 l 299 624 l 299 0 l 97 0 l 97 979 l 257 979 l 744 358 l 744 979 l 947 979 m 306 -124 l 742 -124 l 742 -246 l 306 -246 l 306 -124 z "},"Ñ":{"ha":1044,"x_min":97,"x_max":947,"o":"m 947 979 l 947 0 l 786 0 l 299 624 l 299 0 l 97 0 l 97 979 l 257 979 l 744 358 l 744 979 l 947 979 m 281 1072 q 323 1224 281 1172 q 432 1275 365 1275 q 480 1265 457 1275 q 538 1235 503 1256 q 581 1210 564 1218 q 615 1201 599 1201 q 656 1220 642 1201 q 674 1271 671 1239 l 764 1271 q 722 1119 764 1171 q 613 1068 679 1068 q 565 1078 588 1068 q 507 1108 542 1088 q 463 1133 479 1125 q 429 1140 446 1140 q 388 1122 403 1140 q 371 1072 374 1104 l 281 1072 z "},"O":{"ha":1093,"x_min":69,"x_max":1025,"o":"m 547 -12 q 294 49 401 -12 q 128 224 186 111 q 69 490 69 338 q 128 756 69 643 q 294 931 186 869 q 547 992 401 992 q 801 931 693 992 q 967 756 908 869 q 1025 490 1025 643 q 967 224 1025 338 q 801 49 908 111 q 547 -12 693 -12 m 547 156 q 740 242 669 156 q 810 490 810 328 q 740 738 810 653 q 547 824 671 824 q 355 738 424 824 q 286 490 286 653 q 356 242 286 328 q 547 156 425 156 z "},"Ó":{"ha":1093,"x_min":69,"x_max":1025,"o":"m 547 -12 q 294 49 401 -12 q 128 224 186 111 q 69 490 69 338 q 128 756 69 643 q 294 931 186 869 q 547 992 401 992 q 801 931 693 992 q 967 756 908 869 q 1025 490 1025 643 q 967 224 1025 338 q 801 49 908 111 q 547 -12 693 -12 m 547 156 q 740 242 669 156 q 810 490 810 328 q 740 738 810 653 q 547 824 671 824 q 355 738 424 824 q 286 490 286 653 q 356 242 286 328 q 547 156 425 156 m 481 1063 l 624 1279 l 818 1279 l 611 1063 l 481 1063 z "},"Ŏ":{"ha":1093,"x_min":69,"x_max":1025,"o":"m 547 -12 q 294 49 401 -12 q 128 224 186 111 q 69 490 69 338 q 128 756 69 643 q 294 931 186 869 q 547 992 401 992 q 801 931 693 992 q 967 756 908 869 q 1025 490 1025 643 q 967 224 1025 338 q 801 49 908 111 q 547 -12 693 -12 m 547 156 q 740 242 669 156 q 810 490 810 328 q 740 738 810 653 q 547 824 671 824 q 355 738 424 824 q 286 490 286 653 q 356 242 286 328 q 547 156 425 156 m 546 1075 q 390 1114 456 1075 q 299 1226 325 1153 l 396 1267 q 546 1199 438 1199 q 696 1267 654 1199 l 793 1226 q 701 1114 767 1153 q 546 1075 636 1075 z "},"Ô":{"ha":1093,"x_min":69,"x_max":1025,"o":"m 547 -12 q 294 49 401 -12 q 128 224 186 111 q 69 490 69 338 q 128 756 69 643 q 294 931 186 869 q 547 992 401 992 q 801 931 693 992 q 967 756 908 869 q 1025 490 1025 643 q 967 224 1025 338 q 801 49 908 111 q 547 -12 693 -12 m 547 156 q 740 242 669 156 q 810 490 810 328 q 740 738 810 653 q 547 824 671 824 q 355 738 424 824 q 286 490 286 653 q 356 242 286 328 q 547 156 425 156 m 303 1063 l 486 1279 l 606 1279 l 789 1063 l 632 1063 l 546 1181 l 460 1063 l 303 1063 z "},"Ố":{"ha":1093,"x_min":69,"x_max":1025,"o":"m 547 -12 q 294 49 401 -12 q 128 224 186 111 q 69 490 69 338 q 128 756 69 643 q 294 931 186 869 q 547 992 401 992 q 801 931 693 992 q 967 756 908 869 q 1025 490 1025 643 q 967 224 1025 338 q 801 49 908 111 q 547 -12 693 -12 m 547 156 q 740 242 669 156 q 810 490 810 328 q 740 738 810 653 q 547 824 671 824 q 355 738 424 824 q 286 490 286 653 q 356 242 286 328 q 547 156 425 156 m 676 1211 l 776 1407 l 950 1407 l 779 1211 l 676 1211 m 303 1063 l 486 1256 l 606 1256 l 789 1063 l 635 1063 l 546 1161 l 457 1063 l 303 1063 z "},"Ộ":{"ha":1093,"x_min":69,"x_max":1025,"o":"m 547 -12 q 294 49 401 -12 q 128 224 186 111 q 69 490 69 338 q 128 756 69 643 q 294 931 186 869 q 547 992 401 992 q 801 931 693 992 q 967 756 908 869 q 1025 490 1025 643 q 967 224 1025 338 q 801 49 908 111 q 547 -12 693 -12 m 547 156 q 740 242 669 156 q 810 490 810 328 q 740 738 810 653 q 547 824 671 824 q 355 738 424 824 q 286 490 286 653 q 356 242 286 328 q 547 156 425 156 m 643 -93 l 643 -276 l 451 -276 l 451 -93 l 643 -93 m 303 1063 l 486 1279 l 606 1279 l 789 1063 l 632 1063 l 546 1181 l 460 1063 l 303 1063 z "},"Ồ":{"ha":1093,"x_min":69,"x_max":1025,"o":"m 547 -12 q 294 49 401 -12 q 128 224 186 111 q 69 490 69 338 q 128 756 69 643 q 294 931 186 869 q 547 992 401 992 q 801 931 693 992 q 967 756 908 869 q 1025 490 1025 643 q 967 224 1025 338 q 801 49 908 111 q 547 -12 693 -12 m 547 156 q 740 242 669 156 q 810 490 810 328 q 740 738 810 653 q 547 824 671 824 q 355 738 424 824 q 286 490 286 653 q 356 242 286 328 q 547 156 425 156 m 565 1407 l 739 1407 l 838 1211 l 735 1211 l 565 1407 m 303 1063 l 486 1256 l 606 1256 l 789 1063 l 635 1063 l 546 1161 l 457 1063 l 303 1063 z "},"Ổ":{"ha":1093,"x_min":69,"x_max":1025,"o":"m 547 -12 q 294 49 401 -12 q 128 224 186 111 q 69 490 69 338 q 128 756 69 643 q 294 931 186 869 q 547 992 401 992 q 801 931 693 992 q 967 756 908 869 q 1025 490 1025 643 q 967 224 1025 338 q 801 49 908 111 q 547 -12 693 -12 m 547 156 q 740 242 669 156 q 810 490 810 328 q 740 738 810 653 q 547 824 671 824 q 355 738 424 824 q 286 490 286 653 q 356 242 286 328 q 547 156 425 156 m 779 1213 l 675 1213 l 675 1239 q 693 1278 675 1265 q 740 1303 711 1292 q 765 1317 765 1310 q 754 1329 765 1324 q 721 1335 743 1335 q 642 1319 686 1335 l 614 1390 q 746 1415 676 1415 q 853 1392 814 1415 q 893 1332 893 1369 q 876 1292 893 1306 q 828 1265 860 1278 q 791 1246 803 1254 q 779 1224 779 1238 l 779 1213 m 303 1063 l 486 1256 l 606 1256 l 789 1063 l 635 1063 l 546 1161 l 457 1063 l 303 1063 z "},"Ỗ":{"ha":1093,"x_min":69,"x_max":1025,"o":"m 547 -12 q 294 49 401 -12 q 128 224 186 111 q 69 490 69 338 q 128 756 69 643 q 294 931 186 869 q 547 992 401 992 q 801 931 693 992 q 967 756 908 869 q 1025 490 1025 643 q 967 224 1025 338 q 801 49 908 111 q 547 -12 693 -12 m 547 156 q 740 242 669 156 q 810 490 810 328 q 740 738 810 653 q 547 824 671 824 q 355 738 424 824 q 286 490 286 653 q 356 242 286 328 q 547 156 425 156 m 304 1279 q 349 1383 304 1342 q 456 1425 393 1425 q 498 1420 478 1425 q 536 1409 518 1415 q 561 1400 554 1403 q 602 1385 582 1392 q 639 1379 622 1379 q 697 1421 693 1379 l 788 1421 q 744 1317 788 1358 q 636 1276 700 1276 q 587 1283 611 1276 q 531 1301 563 1289 q 490 1315 510 1308 q 453 1321 469 1321 q 394 1279 399 1321 l 304 1279 m 303 1063 l 486 1256 l 606 1256 l 789 1063 l 635 1063 l 546 1161 l 457 1063 l 303 1063 z "},"Ȍ":{"ha":1093,"x_min":69,"x_max":1025,"o":"m 547 -12 q 294 49 401 -12 q 128 224 186 111 q 69 490 69 338 q 128 756 69 643 q 294 931 186 869 q 547 992 401 992 q 801 931 693 992 q 967 756 908 869 q 1025 490 1025 643 q 967 224 1025 338 q 801 49 908 111 q 547 -12 693 -12 m 547 156 q 740 242 669 156 q 810 490 810 328 q 740 738 810 653 q 547 824 671 824 q 355 738 424 824 q 286 490 286 653 q 356 242 286 328 q 547 156 425 156 m 260 1279 l 400 1279 l 501 1063 l 399 1063 l 260 1279 m 453 1279 l 592 1279 l 693 1063 l 590 1063 l 453 1279 z "},"Ö":{"ha":1093,"x_min":69,"x_max":1025,"o":"m 547 -12 q 294 49 401 -12 q 128 224 186 111 q 69 490 69 338 q 128 756 69 643 q 294 931 186 869 q 547 992 401 992 q 801 931 693 992 q 967 756 908 869 q 1025 490 1025 643 q 967 224 1025 338 q 801 49 908 111 q 547 -12 693 -12 m 547 156 q 740 242 669 156 q 810 490 810 328 q 740 738 810 653 q 547 824 671 824 q 355 738 424 824 q 286 490 286 653 q 356 242 286 328 q 547 156 425 156 m 510 1263 l 510 1081 l 317 1081 l 317 1263 l 510 1263 m 775 1263 l 775 1081 l 582 1081 l 582 1263 l 775 1263 z "},"Ȫ":{"ha":1093,"x_min":69,"x_max":1025,"o":"m 547 -12 q 294 49 401 -12 q 128 224 186 111 q 69 490 69 338 q 128 756 69 643 q 294 931 186 869 q 547 992 401 992 q 801 931 693 992 q 967 756 908 869 q 1025 490 1025 643 q 967 224 1025 338 q 801 49 908 111 q 547 -12 693 -12 m 547 156 q 740 242 669 156 q 810 490 810 328 q 740 738 810 653 q 547 824 671 824 q 355 738 424 824 q 286 490 286 653 q 356 242 286 328 q 547 156 425 156 m 510 1263 l 510 1081 l 317 1081 l 317 1263 l 510 1263 m 775 1263 l 775 1081 l 582 1081 l 582 1263 l 775 1263 m 328 1458 l 764 1458 l 764 1328 l 328 1328 l 328 1458 z "},"Ȱ":{"ha":1093,"x_min":69,"x_max":1025,"o":"m 547 -12 q 294 49 401 -12 q 128 224 186 111 q 69 490 69 338 q 128 756 69 643 q 294 931 186 869 q 547 992 401 992 q 801 931 693 992 q 967 756 908 869 q 1025 490 1025 643 q 967 224 1025 338 q 801 49 908 111 q 547 -12 693 -12 m 547 156 q 740 242 669 156 q 810 490 810 328 q 740 738 810 653 q 547 824 671 824 q 355 738 424 824 q 286 490 286 653 q 356 242 286 328 q 547 156 425 156 m 658 1269 l 658 1074 l 433 1074 l 433 1269 l 658 1269 m 328 1458 l 764 1458 l 764 1328 l 328 1328 l 328 1458 z "},"Ọ":{"ha":1093,"x_min":69,"x_max":1025,"o":"m 547 -12 q 294 49 401 -12 q 128 224 186 111 q 69 490 69 338 q 128 756 69 643 q 294 931 186 869 q 547 992 401 992 q 801 931 693 992 q 967 756 908 869 q 1025 490 1025 643 q 967 224 1025 338 q 801 49 908 111 q 547 -12 693 -12 m 547 156 q 740 242 669 156 q 810 490 810 328 q 740 738 810 653 q 547 824 671 824 q 355 738 424 824 q 286 490 286 653 q 356 242 286 328 q 547 156 425 156 m 643 -93 l 643 -276 l 451 -276 l 451 -93 l 643 -93 z "},"Ò":{"ha":1093,"x_min":69,"x_max":1025,"o":"m 547 -12 q 294 49 401 -12 q 128 224 186 111 q 69 490 69 338 q 128 756 69 643 q 294 931 186 869 q 547 992 401 992 q 801 931 693 992 q 967 756 908 869 q 1025 490 1025 643 q 967 224 1025 338 q 801 49 908 111 q 547 -12 693 -12 m 547 156 q 740 242 669 156 q 810 490 810 328 q 740 738 810 653 q 547 824 671 824 q 355 738 424 824 q 286 490 286 653 q 356 242 286 328 q 547 156 425 156 m 274 1279 l 468 1279 l 611 1063 l 481 1063 l 274 1279 z "},"Ỏ":{"ha":1093,"x_min":69,"x_max":1025,"o":"m 547 -12 q 294 49 401 -12 q 128 224 186 111 q 69 490 69 338 q 128 756 69 643 q 294 931 186 869 q 547 992 401 992 q 801 931 693 992 q 967 756 908 869 q 1025 490 1025 643 q 967 224 1025 338 q 801 49 908 111 q 547 -12 693 -12 m 547 156 q 740 242 669 156 q 810 490 810 328 q 740 738 810 653 q 547 824 671 824 q 355 738 424 824 q 286 490 286 653 q 356 242 286 328 q 547 156 425 156 m 597 1063 l 494 1063 l 494 1093 q 510 1131 494 1118 q 554 1156 526 1143 q 567 1162 557 1157 q 581 1171 576 1167 q 585 1179 585 1175 q 539 1203 585 1203 q 460 1186 503 1203 l 432 1260 q 564 1285 494 1285 q 672 1259 631 1285 q 713 1196 713 1233 q 695 1154 713 1169 q 646 1125 678 1139 q 609 1103 621 1113 q 597 1081 597 1094 l 597 1063 z "},"Ơ":{"ha":1093,"x_min":69,"x_max":1025,"o":"m 1025 1094 q 981 956 1025 1013 q 864 883 938 899 q 985 719 944 819 q 1025 490 1025 619 q 967 224 1025 338 q 801 49 908 111 q 547 -12 693 -12 q 294 49 401 -12 q 128 224 186 111 q 69 490 69 338 q 128 756 69 643 q 294 931 186 869 q 550 992 403 992 q 640 985 594 992 q 722 979 693 979 q 817 1011 789 979 q 844 1121 844 1043 l 844 1147 l 1025 1147 l 1025 1094 m 547 156 q 740 242 669 156 q 810 490 810 328 q 740 738 810 653 q 547 824 671 824 q 355 738 424 824 q 286 490 286 653 q 356 242 286 328 q 547 156 425 156 z "},"Ớ":{"ha":1093,"x_min":69,"x_max":1025,"o":"m 1025 1094 q 981 956 1025 1013 q 864 883 938 899 q 985 719 944 819 q 1025 490 1025 619 q 967 224 1025 338 q 801 49 908 111 q 547 -12 693 -12 q 294 49 401 -12 q 128 224 186 111 q 69 490 69 338 q 128 756 69 643 q 294 931 186 869 q 550 992 403 992 q 640 985 594 992 q 722 979 693 979 q 817 1011 789 979 q 844 1121 844 1043 l 844 1147 l 1025 1147 l 1025 1094 m 547 156 q 740 242 669 156 q 810 490 810 328 q 740 738 810 653 q 547 824 671 824 q 355 738 424 824 q 286 490 286 653 q 356 242 286 328 q 547 156 425 156 m 481 1063 l 624 1279 l 818 1279 l 611 1063 l 481 1063 z "},"Ợ":{"ha":1093,"x_min":69,"x_max":1025,"o":"m 1025 1094 q 981 956 1025 1013 q 864 883 938 899 q 985 719 944 819 q 1025 490 1025 619 q 967 224 1025 338 q 801 49 908 111 q 547 -12 693 -12 q 294 49 401 -12 q 128 224 186 111 q 69 490 69 338 q 128 756 69 643 q 294 931 186 869 q 550 992 403 992 q 640 985 594 992 q 722 979 693 979 q 817 1011 789 979 q 844 1121 844 1043 l 844 1147 l 1025 1147 l 1025 1094 m 547 156 q 740 242 669 156 q 810 490 810 328 q 740 738 810 653 q 547 824 671 824 q 355 738 424 824 q 286 490 286 653 q 356 242 286 328 q 547 156 425 156 m 643 -93 l 643 -276 l 451 -276 l 451 -93 l 643 -93 z "},"Ờ":{"ha":1093,"x_min":69,"x_max":1025,"o":"m 1025 1094 q 981 956 1025 1013 q 864 883 938 899 q 985 719 944 819 q 1025 490 1025 619 q 967 224 1025 338 q 801 49 908 111 q 547 -12 693 -12 q 294 49 401 -12 q 128 224 186 111 q 69 490 69 338 q 128 756 69 643 q 294 931 186 869 q 550 992 403 992 q 640 985 594 992 q 722 979 693 979 q 817 1011 789 979 q 844 1121 844 1043 l 844 1147 l 1025 1147 l 1025 1094 m 547 156 q 740 242 669 156 q 810 490 810 328 q 740 738 810 653 q 547 824 671 824 q 355 738 424 824 q 286 490 286 653 q 356 242 286 328 q 547 156 425 156 m 274 1279 l 468 1279 l 611 1063 l 481 1063 l 274 1279 z "},"Ở":{"ha":1093,"x_min":69,"x_max":1025,"o":"m 1025 1094 q 981 956 1025 1013 q 864 883 938 899 q 985 719 944 819 q 1025 490 1025 619 q 967 224 1025 338 q 801 49 908 111 q 547 -12 693 -12 q 294 49 401 -12 q 128 224 186 111 q 69 490 69 338 q 128 756 69 643 q 294 931 186 869 q 550 992 403 992 q 640 985 594 992 q 722 979 693 979 q 817 1011 789 979 q 844 1121 844 1043 l 844 1147 l 1025 1147 l 1025 1094 m 547 156 q 740 242 669 156 q 810 490 810 328 q 740 738 810 653 q 547 824 671 824 q 355 738 424 824 q 286 490 286 653 q 356 242 286 328 q 547 156 425 156 m 597 1063 l 494 1063 l 494 1093 q 510 1131 494 1118 q 554 1156 526 1143 q 567 1162 557 1157 q 581 1171 576 1167 q 585 1179 585 1175 q 539 1203 585 1203 q 460 1186 503 1203 l 432 1260 q 564 1285 494 1285 q 672 1259 631 1285 q 713 1196 713 1233 q 695 1154 713 1169 q 646 1125 678 1139 q 609 1103 621 1113 q 597 1081 597 1094 l 597 1063 z "},"Ỡ":{"ha":1093,"x_min":69,"x_max":1025,"o":"m 1025 1094 q 981 956 1025 1013 q 864 883 938 899 q 985 719 944 819 q 1025 490 1025 619 q 967 224 1025 338 q 801 49 908 111 q 547 -12 693 -12 q 294 49 401 -12 q 128 224 186 111 q 69 490 69 338 q 128 756 69 643 q 294 931 186 869 q 550 992 403 992 q 640 985 594 992 q 722 979 693 979 q 817 1011 789 979 q 844 1121 844 1043 l 844 1147 l 1025 1147 l 1025 1094 m 547 156 q 740 242 669 156 q 810 490 810 328 q 740 738 810 653 q 547 824 671 824 q 355 738 424 824 q 286 490 286 653 q 356 242 286 328 q 547 156 425 156 m 304 1072 q 347 1224 304 1172 q 456 1275 389 1275 q 503 1265 481 1275 q 561 1235 526 1256 q 605 1210 588 1218 q 639 1201 622 1201 q 680 1220 665 1201 q 697 1271 694 1239 l 788 1271 q 745 1119 788 1171 q 636 1068 703 1068 q 588 1078 611 1068 q 531 1108 565 1088 q 486 1133 503 1125 q 453 1140 469 1140 q 412 1122 426 1140 q 394 1072 397 1104 l 304 1072 z "},"Ő":{"ha":1093,"x_min":69,"x_max":1025,"o":"m 547 -12 q 294 49 401 -12 q 128 224 186 111 q 69 490 69 338 q 128 756 69 643 q 294 931 186 869 q 547 992 401 992 q 801 931 693 992 q 967 756 908 869 q 1025 490 1025 643 q 967 224 1025 338 q 801 49 908 111 q 547 -12 693 -12 m 547 156 q 740 242 669 156 q 810 490 810 328 q 740 738 810 653 q 547 824 671 824 q 355 738 424 824 q 286 490 286 653 q 356 242 286 328 q 547 156 425 156 m 399 1063 l 500 1279 l 639 1279 l 501 1063 l 399 1063 m 590 1063 l 692 1279 l 832 1279 l 693 1063 l 590 1063 z "},"Ȏ":{"ha":1093,"x_min":69,"x_max":1025,"o":"m 547 -12 q 294 49 401 -12 q 128 224 186 111 q 69 490 69 338 q 128 756 69 643 q 294 931 186 869 q 547 992 401 992 q 801 931 693 992 q 967 756 908 869 q 1025 490 1025 643 q 967 224 1025 338 q 801 49 908 111 q 547 -12 693 -12 m 547 156 q 740 242 669 156 q 810 490 810 328 q 740 738 810 653 q 547 824 671 824 q 355 738 424 824 q 286 490 286 653 q 356 242 286 328 q 547 156 425 156 m 546 1268 q 701 1229 636 1268 q 793 1117 767 1190 l 696 1075 q 546 1144 654 1144 q 396 1075 438 1144 l 299 1117 q 390 1229 325 1190 q 546 1268 456 1268 z "},"Ō":{"ha":1093,"x_min":69,"x_max":1025,"o":"m 547 -12 q 294 49 401 -12 q 128 224 186 111 q 69 490 69 338 q 128 756 69 643 q 294 931 186 869 q 547 992 401 992 q 801 931 693 992 q 967 756 908 869 q 1025 490 1025 643 q 967 224 1025 338 q 801 49 908 111 q 547 -12 693 -12 m 547 156 q 740 242 669 156 q 810 490 810 328 q 740 738 810 653 q 547 824 671 824 q 355 738 424 824 q 286 490 286 653 q 356 242 286 328 q 547 156 425 156 m 328 1236 l 764 1236 l 764 1106 l 328 1106 l 328 1236 z "},"Ṓ":{"ha":1093,"x_min":69,"x_max":1025,"o":"m 547 -12 q 294 49 401 -12 q 128 224 186 111 q 69 490 69 338 q 128 756 69 643 q 294 931 186 869 q 547 992 401 992 q 801 931 693 992 q 967 756 908 869 q 1025 490 1025 643 q 967 224 1025 338 q 801 49 908 111 q 547 -12 693 -12 m 547 156 q 740 242 669 156 q 810 490 810 328 q 740 738 810 653 q 547 824 671 824 q 355 738 424 824 q 286 490 286 653 q 356 242 286 328 q 547 156 425 156 m 328 1236 l 764 1236 l 764 1106 l 328 1106 l 328 1236 m 481 1285 l 624 1501 l 818 1501 l 611 1285 l 481 1285 z "},"Ṑ":{"ha":1093,"x_min":69,"x_max":1025,"o":"m 547 -12 q 294 49 401 -12 q 128 224 186 111 q 69 490 69 338 q 128 756 69 643 q 294 931 186 869 q 547 992 401 992 q 801 931 693 992 q 967 756 908 869 q 1025 490 1025 643 q 967 224 1025 338 q 801 49 908 111 q 547 -12 693 -12 m 547 156 q 740 242 669 156 q 810 490 810 328 q 740 738 810 653 q 547 824 671 824 q 355 738 424 824 q 286 490 286 653 q 356 242 286 328 q 547 156 425 156 m 328 1236 l 764 1236 l 764 1106 l 328 1106 l 328 1236 m 274 1501 l 468 1501 l 611 1285 l 481 1285 l 274 1501 z "},"Ǫ":{"ha":1093,"x_min":69,"x_max":1025,"o":"m 701 7 q 613 -90 613 -21 q 634 -146 613 -126 q 696 -165 656 -165 q 771 -147 728 -165 l 794 -246 q 656 -274 731 -274 q 528 -231 578 -274 q 479 -121 479 -187 q 519 -12 479 -60 q 281 56 382 -7 q 124 231 179 119 q 69 490 69 342 q 128 756 69 643 q 294 931 186 869 q 547 992 401 992 q 801 931 693 992 q 967 756 908 869 q 1025 490 1025 643 q 940 179 1025 306 q 701 7 856 53 m 547 156 q 740 242 669 156 q 810 490 810 328 q 740 738 810 653 q 547 824 671 824 q 355 738 424 824 q 286 490 286 653 q 356 242 286 328 q 547 156 425 156 z "},"Ø":{"ha":1093,"x_min":69,"x_max":1025,"o":"m 868 883 q 985 717 944 817 q 1025 490 1025 617 q 967 224 1025 338 q 801 49 908 111 q 547 -12 693 -12 q 365 17 447 -12 l 300 -94 l 163 -11 l 225 97 q 110 264 150 164 q 69 490 69 364 q 128 756 69 643 q 294 931 186 869 q 547 992 401 992 q 729 963 649 992 l 793 1074 l 931 990 l 868 883 m 286 490 q 331 279 286 360 l 639 810 q 547 824 599 824 q 355 738 424 824 q 286 490 286 653 m 547 156 q 740 242 669 156 q 810 490 810 328 q 764 703 810 619 l 454 171 q 547 156 497 156 z "},"Ǿ":{"ha":1093,"x_min":69,"x_max":1025,"o":"m 868 883 q 985 717 944 817 q 1025 490 1025 617 q 967 224 1025 338 q 801 49 908 111 q 547 -12 693 -12 q 365 17 447 -12 l 300 -94 l 163 -11 l 225 97 q 110 264 150 164 q 69 490 69 364 q 128 756 69 643 q 294 931 186 869 q 547 992 401 992 q 729 963 649 992 l 793 1074 l 931 990 l 868 883 m 286 490 q 331 279 286 360 l 639 810 q 547 824 599 824 q 355 738 424 824 q 286 490 286 653 m 547 156 q 740 242 669 156 q 810 490 810 328 q 764 703 810 619 l 454 171 q 547 156 497 156 m 481 1063 l 624 1279 l 818 1279 l 611 1063 l 481 1063 z "},"Õ":{"ha":1093,"x_min":69,"x_max":1025,"o":"m 547 -12 q 294 49 401 -12 q 128 224 186 111 q 69 490 69 338 q 128 756 69 643 q 294 931 186 869 q 547 992 401 992 q 801 931 693 992 q 967 756 908 869 q 1025 490 1025 643 q 967 224 1025 338 q 801 49 908 111 q 547 -12 693 -12 m 547 156 q 740 242 669 156 q 810 490 810 328 q 740 738 810 653 q 547 824 671 824 q 355 738 424 824 q 286 490 286 653 q 356 242 286 328 q 547 156 425 156 m 304 1072 q 347 1224 304 1172 q 456 1275 389 1275 q 503 1265 481 1275 q 561 1235 526 1256 q 605 1210 588 1218 q 639 1201 622 1201 q 680 1220 665 1201 q 697 1271 694 1239 l 788 1271 q 745 1119 788 1171 q 636 1068 703 1068 q 588 1078 611 1068 q 531 1108 565 1088 q 486 1133 503 1125 q 453 1140 469 1140 q 412 1122 426 1140 q 394 1072 397 1104 l 304 1072 z "},"Ṍ":{"ha":1093,"x_min":69,"x_max":1025,"o":"m 547 -12 q 294 49 401 -12 q 128 224 186 111 q 69 490 69 338 q 128 756 69 643 q 294 931 186 869 q 547 992 401 992 q 801 931 693 992 q 967 756 908 869 q 1025 490 1025 643 q 967 224 1025 338 q 801 49 908 111 q 547 -12 693 -12 m 547 156 q 740 242 669 156 q 810 490 810 328 q 740 738 810 653 q 547 824 671 824 q 355 738 424 824 q 286 490 286 653 q 356 242 286 328 q 547 156 425 156 m 304 1072 q 347 1224 304 1172 q 456 1275 389 1275 q 503 1265 481 1275 q 561 1235 526 1256 q 605 1210 588 1218 q 639 1201 622 1201 q 680 1220 665 1201 q 697 1271 694 1239 l 788 1271 q 745 1119 788 1171 q 636 1068 703 1068 q 588 1078 611 1068 q 531 1108 565 1088 q 486 1133 503 1125 q 453 1140 469 1140 q 412 1122 426 1140 q 394 1072 397 1104 l 304 1072 m 481 1285 l 624 1501 l 818 1501 l 611 1285 l 481 1285 z "},"Ṏ":{"ha":1093,"x_min":69,"x_max":1025,"o":"m 547 -12 q 294 49 401 -12 q 128 224 186 111 q 69 490 69 338 q 128 756 69 643 q 294 931 186 869 q 547 992 401 992 q 801 931 693 992 q 967 756 908 869 q 1025 490 1025 643 q 967 224 1025 338 q 801 49 908 111 q 547 -12 693 -12 m 547 156 q 740 242 669 156 q 810 490 810 328 q 740 738 810 653 q 547 824 671 824 q 355 738 424 824 q 286 490 286 653 q 356 242 286 328 q 547 156 425 156 m 304 1072 q 347 1224 304 1172 q 456 1275 389 1275 q 503 1265 481 1275 q 561 1235 526 1256 q 605 1210 588 1218 q 639 1201 622 1201 q 680 1220 665 1201 q 697 1271 694 1239 l 788 1271 q 745 1119 788 1171 q 636 1068 703 1068 q 588 1078 611 1068 q 531 1108 565 1088 q 486 1133 503 1125 q 453 1140 469 1140 q 412 1122 426 1140 q 394 1072 397 1104 l 304 1072 m 510 1485 l 510 1303 l 317 1303 l 317 1485 l 510 1485 m 775 1485 l 775 1303 l 582 1303 l 582 1485 l 775 1485 z "},"Ȭ":{"ha":1093,"x_min":69,"x_max":1025,"o":"m 547 -12 q 294 49 401 -12 q 128 224 186 111 q 69 490 69 338 q 128 756 69 643 q 294 931 186 869 q 547 992 401 992 q 801 931 693 992 q 967 756 908 869 q 1025 490 1025 643 q 967 224 1025 338 q 801 49 908 111 q 547 -12 693 -12 m 547 156 q 740 242 669 156 q 810 490 810 328 q 740 738 810 653 q 547 824 671 824 q 355 738 424 824 q 286 490 286 653 q 356 242 286 328 q 547 156 425 156 m 304 1072 q 347 1224 304 1172 q 456 1275 389 1275 q 503 1265 481 1275 q 561 1235 526 1256 q 605 1210 588 1218 q 639 1201 622 1201 q 680 1220 665 1201 q 697 1271 694 1239 l 788 1271 q 745 1119 788 1171 q 636 1068 703 1068 q 588 1078 611 1068 q 531 1108 565 1088 q 486 1133 503 1125 q 453 1140 469 1140 q 412 1122 426 1140 q 394 1072 397 1104 l 304 1072 m 328 1458 l 764 1458 l 764 1328 l 328 1328 l 328 1458 z "},"Œ":{"ha":1450,"x_min":69,"x_max":1399,"o":"m 583 0 q 306 58 422 0 q 130 227 190 117 q 69 490 69 338 q 131 753 69 643 q 307 921 192 863 q 583 979 422 979 l 1399 979 l 1399 811 l 933 811 l 933 582 l 1369 582 l 1369 414 l 933 414 l 933 168 l 1397 168 l 1397 0 l 583 0 m 722 168 l 722 811 l 597 811 q 365 731 443 811 q 286 490 286 650 q 365 249 286 329 q 597 168 443 168 l 722 168 z "},"P":{"ha":928,"x_min":97,"x_max":885,"o":"m 97 979 l 547 979 q 796 899 707 979 q 885 674 885 818 q 796 449 885 529 q 547 368 707 368 l 314 368 l 314 0 l 97 0 l 97 979 m 519 532 q 682 672 682 532 q 642 779 682 744 q 519 814 601 814 l 314 814 l 314 532 l 519 532 z "},"Þ":{"ha":929,"x_min":97,"x_max":885,"o":"m 549 782 q 797 707 708 782 q 885 497 885 632 q 795 289 885 365 q 549 213 706 213 l 310 213 l 310 0 l 97 0 l 97 979 l 310 979 l 310 782 l 549 782 m 514 378 q 642 406 601 378 q 682 497 682 435 q 642 588 682 560 q 514 617 601 617 l 310 617 l 310 378 l 514 378 z "},"Q":{"ha":1093,"x_min":69,"x_max":1025,"o":"m 782 42 q 842 10 817 32 q 892 -49 868 -12 l 996 -218 l 811 -304 l 667 -68 q 547 -12 633 -12 q 294 49 401 -12 q 128 224 186 111 q 69 490 69 338 q 128 756 69 643 q 294 931 186 869 q 547 992 401 992 q 801 931 693 992 q 967 756 908 869 q 1025 490 1025 643 q 962 215 1025 331 q 782 42 899 99 m 547 156 q 740 242 669 156 q 810 490 810 328 q 740 738 810 653 q 547 824 671 824 q 355 738 424 824 q 286 490 286 653 q 356 242 286 328 q 547 156 425 156 z "},"R":{"ha":974,"x_min":97,"x_max":947,"o":"m 947 0 l 711 0 l 542 313 q 492 365 521 349 q 418 381 463 381 l 311 381 l 311 0 l 97 0 l 97 979 l 547 979 q 808 903 719 979 q 896 685 896 828 q 834 499 896 574 q 660 400 772 424 q 789 290 736 381 l 947 0 m 515 544 q 650 577 608 544 q 692 679 692 610 q 650 782 692 750 q 515 814 608 814 l 308 814 l 308 544 l 515 544 z "},"Ŕ":{"ha":974,"x_min":97,"x_max":947,"o":"m 947 0 l 711 0 l 542 313 q 492 365 521 349 q 418 381 463 381 l 311 381 l 311 0 l 97 0 l 97 979 l 547 979 q 808 903 719 979 q 896 685 896 828 q 834 499 896 574 q 660 400 772 424 q 789 290 736 381 l 947 0 m 515 544 q 650 577 608 544 q 692 679 692 610 q 650 782 692 750 q 515 814 608 814 l 308 814 l 308 544 l 515 544 m 424 1063 l 567 1279 l 761 1279 l 554 1063 l 424 1063 z "},"Ř":{"ha":974,"x_min":97,"x_max":947,"o":"m 947 0 l 711 0 l 542 313 q 492 365 521 349 q 418 381 463 381 l 311 381 l 311 0 l 97 0 l 97 979 l 547 979 q 808 903 719 979 q 896 685 896 828 q 834 499 896 574 q 660 400 772 424 q 789 290 736 381 l 947 0 m 515 544 q 650 577 608 544 q 692 679 692 610 q 650 782 692 750 q 515 814 608 814 l 308 814 l 308 544 l 515 544 m 732 1279 l 549 1063 l 429 1063 l 246 1279 l 403 1279 l 489 1160 l 575 1279 l 732 1279 z "},"Ŗ":{"ha":974,"x_min":97,"x_max":947,"o":"m 947 0 l 711 0 l 542 313 q 492 365 521 349 q 418 381 463 381 l 311 381 l 311 0 l 97 0 l 97 979 l 547 979 q 808 903 719 979 q 896 685 896 828 q 834 499 896 574 q 660 400 772 424 q 789 290 736 381 l 947 0 m 515 544 q 650 577 608 544 q 692 679 692 610 q 650 782 692 750 q 515 814 608 814 l 308 814 l 308 544 l 515 544 m 593 -90 l 593 -181 q 574 -293 593 -244 q 510 -382 556 -342 l 435 -331 q 483 -249 475 -293 l 386 -249 l 386 -90 l 593 -90 z "},"Ȑ":{"ha":974,"x_min":97,"x_max":947,"o":"m 947 0 l 711 0 l 542 313 q 492 365 521 349 q 418 381 463 381 l 311 381 l 311 0 l 97 0 l 97 979 l 547 979 q 808 903 719 979 q 896 685 896 828 q 834 499 896 574 q 660 400 772 424 q 789 290 736 381 l 947 0 m 515 544 q 650 577 608 544 q 692 679 692 610 q 650 782 692 750 q 515 814 608 814 l 308 814 l 308 544 l 515 544 m 203 1279 l 343 1279 l 444 1063 l 342 1063 l 203 1279 m 396 1279 l 535 1279 l 636 1063 l 533 1063 l 396 1279 z "},"Ṛ":{"ha":974,"x_min":97,"x_max":947,"o":"m 947 0 l 711 0 l 542 313 q 492 365 521 349 q 418 381 463 381 l 311 381 l 311 0 l 97 0 l 97 979 l 547 979 q 808 903 719 979 q 896 685 896 828 q 834 499 896 574 q 660 400 772 424 q 789 290 736 381 l 947 0 m 515 544 q 650 577 608 544 q 692 679 692 610 q 650 782 692 750 q 515 814 608 814 l 308 814 l 308 544 l 515 544 m 586 -93 l 586 -276 l 394 -276 l 394 -93 l 586 -93 z "},"Ȓ":{"ha":974,"x_min":97,"x_max":947,"o":"m 947 0 l 711 0 l 542 313 q 492 365 521 349 q 418 381 463 381 l 311 381 l 311 0 l 97 0 l 97 979 l 547 979 q 808 903 719 979 q 896 685 896 828 q 834 499 896 574 q 660 400 772 424 q 789 290 736 381 l 947 0 m 515 544 q 650 577 608 544 q 692 679 692 610 q 650 782 692 750 q 515 814 608 814 l 308 814 l 308 544 l 515 544 m 489 1268 q 644 1229 579 1268 q 736 1117 710 1190 l 639 1075 q 489 1144 597 1144 q 339 1075 381 1144 l 242 1117 q 333 1229 268 1190 q 489 1268 399 1268 z "},"Ṟ":{"ha":974,"x_min":97,"x_max":947,"o":"m 947 0 l 711 0 l 542 313 q 492 365 521 349 q 418 381 463 381 l 311 381 l 311 0 l 97 0 l 97 979 l 547 979 q 808 903 719 979 q 896 685 896 828 q 834 499 896 574 q 660 400 772 424 q 789 290 736 381 l 947 0 m 515 544 q 650 577 608 544 q 692 679 692 610 q 650 782 692 750 q 515 814 608 814 l 308 814 l 308 544 l 515 544 m 272 -124 l 708 -124 l 708 -246 l 272 -246 l 272 -124 z "},"S":{"ha":904,"x_min":56,"x_max":846,"o":"m 440 -12 q 226 17 329 -12 q 56 100 124 47 l 125 254 q 443 156 267 156 q 584 185 535 156 q 633 268 633 215 q 588 342 633 315 q 428 393 543 368 q 222 457 299 419 q 109 549 144 494 q 74 685 74 604 q 123 843 74 774 q 261 952 172 913 q 467 992 350 992 q 667 961 571 992 q 821 879 764 931 l 751 725 q 468 824 617 824 q 335 791 383 824 q 286 701 286 758 q 305 647 286 668 q 367 608 324 625 q 492 574 411 592 q 763 467 681 532 q 846 286 846 401 q 739 67 846 147 q 440 -12 632 -12 z "},"Ś":{"ha":904,"x_min":56,"x_max":846,"o":"m 440 -12 q 226 17 329 -12 q 56 100 124 47 l 125 254 q 443 156 267 156 q 584 185 535 156 q 633 268 633 215 q 588 342 633 315 q 428 393 543 368 q 222 457 299 419 q 109 549 144 494 q 74 685 74 604 q 123 843 74 774 q 261 952 172 913 q 467 992 350 992 q 667 961 571 992 q 821 879 764 931 l 751 725 q 468 824 617 824 q 335 791 383 824 q 286 701 286 758 q 305 647 286 668 q 367 608 324 625 q 492 574 411 592 q 763 467 681 532 q 846 286 846 401 q 739 67 846 147 q 440 -12 632 -12 m 392 1063 l 535 1279 l 729 1279 l 522 1063 l 392 1063 z "},"Ṥ":{"ha":904,"x_min":56,"x_max":846,"o":"m 440 -12 q 226 17 329 -12 q 56 100 124 47 l 125 254 q 443 156 267 156 q 584 185 535 156 q 633 268 633 215 q 588 342 633 315 q 428 393 543 368 q 222 457 299 419 q 109 549 144 494 q 74 685 74 604 q 123 843 74 774 q 261 952 172 913 q 467 992 350 992 q 667 961 571 992 q 821 879 764 931 l 751 725 q 468 824 617 824 q 335 791 383 824 q 286 701 286 758 q 305 647 286 668 q 367 608 324 625 q 492 574 411 592 q 763 467 681 532 q 846 286 846 401 q 739 67 846 147 q 440 -12 632 -12 m 426 1063 l 569 1279 l 764 1279 l 557 1063 l 426 1063 m 399 1278 l 399 1082 l 174 1082 l 174 1278 l 399 1278 z "},"Š":{"ha":904,"x_min":56,"x_max":846,"o":"m 440 -12 q 226 17 329 -12 q 56 100 124 47 l 125 254 q 443 156 267 156 q 584 185 535 156 q 633 268 633 215 q 588 342 633 315 q 428 393 543 368 q 222 457 299 419 q 109 549 144 494 q 74 685 74 604 q 123 843 74 774 q 261 952 172 913 q 467 992 350 992 q 667 961 571 992 q 821 879 764 931 l 751 725 q 468 824 617 824 q 335 791 383 824 q 286 701 286 758 q 305 647 286 668 q 367 608 324 625 q 492 574 411 592 q 763 467 681 532 q 846 286 846 401 q 739 67 846 147 q 440 -12 632 -12 m 700 1279 l 517 1063 l 397 1063 l 214 1279 l 371 1279 l 457 1160 l 543 1279 l 700 1279 z "},"Ṧ":{"ha":904,"x_min":56,"x_max":846,"o":"m 440 -12 q 226 17 329 -12 q 56 100 124 47 l 125 254 q 443 156 267 156 q 584 185 535 156 q 633 268 633 215 q 588 342 633 315 q 428 393 543 368 q 222 457 299 419 q 109 549 144 494 q 74 685 74 604 q 123 843 74 774 q 261 952 172 913 q 467 992 350 992 q 667 961 571 992 q 821 879 764 931 l 751 725 q 468 824 617 824 q 335 791 383 824 q 286 701 286 758 q 305 647 286 668 q 367 608 324 625 q 492 574 411 592 q 763 467 681 532 q 846 286 846 401 q 739 67 846 147 q 440 -12 632 -12 m 700 1279 l 517 1063 l 397 1063 l 214 1279 l 371 1279 l 457 1160 l 543 1279 l 700 1279 m 569 1492 l 569 1296 l 344 1296 l 344 1492 l 569 1492 z "},"Ş":{"ha":904,"x_min":56,"x_max":846,"o":"m 846 286 q 752 78 846 157 q 490 -11 658 -1 l 485 -57 q 501 -56 490 -56 q 586 -81 554 -56 q 618 -151 618 -107 q 569 -240 618 -206 q 431 -274 521 -274 q 364 -267 400 -274 q 300 -249 328 -261 l 317 -168 q 425 -187 379 -187 q 489 -151 489 -187 q 444 -125 489 -125 q 394 -133 419 -125 l 367 -104 l 379 -10 q 199 26 283 -3 q 56 100 114 54 l 125 254 q 443 156 267 156 q 584 185 535 156 q 633 268 633 215 q 588 342 633 315 q 428 393 543 368 q 222 457 299 419 q 109 549 144 494 q 74 685 74 604 q 123 843 74 774 q 261 952 172 913 q 467 992 350 992 q 667 961 571 992 q 821 879 764 931 l 751 725 q 468 824 617 824 q 335 791 383 824 q 286 701 286 758 q 305 647 286 668 q 367 608 324 625 q 492 574 411 592 q 763 467 681 532 q 846 286 846 401 z "},"Ŝ":{"ha":904,"x_min":56,"x_max":846,"o":"m 440 -12 q 226 17 329 -12 q 56 100 124 47 l 125 254 q 443 156 267 156 q 584 185 535 156 q 633 268 633 215 q 588 342 633 315 q 428 393 543 368 q 222 457 299 419 q 109 549 144 494 q 74 685 74 604 q 123 843 74 774 q 261 952 172 913 q 467 992 350 992 q 667 961 571 992 q 821 879 764 931 l 751 725 q 468 824 617 824 q 335 791 383 824 q 286 701 286 758 q 305 647 286 668 q 367 608 324 625 q 492 574 411 592 q 763 467 681 532 q 846 286 846 401 q 739 67 846 147 q 440 -12 632 -12 m 214 1063 l 397 1279 l 517 1279 l 700 1063 l 543 1063 l 457 1181 l 371 1063 l 214 1063 z "},"Ș":{"ha":904,"x_min":56,"x_max":846,"o":"m 440 -12 q 226 17 329 -12 q 56 100 124 47 l 125 254 q 443 156 267 156 q 584 185 535 156 q 633 268 633 215 q 588 342 633 315 q 428 393 543 368 q 222 457 299 419 q 109 549 144 494 q 74 685 74 604 q 123 843 74 774 q 261 952 172 913 q 467 992 350 992 q 667 961 571 992 q 821 879 764 931 l 751 725 q 468 824 617 824 q 335 791 383 824 q 286 701 286 758 q 305 647 286 668 q 367 608 324 625 q 492 574 411 592 q 763 467 681 532 q 846 286 846 401 q 739 67 846 147 q 440 -12 632 -12 m 553 -90 l 553 -181 q 534 -293 553 -244 q 469 -382 515 -342 l 394 -331 q 443 -249 435 -293 l 346 -249 l 346 -90 l 553 -90 z "},"Ṡ":{"ha":904,"x_min":56,"x_max":846,"o":"m 440 -12 q 226 17 329 -12 q 56 100 124 47 l 125 254 q 443 156 267 156 q 584 185 535 156 q 633 268 633 215 q 588 342 633 315 q 428 393 543 368 q 222 457 299 419 q 109 549 144 494 q 74 685 74 604 q 123 843 74 774 q 261 952 172 913 q 467 992 350 992 q 667 961 571 992 q 821 879 764 931 l 751 725 q 468 824 617 824 q 335 791 383 824 q 286 701 286 758 q 305 647 286 668 q 367 608 324 625 q 492 574 411 592 q 763 467 681 532 q 846 286 846 401 q 739 67 846 147 q 440 -12 632 -12 m 569 1269 l 569 1074 l 344 1074 l 344 1269 l 569 1269 z "},"Ṣ":{"ha":904,"x_min":56,"x_max":846,"o":"m 440 -12 q 226 17 329 -12 q 56 100 124 47 l 125 254 q 443 156 267 156 q 584 185 535 156 q 633 268 633 215 q 588 342 633 315 q 428 393 543 368 q 222 457 299 419 q 109 549 144 494 q 74 685 74 604 q 123 843 74 774 q 261 952 172 913 q 467 992 350 992 q 667 961 571 992 q 821 879 764 931 l 751 725 q 468 824 617 824 q 335 791 383 824 q 286 701 286 758 q 305 647 286 668 q 367 608 324 625 q 492 574 411 592 q 763 467 681 532 q 846 286 846 401 q 739 67 846 147 q 440 -12 632 -12 m 546 -93 l 546 -276 l 354 -276 l 354 -93 l 546 -93 z "},"Ṩ":{"ha":904,"x_min":56,"x_max":846,"o":"m 440 -12 q 226 17 329 -12 q 56 100 124 47 l 125 254 q 443 156 267 156 q 584 185 535 156 q 633 268 633 215 q 588 342 633 315 q 428 393 543 368 q 222 457 299 419 q 109 549 144 494 q 74 685 74 604 q 123 843 74 774 q 261 952 172 913 q 467 992 350 992 q 667 961 571 992 q 821 879 764 931 l 751 725 q 468 824 617 824 q 335 791 383 824 q 286 701 286 758 q 305 647 286 668 q 367 608 324 625 q 492 574 411 592 q 763 467 681 532 q 846 286 846 401 q 739 67 846 147 q 440 -12 632 -12 m 546 -93 l 546 -276 l 354 -276 l 354 -93 l 546 -93 m 569 1269 l 569 1074 l 344 1074 l 344 1269 l 569 1269 z "},"ẞ":{"ha":986,"x_min":97,"x_max":935,"o":"m 732 511 q 881 428 828 492 q 935 274 935 365 q 894 129 935 193 q 783 28 854 65 q 624 -8 713 -8 q 481 10 544 -8 q 364 69 418 29 l 421 222 q 613 153 529 153 q 699 188 667 153 q 731 282 731 222 q 688 381 731 350 q 544 411 644 411 l 406 411 l 406 579 l 518 579 q 624 609 588 579 q 660 696 660 639 q 618 788 660 754 q 506 821 576 821 q 360 769 411 821 q 310 618 310 717 l 310 0 l 97 0 l 97 614 q 206 891 97 793 q 511 989 314 989 q 696 956 617 989 q 818 860 775 922 q 861 715 861 799 q 827 592 861 646 q 732 511 793 539 z "},"Ə":{"ha":1065,"x_min":69,"x_max":996,"o":"m 500 992 q 763 931 650 992 q 935 756 875 869 q 996 490 996 643 q 940 229 996 343 q 781 51 883 115 q 547 -12 679 -12 q 291 47 399 -12 q 126 219 183 106 q 69 494 69 333 l 69 578 l 775 578 q 685 758 757 697 q 493 819 613 819 q 206 725 333 819 l 138 879 q 300 961 201 931 q 500 992 399 992 m 540 156 q 704 220 644 156 q 778 413 764 285 l 289 413 q 365 221 300 286 q 540 156 431 156 z "},"T":{"ha":864,"x_min":17,"x_max":847,"o":"m 324 803 l 17 803 l 17 979 l 847 979 l 847 803 l 540 803 l 540 0 l 324 0 l 324 803 z "},"Ŧ":{"ha":864,"x_min":17,"x_max":847,"o":"m 540 803 l 540 576 l 729 576 l 729 413 l 540 413 l 540 0 l 324 0 l 324 413 l 135 413 l 135 576 l 324 576 l 324 803 l 17 803 l 17 979 l 847 979 l 847 803 l 540 803 z "},"Ť":{"ha":864,"x_min":17,"x_max":847,"o":"m 324 803 l 17 803 l 17 979 l 847 979 l 847 803 l 540 803 l 540 0 l 324 0 l 324 803 m 675 1279 l 492 1063 l 372 1063 l 189 1279 l 346 1279 l 432 1160 l 518 1279 l 675 1279 z "},"Ţ":{"ha":864,"x_min":17,"x_max":847,"o":"m 474 0 l 467 -57 q 483 -56 472 -56 q 568 -81 536 -56 q 600 -151 600 -107 q 551 -240 600 -206 q 413 -274 503 -274 q 346 -267 382 -274 q 282 -249 310 -261 l 299 -168 q 407 -187 361 -187 q 471 -151 471 -187 q 426 -125 471 -125 q 376 -133 401 -125 l 349 -104 l 361 0 l 324 0 l 324 803 l 17 803 l 17 979 l 847 979 l 847 803 l 540 803 l 540 0 l 474 0 z "},"Ț":{"ha":864,"x_min":17,"x_max":847,"o":"m 324 803 l 17 803 l 17 979 l 847 979 l 847 803 l 540 803 l 540 0 l 324 0 l 324 803 m 535 -90 l 535 -181 q 516 -293 535 -244 q 451 -382 497 -342 l 376 -331 q 425 -249 417 -293 l 328 -249 l 328 -90 l 535 -90 z "},"Ṭ":{"ha":864,"x_min":17,"x_max":847,"o":"m 324 803 l 17 803 l 17 979 l 847 979 l 847 803 l 540 803 l 540 0 l 324 0 l 324 803 m 528 -93 l 528 -276 l 336 -276 l 336 -93 l 528 -93 z "},"Ṯ":{"ha":864,"x_min":17,"x_max":847,"o":"m 324 803 l 17 803 l 17 979 l 847 979 l 847 803 l 540 803 l 540 0 l 324 0 l 324 803 m 214 -124 l 650 -124 l 650 -246 l 214 -246 l 214 -124 z "},"U":{"ha":1026,"x_min":92,"x_max":935,"o":"m 513 -12 q 199 94 307 -12 q 92 404 92 200 l 92 979 l 304 979 l 304 394 q 358 217 304 278 q 513 156 411 156 q 668 217 614 156 q 722 394 722 279 l 722 979 l 935 979 l 935 404 q 826 94 935 201 q 513 -12 718 -12 z "},"Ú":{"ha":1026,"x_min":92,"x_max":935,"o":"m 513 -12 q 199 94 307 -12 q 92 404 92 200 l 92 979 l 304 979 l 304 394 q 358 217 304 278 q 513 156 411 156 q 668 217 614 156 q 722 394 722 279 l 722 979 l 935 979 l 935 404 q 826 94 935 201 q 513 -12 718 -12 m 447 1063 l 590 1279 l 785 1279 l 578 1063 l 447 1063 z "},"Ŭ":{"ha":1026,"x_min":92,"x_max":935,"o":"m 513 -12 q 199 94 307 -12 q 92 404 92 200 l 92 979 l 304 979 l 304 394 q 358 217 304 278 q 513 156 411 156 q 668 217 614 156 q 722 394 722 279 l 722 979 l 935 979 l 935 404 q 826 94 935 201 q 513 -12 718 -12 m 513 1075 q 357 1114 422 1075 q 265 1226 292 1153 l 363 1267 q 513 1199 404 1199 q 663 1267 621 1199 l 760 1226 q 668 1114 733 1153 q 513 1075 603 1075 z "},"Û":{"ha":1026,"x_min":92,"x_max":935,"o":"m 513 -12 q 199 94 307 -12 q 92 404 92 200 l 92 979 l 304 979 l 304 394 q 358 217 304 278 q 513 156 411 156 q 668 217 614 156 q 722 394 722 279 l 722 979 l 935 979 l 935 404 q 826 94 935 201 q 513 -12 718 -12 m 269 1063 l 453 1279 l 572 1279 l 756 1063 l 599 1063 l 513 1181 l 426 1063 l 269 1063 z "},"Ȕ":{"ha":1026,"x_min":92,"x_max":935,"o":"m 513 -12 q 199 94 307 -12 q 92 404 92 200 l 92 979 l 304 979 l 304 394 q 358 217 304 278 q 513 156 411 156 q 668 217 614 156 q 722 394 722 279 l 722 979 l 935 979 l 935 404 q 826 94 935 201 q 513 -12 718 -12 m 226 1279 l 367 1279 l 468 1063 l 365 1063 l 226 1279 m 419 1279 l 558 1279 l 660 1063 l 557 1063 l 419 1279 z "},"Ü":{"ha":1026,"x_min":92,"x_max":935,"o":"m 513 -12 q 199 94 307 -12 q 92 404 92 200 l 92 979 l 304 979 l 304 394 q 358 217 304 278 q 513 156 411 156 q 668 217 614 156 q 722 394 722 279 l 722 979 l 935 979 l 935 404 q 826 94 935 201 q 513 -12 718 -12 m 476 1263 l 476 1081 l 283 1081 l 283 1263 l 476 1263 m 742 1263 l 742 1081 l 549 1081 l 549 1263 l 742 1263 z "},"Ụ":{"ha":1026,"x_min":92,"x_max":935,"o":"m 513 -12 q 199 94 307 -12 q 92 404 92 200 l 92 979 l 304 979 l 304 394 q 358 217 304 278 q 513 156 411 156 q 668 217 614 156 q 722 394 722 279 l 722 979 l 935 979 l 935 404 q 826 94 935 201 q 513 -12 718 -12 m 608 -93 l 608 -276 l 417 -276 l 417 -93 l 608 -93 z "},"Ù":{"ha":1026,"x_min":92,"x_max":935,"o":"m 513 -12 q 199 94 307 -12 q 92 404 92 200 l 92 979 l 304 979 l 304 394 q 358 217 304 278 q 513 156 411 156 q 668 217 614 156 q 722 394 722 279 l 722 979 l 935 979 l 935 404 q 826 94 935 201 q 513 -12 718 -12 m 240 1279 l 435 1279 l 578 1063 l 447 1063 l 240 1279 z "},"Ủ":{"ha":1026,"x_min":92,"x_max":935,"o":"m 513 -12 q 199 94 307 -12 q 92 404 92 200 l 92 979 l 304 979 l 304 394 q 358 217 304 278 q 513 156 411 156 q 668 217 614 156 q 722 394 722 279 l 722 979 l 935 979 l 935 404 q 826 94 935 201 q 513 -12 718 -12 m 564 1063 l 461 1063 l 461 1093 q 477 1131 461 1118 q 521 1156 493 1143 q 533 1162 524 1157 q 547 1171 543 1167 q 551 1179 551 1175 q 506 1203 551 1203 q 426 1186 469 1203 l 399 1260 q 531 1285 461 1285 q 638 1259 597 1285 q 679 1196 679 1233 q 662 1154 679 1169 q 613 1125 644 1139 q 576 1103 588 1113 q 564 1081 564 1094 l 564 1063 z "},"Ư":{"ha":1026,"x_min":92,"x_max":1090,"o":"m 1090 1147 l 1090 1094 q 1048 959 1090 1015 q 935 885 1006 903 l 935 404 q 826 94 935 201 q 513 -12 718 -12 q 199 94 307 -12 q 92 404 92 200 l 92 979 l 304 979 l 304 394 q 358 217 304 278 q 513 156 411 156 q 668 217 614 156 q 722 394 722 279 l 722 979 l 783 979 q 882 1010 854 979 q 910 1121 910 1042 l 910 1147 l 1090 1147 z "},"Ứ":{"ha":1026,"x_min":92,"x_max":1090,"o":"m 1090 1147 l 1090 1094 q 1048 959 1090 1015 q 935 885 1006 903 l 935 404 q 826 94 935 201 q 513 -12 718 -12 q 199 94 307 -12 q 92 404 92 200 l 92 979 l 304 979 l 304 394 q 358 217 304 278 q 513 156 411 156 q 668 217 614 156 q 722 394 722 279 l 722 979 l 783 979 q 882 1010 854 979 q 910 1121 910 1042 l 910 1147 l 1090 1147 m 447 1063 l 590 1279 l 785 1279 l 578 1063 l 447 1063 z "},"Ự":{"ha":1026,"x_min":92,"x_max":1090,"o":"m 1090 1147 l 1090 1094 q 1048 959 1090 1015 q 935 885 1006 903 l 935 404 q 826 94 935 201 q 513 -12 718 -12 q 199 94 307 -12 q 92 404 92 200 l 92 979 l 304 979 l 304 394 q 358 217 304 278 q 513 156 411 156 q 668 217 614 156 q 722 394 722 279 l 722 979 l 783 979 q 882 1010 854 979 q 910 1121 910 1042 l 910 1147 l 1090 1147 m 608 -93 l 608 -276 l 417 -276 l 417 -93 l 608 -93 z "},"Ừ":{"ha":1026,"x_min":92,"x_max":1090,"o":"m 1090 1147 l 1090 1094 q 1048 959 1090 1015 q 935 885 1006 903 l 935 404 q 826 94 935 201 q 513 -12 718 -12 q 199 94 307 -12 q 92 404 92 200 l 92 979 l 304 979 l 304 394 q 358 217 304 278 q 513 156 411 156 q 668 217 614 156 q 722 394 722 279 l 722 979 l 783 979 q 882 1010 854 979 q 910 1121 910 1042 l 910 1147 l 1090 1147 m 240 1279 l 435 1279 l 578 1063 l 447 1063 l 240 1279 z "},"Ử":{"ha":1026,"x_min":92,"x_max":1090,"o":"m 1090 1147 l 1090 1094 q 1048 959 1090 1015 q 935 885 1006 903 l 935 404 q 826 94 935 201 q 513 -12 718 -12 q 199 94 307 -12 q 92 404 92 200 l 92 979 l 304 979 l 304 394 q 358 217 304 278 q 513 156 411 156 q 668 217 614 156 q 722 394 722 279 l 722 979 l 783 979 q 882 1010 854 979 q 910 1121 910 1042 l 910 1147 l 1090 1147 m 564 1063 l 461 1063 l 461 1093 q 477 1131 461 1118 q 521 1156 493 1143 q 533 1162 524 1157 q 547 1171 543 1167 q 551 1179 551 1175 q 506 1203 551 1203 q 426 1186 469 1203 l 399 1260 q 531 1285 461 1285 q 638 1259 597 1285 q 679 1196 679 1233 q 662 1154 679 1169 q 613 1125 644 1139 q 576 1103 588 1113 q 564 1081 564 1094 l 564 1063 z "},"Ữ":{"ha":1026,"x_min":92,"x_max":1090,"o":"m 1090 1147 l 1090 1094 q 1048 959 1090 1015 q 935 885 1006 903 l 935 404 q 826 94 935 201 q 513 -12 718 -12 q 199 94 307 -12 q 92 404 92 200 l 92 979 l 304 979 l 304 394 q 358 217 304 278 q 513 156 411 156 q 668 217 614 156 q 722 394 722 279 l 722 979 l 783 979 q 882 1010 854 979 q 910 1121 910 1042 l 910 1147 l 1090 1147 m 271 1072 q 313 1224 271 1172 q 422 1275 356 1275 q 470 1265 447 1275 q 528 1235 493 1256 q 572 1210 554 1218 q 606 1201 589 1201 q 647 1220 632 1201 q 664 1271 661 1239 l 754 1271 q 712 1119 754 1171 q 603 1068 669 1068 q 555 1078 578 1068 q 497 1108 532 1088 q 453 1133 469 1125 q 419 1140 436 1140 q 378 1122 393 1140 q 361 1072 364 1104 l 271 1072 z "},"Ű":{"ha":1026,"x_min":92,"x_max":935,"o":"m 513 -12 q 199 94 307 -12 q 92 404 92 200 l 92 979 l 304 979 l 304 394 q 358 217 304 278 q 513 156 411 156 q 668 217 614 156 q 722 394 722 279 l 722 979 l 935 979 l 935 404 q 826 94 935 201 q 513 -12 718 -12 m 365 1063 l 467 1279 l 606 1279 l 468 1063 l 365 1063 m 557 1063 l 658 1279 l 799 1279 l 660 1063 l 557 1063 z "},"Ȗ":{"ha":1026,"x_min":92,"x_max":935,"o":"m 513 -12 q 199 94 307 -12 q 92 404 92 200 l 92 979 l 304 979 l 304 394 q 358 217 304 278 q 513 156 411 156 q 668 217 614 156 q 722 394 722 279 l 722 979 l 935 979 l 935 404 q 826 94 935 201 q 513 -12 718 -12 m 513 1268 q 668 1229 603 1268 q 760 1117 733 1190 l 663 1075 q 513 1144 621 1144 q 363 1075 404 1144 l 265 1117 q 357 1229 292 1190 q 513 1268 422 1268 z "},"Ū":{"ha":1026,"x_min":92,"x_max":935,"o":"m 513 -12 q 199 94 307 -12 q 92 404 92 200 l 92 979 l 304 979 l 304 394 q 358 217 304 278 q 513 156 411 156 q 668 217 614 156 q 722 394 722 279 l 722 979 l 935 979 l 935 404 q 826 94 935 201 q 513 -12 718 -12 m 294 1236 l 731 1236 l 731 1106 l 294 1106 l 294 1236 z "},"Ṻ":{"ha":1026,"x_min":92,"x_max":935,"o":"m 513 -12 q 199 94 307 -12 q 92 404 92 200 l 92 979 l 304 979 l 304 394 q 358 217 304 278 q 513 156 411 156 q 668 217 614 156 q 722 394 722 279 l 722 979 l 935 979 l 935 404 q 826 94 935 201 q 513 -12 718 -12 m 294 1236 l 731 1236 l 731 1106 l 294 1106 l 294 1236 m 476 1485 l 476 1303 l 283 1303 l 283 1485 l 476 1485 m 742 1485 l 742 1303 l 549 1303 l 549 1485 l 742 1485 z "},"Ų":{"ha":1026,"x_min":92,"x_max":935,"o":"m 935 979 l 935 404 q 867 144 935 244 q 669 7 800 43 q 606 -30 628 -4 q 585 -90 585 -56 q 606 -146 585 -126 q 667 -165 626 -165 q 743 -147 699 -165 l 765 -246 q 628 -274 703 -274 q 500 -231 550 -274 q 450 -121 450 -187 q 496 -12 450 -58 q 194 99 297 -7 q 92 404 92 204 l 92 979 l 304 979 l 304 394 q 358 217 304 278 q 513 156 411 156 q 668 217 614 156 q 722 394 722 279 l 722 979 l 935 979 z "},"Ů":{"ha":1026,"x_min":92,"x_max":935,"o":"m 513 -12 q 199 94 307 -12 q 92 404 92 200 l 92 979 l 304 979 l 304 394 q 358 217 304 278 q 513 156 411 156 q 668 217 614 156 q 722 394 722 279 l 722 979 l 935 979 l 935 404 q 826 94 935 201 q 513 -12 718 -12 m 513 1056 q 405 1099 449 1056 q 361 1204 361 1142 q 405 1311 361 1268 q 513 1354 449 1354 q 620 1311 576 1354 q 664 1204 664 1268 q 620 1099 664 1142 q 513 1056 576 1056 m 513 1142 q 556 1160 539 1142 q 572 1204 572 1178 q 556 1250 572 1232 q 513 1268 539 1268 q 469 1250 486 1268 q 453 1204 453 1232 q 469 1160 453 1178 q 513 1142 486 1142 z "},"Ũ":{"ha":1026,"x_min":92,"x_max":935,"o":"m 513 -12 q 199 94 307 -12 q 92 404 92 200 l 92 979 l 304 979 l 304 394 q 358 217 304 278 q 513 156 411 156 q 668 217 614 156 q 722 394 722 279 l 722 979 l 935 979 l 935 404 q 826 94 935 201 q 513 -12 718 -12 m 271 1072 q 313 1224 271 1172 q 422 1275 356 1275 q 470 1265 447 1275 q 528 1235 493 1256 q 572 1210 554 1218 q 606 1201 589 1201 q 647 1220 632 1201 q 664 1271 661 1239 l 754 1271 q 712 1119 754 1171 q 603 1068 669 1068 q 555 1078 578 1068 q 497 1108 532 1088 q 453 1133 469 1125 q 419 1140 436 1140 q 378 1122 393 1140 q 361 1072 364 1104 l 271 1072 z "},"Ṹ":{"ha":1026,"x_min":92,"x_max":935,"o":"m 513 -12 q 199 94 307 -12 q 92 404 92 200 l 92 979 l 304 979 l 304 394 q 358 217 304 278 q 513 156 411 156 q 668 217 614 156 q 722 394 722 279 l 722 979 l 935 979 l 935 404 q 826 94 935 201 q 513 -12 718 -12 m 271 1072 q 313 1224 271 1172 q 422 1275 356 1275 q 470 1265 447 1275 q 528 1235 493 1256 q 572 1210 554 1218 q 606 1201 589 1201 q 647 1220 632 1201 q 664 1271 661 1239 l 754 1271 q 712 1119 754 1171 q 603 1068 669 1068 q 555 1078 578 1068 q 497 1108 532 1088 q 453 1133 469 1125 q 419 1140 436 1140 q 378 1122 393 1140 q 361 1072 364 1104 l 271 1072 m 447 1285 l 590 1501 l 785 1501 l 578 1285 l 447 1285 z "},"V":{"ha":1011,"x_min":-22,"x_max":1033,"o":"m 1033 979 l 593 0 l 419 0 l -22 979 l 203 979 l 508 269 l 814 979 l 1033 979 z "},"W":{"ha":1549,"x_min":25,"x_max":1524,"o":"m 1524 979 l 1175 0 l 1001 0 l 775 649 l 546 0 l 372 0 l 25 979 l 244 979 l 468 303 l 706 979 l 857 979 l 1086 296 l 1318 979 l 1524 979 z "},"Ẃ":{"ha":1549,"x_min":25,"x_max":1524,"o":"m 1524 979 l 1175 0 l 1001 0 l 775 649 l 546 0 l 372 0 l 25 979 l 244 979 l 468 303 l 706 979 l 857 979 l 1086 296 l 1318 979 l 1524 979 m 708 1063 l 851 1279 l 1046 1279 l 839 1063 l 708 1063 z "},"Ŵ":{"ha":1549,"x_min":25,"x_max":1524,"o":"m 1524 979 l 1175 0 l 1001 0 l 775 649 l 546 0 l 372 0 l 25 979 l 244 979 l 468 303 l 706 979 l 857 979 l 1086 296 l 1318 979 l 1524 979 m 531 1063 l 714 1279 l 833 1279 l 1017 1063 l 860 1063 l 774 1181 l 688 1063 l 531 1063 z "},"Ẅ":{"ha":1549,"x_min":25,"x_max":1524,"o":"m 1524 979 l 1175 0 l 1001 0 l 775 649 l 546 0 l 372 0 l 25 979 l 244 979 l 468 303 l 706 979 l 857 979 l 1086 296 l 1318 979 l 1524 979 m 738 1263 l 738 1081 l 544 1081 l 544 1263 l 738 1263 m 1003 1263 l 1003 1081 l 810 1081 l 810 1263 l 1003 1263 z "},"Ẁ":{"ha":1549,"x_min":25,"x_max":1524,"o":"m 1524 979 l 1175 0 l 1001 0 l 775 649 l 546 0 l 372 0 l 25 979 l 244 979 l 468 303 l 706 979 l 857 979 l 1086 296 l 1318 979 l 1524 979 m 501 1279 l 696 1279 l 839 1063 l 708 1063 l 501 1279 z "},"X":{"ha":938,"x_min":-28,"x_max":964,"o":"m 964 0 l 711 0 l 468 338 l 224 0 l -28 0 l 346 496 l -18 979 l 233 979 l 468 654 l 704 979 l 956 979 l 590 496 l 964 0 z "},"Y":{"ha":883,"x_min":-71,"x_max":956,"o":"m 550 443 l 550 0 l 333 0 l 333 443 l -71 979 l 175 979 l 440 617 l 710 979 l 956 979 l 550 443 z "},"Ý":{"ha":883,"x_min":-71,"x_max":956,"o":"m 550 443 l 550 0 l 333 0 l 333 443 l -71 979 l 175 979 l 440 617 l 710 979 l 956 979 l 550 443 m 376 1063 l 519 1279 l 714 1279 l 507 1063 l 376 1063 z "},"Ŷ":{"ha":883,"x_min":-71,"x_max":956,"o":"m 550 443 l 550 0 l 333 0 l 333 443 l -71 979 l 175 979 l 440 617 l 710 979 l 956 979 l 550 443 m 199 1063 l 382 1279 l 501 1279 l 685 1063 l 528 1063 l 442 1181 l 356 1063 l 199 1063 z "},"Ÿ":{"ha":883,"x_min":-71,"x_max":956,"o":"m 550 443 l 550 0 l 333 0 l 333 443 l -71 979 l 175 979 l 440 617 l 710 979 l 956 979 l 550 443 m 406 1263 l 406 1081 l 213 1081 l 213 1263 l 406 1263 m 671 1263 l 671 1081 l 478 1081 l 478 1263 l 671 1263 z "},"Ẏ":{"ha":883,"x_min":-71,"x_max":956,"o":"m 550 443 l 550 0 l 333 0 l 333 443 l -71 979 l 175 979 l 440 617 l 710 979 l 956 979 l 550 443 m 554 1269 l 554 1074 l 329 1074 l 329 1269 l 554 1269 z "},"Ỵ":{"ha":883,"x_min":-71,"x_max":956,"o":"m 550 443 l 550 0 l 333 0 l 333 443 l -71 979 l 175 979 l 440 617 l 710 979 l 956 979 l 550 443 m 539 -93 l 539 -276 l 347 -276 l 347 -93 l 539 -93 z "},"Ỳ":{"ha":883,"x_min":-71,"x_max":956,"o":"m 550 443 l 550 0 l 333 0 l 333 443 l -71 979 l 175 979 l 440 617 l 710 979 l 956 979 l 550 443 m 169 1279 l 364 1279 l 507 1063 l 376 1063 l 169 1279 z "},"Ỷ":{"ha":883,"x_min":-71,"x_max":956,"o":"m 550 443 l 550 0 l 333 0 l 333 443 l -71 979 l 175 979 l 440 617 l 710 979 l 956 979 l 550 443 m 493 1063 l 390 1063 l 390 1093 q 406 1131 390 1118 q 450 1156 422 1143 q 463 1162 453 1157 q 476 1171 472 1167 q 481 1179 481 1175 q 435 1203 481 1203 q 356 1186 399 1203 l 328 1260 q 460 1285 390 1285 q 567 1259 526 1285 q 608 1196 608 1233 q 591 1154 608 1169 q 542 1125 574 1139 q 505 1103 517 1113 q 493 1081 493 1094 l 493 1063 z "},"Ȳ":{"ha":883,"x_min":-71,"x_max":956,"o":"m 550 443 l 550 0 l 333 0 l 333 443 l -71 979 l 175 979 l 440 617 l 710 979 l 956 979 l 550 443 m 224 1236 l 660 1236 l 660 1106 l 224 1106 l 224 1236 z "},"Ỹ":{"ha":883,"x_min":-71,"x_max":956,"o":"m 550 443 l 550 0 l 333 0 l 333 443 l -71 979 l 175 979 l 440 617 l 710 979 l 956 979 l 550 443 m 200 1072 q 242 1224 200 1172 q 351 1275 285 1275 q 399 1265 376 1275 q 457 1235 422 1256 q 501 1210 483 1218 q 535 1201 518 1201 q 576 1220 561 1201 q 593 1271 590 1239 l 683 1271 q 641 1119 683 1171 q 532 1068 599 1068 q 484 1078 507 1068 q 426 1108 461 1088 q 382 1133 399 1125 q 349 1140 365 1140 q 308 1122 322 1140 q 290 1072 293 1104 l 200 1072 z "},"Z":{"ha":847,"x_min":69,"x_max":797,"o":"m 797 171 l 797 0 l 69 0 l 69 158 l 539 808 l 69 808 l 69 979 l 783 979 l 783 824 l 310 171 l 797 171 z "},"Ź":{"ha":847,"x_min":69,"x_max":797,"o":"m 797 171 l 797 0 l 69 0 l 69 158 l 539 808 l 69 808 l 69 979 l 783 979 l 783 824 l 310 171 l 797 171 m 360 1063 l 503 1279 l 697 1279 l 490 1063 l 360 1063 z "},"Ž":{"ha":847,"x_min":69,"x_max":797,"o":"m 797 171 l 797 0 l 69 0 l 69 158 l 539 808 l 69 808 l 69 979 l 783 979 l 783 824 l 310 171 l 797 171 m 668 1279 l 485 1063 l 365 1063 l 182 1279 l 339 1279 l 425 1160 l 511 1279 l 668 1279 z "},"Ż":{"ha":847,"x_min":69,"x_max":797,"o":"m 797 171 l 797 0 l 69 0 l 69 158 l 539 808 l 69 808 l 69 979 l 783 979 l 783 824 l 310 171 l 797 171 m 538 1269 l 538 1074 l 313 1074 l 313 1269 l 538 1269 z "},"Ẓ":{"ha":847,"x_min":69,"x_max":797,"o":"m 797 171 l 797 0 l 69 0 l 69 158 l 539 808 l 69 808 l 69 979 l 783 979 l 783 824 l 310 171 l 797 171 m 517 -93 l 517 -276 l 325 -276 l 325 -93 l 517 -93 z "},"a":{"ha":758,"x_min":53,"x_max":682,"o":"m 383 699 q 609 626 536 699 q 682 403 682 554 l 682 0 l 483 0 l 483 101 q 414 19 463 49 q 300 -11 365 -11 q 174 17 231 -11 q 85 94 118 44 q 53 206 53 144 q 91 324 53 281 q 214 386 129 367 q 446 406 299 406 l 482 406 l 482 431 q 456 517 482 492 q 364 542 429 542 q 253 524 314 542 q 136 474 192 506 l 81 614 q 224 674 139 650 q 383 699 310 699 m 346 133 q 444 174 407 133 q 482 281 482 215 l 482 304 l 458 304 q 301 286 346 304 q 256 221 256 268 q 281 158 256 183 q 346 133 307 133 z "},"á":{"ha":758,"x_min":53,"x_max":682,"o":"m 383 699 q 609 626 536 699 q 682 403 682 554 l 682 0 l 483 0 l 483 101 q 414 19 463 49 q 300 -11 365 -11 q 174 17 231 -11 q 85 94 118 44 q 53 206 53 144 q 91 324 53 281 q 214 386 129 367 q 446 406 299 406 l 482 406 l 482 431 q 456 517 482 492 q 364 542 429 542 q 253 524 314 542 q 136 474 192 506 l 81 614 q 224 674 139 650 q 383 699 310 699 m 346 133 q 444 174 407 133 q 482 281 482 215 l 482 304 l 458 304 q 301 286 346 304 q 256 221 256 268 q 281 158 256 183 q 346 133 307 133 m 322 771 l 458 1056 l 664 1056 l 453 771 l 322 771 z "},"ă":{"ha":758,"x_min":53,"x_max":682,"o":"m 383 699 q 609 626 536 699 q 682 403 682 554 l 682 0 l 483 0 l 483 101 q 414 19 463 49 q 300 -11 365 -11 q 174 17 231 -11 q 85 94 118 44 q 53 206 53 144 q 91 324 53 281 q 214 386 129 367 q 446 406 299 406 l 482 406 l 482 431 q 456 517 482 492 q 364 542 429 542 q 253 524 314 542 q 136 474 192 506 l 81 614 q 224 674 139 650 q 383 699 310 699 m 346 133 q 444 174 407 133 q 482 281 482 215 l 482 304 l 458 304 q 301 286 346 304 q 256 221 256 268 q 281 158 256 183 q 346 133 307 133 m 388 801 q 226 853 297 801 q 129 1003 154 906 l 226 1043 q 388 933 286 933 q 549 1043 489 933 l 646 1003 q 549 853 621 906 q 388 801 478 801 z "},"ắ":{"ha":758,"x_min":53,"x_max":682,"o":"m 383 699 q 609 626 536 699 q 682 403 682 554 l 682 0 l 483 0 l 483 101 q 414 19 463 49 q 300 -11 365 -11 q 174 17 231 -11 q 85 94 118 44 q 53 206 53 144 q 91 324 53 281 q 214 386 129 367 q 446 406 299 406 l 482 406 l 482 431 q 456 517 482 492 q 364 542 429 542 q 253 524 314 542 q 136 474 192 506 l 81 614 q 224 674 139 650 q 383 699 310 699 m 346 133 q 444 174 407 133 q 482 281 482 215 l 482 304 l 458 304 q 301 286 346 304 q 256 221 256 268 q 281 158 256 183 q 346 133 307 133 m 326 918 l 465 1115 l 646 1115 l 449 918 l 326 918 m 388 764 q 232 802 297 764 q 140 915 167 840 l 217 946 q 287 889 239 908 q 388 869 335 869 q 488 889 440 869 q 558 946 536 908 l 635 915 q 543 802 608 840 q 388 764 478 764 z "},"ặ":{"ha":758,"x_min":53,"x_max":682,"o":"m 383 699 q 609 626 536 699 q 682 403 682 554 l 682 0 l 483 0 l 483 101 q 414 19 463 49 q 300 -11 365 -11 q 174 17 231 -11 q 85 94 118 44 q 53 206 53 144 q 91 324 53 281 q 214 386 129 367 q 446 406 299 406 l 482 406 l 482 431 q 456 517 482 492 q 364 542 429 542 q 253 524 314 542 q 136 474 192 506 l 81 614 q 224 674 139 650 q 383 699 310 699 m 346 133 q 444 174 407 133 q 482 281 482 215 l 482 304 l 458 304 q 301 286 346 304 q 256 221 256 268 q 281 158 256 183 q 346 133 307 133 m 478 -93 l 478 -276 l 286 -276 l 286 -93 l 478 -93 m 388 801 q 226 853 297 801 q 129 1003 154 906 l 226 1043 q 388 933 286 933 q 549 1043 489 933 l 646 1003 q 549 853 621 906 q 388 801 478 801 z "},"ằ":{"ha":758,"x_min":53,"x_max":682,"o":"m 383 699 q 609 626 536 699 q 682 403 682 554 l 682 0 l 483 0 l 483 101 q 414 19 463 49 q 300 -11 365 -11 q 174 17 231 -11 q 85 94 118 44 q 53 206 53 144 q 91 324 53 281 q 214 386 129 367 q 446 406 299 406 l 482 406 l 482 431 q 456 517 482 492 q 364 542 429 542 q 253 524 314 542 q 136 474 192 506 l 81 614 q 224 674 139 650 q 383 699 310 699 m 346 133 q 444 174 407 133 q 482 281 482 215 l 482 304 l 458 304 q 301 286 346 304 q 256 221 256 268 q 281 158 256 183 q 346 133 307 133 m 129 1115 l 310 1115 l 449 918 l 326 918 l 129 1115 m 388 764 q 232 802 297 764 q 140 915 167 840 l 217 946 q 287 889 239 908 q 388 869 335 869 q 488 889 440 869 q 558 946 536 908 l 635 915 q 543 802 608 840 q 388 764 478 764 z "},"ẳ":{"ha":758,"x_min":53,"x_max":682,"o":"m 383 699 q 609 626 536 699 q 682 403 682 554 l 682 0 l 483 0 l 483 101 q 414 19 463 49 q 300 -11 365 -11 q 174 17 231 -11 q 85 94 118 44 q 53 206 53 144 q 91 324 53 281 q 214 386 129 367 q 446 406 299 406 l 482 406 l 482 431 q 456 517 482 492 q 364 542 429 542 q 253 524 314 542 q 136 474 192 506 l 81 614 q 224 674 139 650 q 383 699 310 699 m 346 133 q 444 174 407 133 q 482 281 482 215 l 482 304 l 458 304 q 301 286 346 304 q 256 221 256 268 q 281 158 256 183 q 346 133 307 133 m 439 919 l 336 919 l 336 947 q 354 985 336 972 q 401 1010 372 999 q 419 1017 411 1014 q 426 1025 426 1021 q 415 1038 426 1032 q 381 1043 404 1043 q 301 1028 346 1043 l 274 1099 q 406 1122 333 1122 q 514 1099 474 1122 q 554 1039 554 1076 q 537 999 554 1013 q 488 972 519 985 q 451 953 463 961 q 439 931 439 944 l 439 919 m 388 764 q 232 802 297 764 q 140 915 167 840 l 217 946 q 287 889 239 908 q 388 869 335 869 q 488 889 440 869 q 558 946 536 908 l 635 915 q 543 802 608 840 q 388 764 478 764 z "},"ẵ":{"ha":758,"x_min":53,"x_max":682,"o":"m 383 699 q 609 626 536 699 q 682 403 682 554 l 682 0 l 483 0 l 483 101 q 414 19 463 49 q 300 -11 365 -11 q 174 17 231 -11 q 85 94 118 44 q 53 206 53 144 q 91 324 53 281 q 214 386 129 367 q 446 406 299 406 l 482 406 l 482 431 q 456 517 482 492 q 364 542 429 542 q 253 524 314 542 q 136 474 192 506 l 81 614 q 224 674 139 650 q 383 699 310 699 m 346 133 q 444 174 407 133 q 482 281 482 215 l 482 304 l 458 304 q 301 286 346 304 q 256 221 256 268 q 281 158 256 183 q 346 133 307 133 m 146 976 q 190 1081 146 1039 q 297 1122 235 1122 q 344 1116 322 1122 q 403 1096 367 1110 q 444 1081 424 1088 q 481 1075 464 1075 q 539 1118 535 1075 l 629 1118 q 585 1014 629 1056 q 478 972 540 972 q 435 977 456 972 q 397 988 415 982 q 372 997 379 994 q 331 1012 351 1006 q 294 1018 311 1018 q 236 976 240 1018 l 146 976 m 388 764 q 232 802 297 764 q 140 915 167 840 l 217 946 q 287 889 239 908 q 388 869 335 869 q 488 889 440 869 q 558 946 536 908 l 635 915 q 543 802 608 840 q 388 764 478 764 z "},"ǎ":{"ha":758,"x_min":53,"x_max":682,"o":"m 383 699 q 609 626 536 699 q 682 403 682 554 l 682 0 l 483 0 l 483 101 q 414 19 463 49 q 300 -11 365 -11 q 174 17 231 -11 q 85 94 118 44 q 53 206 53 144 q 91 324 53 281 q 214 386 129 367 q 446 406 299 406 l 482 406 l 482 431 q 456 517 482 492 q 364 542 429 542 q 253 524 314 542 q 136 474 192 506 l 81 614 q 224 674 139 650 q 383 699 310 699 m 346 133 q 444 174 407 133 q 482 281 482 215 l 482 304 l 458 304 q 301 286 346 304 q 256 221 256 268 q 281 158 256 183 q 346 133 307 133 m 631 1056 l 450 771 l 325 771 l 144 1056 l 307 1056 l 388 894 l 468 1056 l 631 1056 z "},"â":{"ha":758,"x_min":53,"x_max":682,"o":"m 383 699 q 609 626 536 699 q 682 403 682 554 l 682 0 l 483 0 l 483 101 q 414 19 463 49 q 300 -11 365 -11 q 174 17 231 -11 q 85 94 118 44 q 53 206 53 144 q 91 324 53 281 q 214 386 129 367 q 446 406 299 406 l 482 406 l 482 431 q 456 517 482 492 q 364 542 429 542 q 253 524 314 542 q 136 474 192 506 l 81 614 q 224 674 139 650 q 383 699 310 699 m 346 133 q 444 174 407 133 q 482 281 482 215 l 482 304 l 458 304 q 301 286 346 304 q 256 221 256 268 q 281 158 256 183 q 346 133 307 133 m 144 771 l 325 1056 l 450 1056 l 631 771 l 468 771 l 388 932 l 307 771 l 144 771 z "},"ấ":{"ha":758,"x_min":53,"x_max":792,"o":"m 383 699 q 609 626 536 699 q 682 403 682 554 l 682 0 l 483 0 l 483 101 q 414 19 463 49 q 300 -11 365 -11 q 174 17 231 -11 q 85 94 118 44 q 53 206 53 144 q 91 324 53 281 q 214 386 129 367 q 446 406 299 406 l 482 406 l 482 431 q 456 517 482 492 q 364 542 429 542 q 253 524 314 542 q 136 474 192 506 l 81 614 q 224 674 139 650 q 383 699 310 699 m 346 133 q 444 174 407 133 q 482 281 482 215 l 482 304 l 458 304 q 301 286 346 304 q 256 221 256 268 q 281 158 256 183 q 346 133 307 133 m 518 918 l 618 1115 l 792 1115 l 621 918 l 518 918 m 144 771 l 328 963 l 447 963 l 631 771 l 476 771 l 388 869 l 299 771 l 144 771 z "},"ậ":{"ha":758,"x_min":53,"x_max":682,"o":"m 383 699 q 609 626 536 699 q 682 403 682 554 l 682 0 l 483 0 l 483 101 q 414 19 463 49 q 300 -11 365 -11 q 174 17 231 -11 q 85 94 118 44 q 53 206 53 144 q 91 324 53 281 q 214 386 129 367 q 446 406 299 406 l 482 406 l 482 431 q 456 517 482 492 q 364 542 429 542 q 253 524 314 542 q 136 474 192 506 l 81 614 q 224 674 139 650 q 383 699 310 699 m 346 133 q 444 174 407 133 q 482 281 482 215 l 482 304 l 458 304 q 301 286 346 304 q 256 221 256 268 q 281 158 256 183 q 346 133 307 133 m 478 -93 l 478 -276 l 286 -276 l 286 -93 l 478 -93 m 144 771 l 325 1056 l 450 1056 l 631 771 l 468 771 l 388 932 l 307 771 l 144 771 z "},"ầ":{"ha":758,"x_min":53,"x_max":682,"o":"m 383 699 q 609 626 536 699 q 682 403 682 554 l 682 0 l 483 0 l 483 101 q 414 19 463 49 q 300 -11 365 -11 q 174 17 231 -11 q 85 94 118 44 q 53 206 53 144 q 91 324 53 281 q 214 386 129 367 q 446 406 299 406 l 482 406 l 482 431 q 456 517 482 492 q 364 542 429 542 q 253 524 314 542 q 136 474 192 506 l 81 614 q 224 674 139 650 q 383 699 310 699 m 346 133 q 444 174 407 133 q 482 281 482 215 l 482 304 l 458 304 q 301 286 346 304 q 256 221 256 268 q 281 158 256 183 q 346 133 307 133 m 407 1115 l 581 1115 l 679 918 l 576 918 l 407 1115 m 144 771 l 328 963 l 447 963 l 631 771 l 476 771 l 388 869 l 299 771 l 144 771 z "},"ẩ":{"ha":758,"x_min":53,"x_max":735,"o":"m 383 699 q 609 626 536 699 q 682 403 682 554 l 682 0 l 483 0 l 483 101 q 414 19 463 49 q 300 -11 365 -11 q 174 17 231 -11 q 85 94 118 44 q 53 206 53 144 q 91 324 53 281 q 214 386 129 367 q 446 406 299 406 l 482 406 l 482 431 q 456 517 482 492 q 364 542 429 542 q 253 524 314 542 q 136 474 192 506 l 81 614 q 224 674 139 650 q 383 699 310 699 m 346 133 q 444 174 407 133 q 482 281 482 215 l 482 304 l 458 304 q 301 286 346 304 q 256 221 256 268 q 281 158 256 183 q 346 133 307 133 m 621 919 l 517 919 l 517 947 q 535 985 517 972 q 582 1010 553 999 q 599 1017 592 1014 q 607 1025 607 1021 q 596 1038 607 1032 q 563 1043 585 1043 q 483 1028 528 1043 l 456 1099 q 588 1122 515 1122 q 695 1099 656 1122 q 735 1039 735 1076 q 718 999 735 1013 q 669 972 701 985 q 633 953 644 961 q 621 931 621 944 l 621 919 m 144 771 l 328 963 l 447 963 l 631 771 l 476 771 l 388 869 l 299 771 l 144 771 z "},"ẫ":{"ha":758,"x_min":53,"x_max":682,"o":"m 383 699 q 609 626 536 699 q 682 403 682 554 l 682 0 l 483 0 l 483 101 q 414 19 463 49 q 300 -11 365 -11 q 174 17 231 -11 q 85 94 118 44 q 53 206 53 144 q 91 324 53 281 q 214 386 129 367 q 446 406 299 406 l 482 406 l 482 431 q 456 517 482 492 q 364 542 429 542 q 253 524 314 542 q 136 474 192 506 l 81 614 q 224 674 139 650 q 383 699 310 699 m 346 133 q 444 174 407 133 q 482 281 482 215 l 482 304 l 458 304 q 301 286 346 304 q 256 221 256 268 q 281 158 256 183 q 346 133 307 133 m 146 988 q 190 1092 146 1050 q 297 1133 235 1133 q 340 1128 319 1133 q 378 1117 360 1124 q 403 1108 396 1111 q 444 1094 424 1100 q 481 1088 464 1088 q 539 1129 535 1088 l 629 1129 q 585 1025 629 1067 q 478 983 540 983 q 435 988 456 983 q 397 999 415 993 q 372 1008 379 1006 q 331 1023 351 1017 q 294 1029 311 1029 q 236 988 240 1029 l 146 988 m 144 771 l 328 963 l 447 963 l 631 771 l 476 771 l 388 869 l 299 771 l 144 771 z "},"ȁ":{"ha":758,"x_min":53,"x_max":682,"o":"m 383 699 q 609 626 536 699 q 682 403 682 554 l 682 0 l 483 0 l 483 101 q 414 19 463 49 q 300 -11 365 -11 q 174 17 231 -11 q 85 94 118 44 q 53 206 53 144 q 91 324 53 281 q 214 386 129 367 q 446 406 299 406 l 482 406 l 482 431 q 456 517 482 492 q 364 542 429 542 q 253 524 314 542 q 136 474 192 506 l 81 614 q 224 674 139 650 q 383 699 310 699 m 346 133 q 444 174 407 133 q 482 281 482 215 l 482 304 l 458 304 q 301 286 346 304 q 256 221 256 268 q 281 158 256 183 q 346 133 307 133 m 138 1056 l 289 1056 l 336 771 l 246 771 l 138 1056 m 331 1056 l 482 1056 l 529 771 l 439 771 l 331 1056 z "},"ä":{"ha":758,"x_min":53,"x_max":682,"o":"m 383 699 q 609 626 536 699 q 682 403 682 554 l 682 0 l 483 0 l 483 101 q 414 19 463 49 q 300 -11 365 -11 q 174 17 231 -11 q 85 94 118 44 q 53 206 53 144 q 91 324 53 281 q 214 386 129 367 q 446 406 299 406 l 482 406 l 482 431 q 456 517 482 492 q 364 542 429 542 q 253 524 314 542 q 136 474 192 506 l 81 614 q 224 674 139 650 q 383 699 310 699 m 346 133 q 444 174 407 133 q 482 281 482 215 l 482 304 l 458 304 q 301 286 346 304 q 256 221 256 268 q 281 158 256 183 q 346 133 307 133 m 351 1003 l 351 819 l 158 819 l 158 1003 l 351 1003 m 617 1003 l 617 819 l 424 819 l 424 1003 l 617 1003 z "},"ȧ":{"ha":758,"x_min":53,"x_max":682,"o":"m 383 699 q 609 626 536 699 q 682 403 682 554 l 682 0 l 483 0 l 483 101 q 414 19 463 49 q 300 -11 365 -11 q 174 17 231 -11 q 85 94 118 44 q 53 206 53 144 q 91 324 53 281 q 214 386 129 367 q 446 406 299 406 l 482 406 l 482 431 q 456 517 482 492 q 364 542 429 542 q 253 524 314 542 q 136 474 192 506 l 81 614 q 224 674 139 650 q 383 699 310 699 m 346 133 q 444 174 407 133 q 482 281 482 215 l 482 304 l 458 304 q 301 286 346 304 q 256 221 256 268 q 281 158 256 183 q 346 133 307 133 m 500 1010 l 500 814 l 275 814 l 275 1010 l 500 1010 z "},"ạ":{"ha":758,"x_min":53,"x_max":682,"o":"m 383 699 q 609 626 536 699 q 682 403 682 554 l 682 0 l 483 0 l 483 101 q 414 19 463 49 q 300 -11 365 -11 q 174 17 231 -11 q 85 94 118 44 q 53 206 53 144 q 91 324 53 281 q 214 386 129 367 q 446 406 299 406 l 482 406 l 482 431 q 456 517 482 492 q 364 542 429 542 q 253 524 314 542 q 136 474 192 506 l 81 614 q 224 674 139 650 q 383 699 310 699 m 346 133 q 444 174 407 133 q 482 281 482 215 l 482 304 l 458 304 q 301 286 346 304 q 256 221 256 268 q 281 158 256 183 q 346 133 307 133 m 478 -93 l 478 -276 l 286 -276 l 286 -93 l 478 -93 z "},"à":{"ha":758,"x_min":53,"x_max":682,"o":"m 383 699 q 609 626 536 699 q 682 403 682 554 l 682 0 l 483 0 l 483 101 q 414 19 463 49 q 300 -11 365 -11 q 174 17 231 -11 q 85 94 118 44 q 53 206 53 144 q 91 324 53 281 q 214 386 129 367 q 446 406 299 406 l 482 406 l 482 431 q 456 517 482 492 q 364 542 429 542 q 253 524 314 542 q 136 474 192 506 l 81 614 q 224 674 139 650 q 383 699 310 699 m 346 133 q 444 174 407 133 q 482 281 482 215 l 482 304 l 458 304 q 301 286 346 304 q 256 221 256 268 q 281 158 256 183 q 346 133 307 133 m 111 1056 l 317 1056 l 453 771 l 322 771 l 111 1056 z "},"ả":{"ha":758,"x_min":53,"x_max":682,"o":"m 383 699 q 609 626 536 699 q 682 403 682 554 l 682 0 l 483 0 l 483 101 q 414 19 463 49 q 300 -11 365 -11 q 174 17 231 -11 q 85 94 118 44 q 53 206 53 144 q 91 324 53 281 q 214 386 129 367 q 446 406 299 406 l 482 406 l 482 431 q 456 517 482 492 q 364 542 429 542 q 253 524 314 542 q 136 474 192 506 l 81 614 q 224 674 139 650 q 383 699 310 699 m 346 133 q 444 174 407 133 q 482 281 482 215 l 482 304 l 458 304 q 301 286 346 304 q 256 221 256 268 q 281 158 256 183 q 346 133 307 133 m 442 771 l 338 771 l 338 806 q 351 853 338 835 q 388 893 364 872 q 410 915 403 906 q 418 935 418 925 q 372 967 418 967 q 303 954 339 967 l 274 1033 q 393 1058 331 1058 q 512 1028 469 1058 q 554 954 554 999 q 538 902 554 922 q 489 858 521 882 q 453 828 465 842 q 442 799 442 815 l 442 771 z "},"ȃ":{"ha":758,"x_min":53,"x_max":682,"o":"m 383 699 q 609 626 536 699 q 682 403 682 554 l 682 0 l 483 0 l 483 101 q 414 19 463 49 q 300 -11 365 -11 q 174 17 231 -11 q 85 94 118 44 q 53 206 53 144 q 91 324 53 281 q 214 386 129 367 q 446 406 299 406 l 482 406 l 482 431 q 456 517 482 492 q 364 542 429 542 q 253 524 314 542 q 136 474 192 506 l 81 614 q 224 674 139 650 q 383 699 310 699 m 346 133 q 444 174 407 133 q 482 281 482 215 l 482 304 l 458 304 q 301 286 346 304 q 256 221 256 268 q 281 158 256 183 q 346 133 307 133 m 388 1039 q 549 987 478 1039 q 646 838 621 935 l 549 796 q 388 907 489 907 q 226 796 286 907 l 129 838 q 226 987 154 935 q 388 1039 297 1039 z "},"ā":{"ha":758,"x_min":53,"x_max":682,"o":"m 383 699 q 609 626 536 699 q 682 403 682 554 l 682 0 l 483 0 l 483 101 q 414 19 463 49 q 300 -11 365 -11 q 174 17 231 -11 q 85 94 118 44 q 53 206 53 144 q 91 324 53 281 q 214 386 129 367 q 446 406 299 406 l 482 406 l 482 431 q 456 517 482 492 q 364 542 429 542 q 253 524 314 542 q 136 474 192 506 l 81 614 q 224 674 139 650 q 383 699 310 699 m 346 133 q 444 174 407 133 q 482 281 482 215 l 482 304 l 458 304 q 301 286 346 304 q 256 221 256 268 q 281 158 256 183 q 346 133 307 133 m 169 976 l 606 976 l 606 846 l 169 846 l 169 976 z "},"ą":{"ha":758,"x_min":53,"x_max":733,"o":"m 733 -246 q 594 -274 671 -274 q 467 -230 517 -274 q 418 -118 418 -186 q 483 14 418 -40 l 483 101 q 415 19 463 49 q 303 -11 367 -11 q 175 17 232 -11 q 85 94 118 44 q 53 206 53 144 q 91 324 53 281 q 215 386 129 367 q 446 406 300 406 l 482 406 l 482 431 q 456 517 482 492 q 364 542 429 542 q 253 524 314 542 q 136 474 192 506 l 81 614 q 224 674 139 650 q 383 699 310 699 q 609 626 536 699 q 682 403 682 554 l 682 0 l 668 0 q 584 -25 617 0 q 551 -90 551 -50 q 573 -146 551 -126 q 635 -165 594 -165 q 710 -147 667 -165 l 733 -246 m 346 133 q 444 174 407 133 q 482 281 482 215 l 482 304 l 458 304 q 301 285 346 304 q 256 221 256 267 q 281 158 256 182 q 346 133 307 133 z "},"å":{"ha":758,"x_min":53,"x_max":682,"o":"m 383 699 q 609 626 536 699 q 682 403 682 554 l 682 0 l 483 0 l 483 101 q 414 19 463 49 q 300 -11 365 -11 q 174 17 231 -11 q 85 94 118 44 q 53 206 53 144 q 91 324 53 281 q 214 386 129 367 q 446 406 299 406 l 482 406 l 482 431 q 456 517 482 492 q 364 542 429 542 q 253 524 314 542 q 136 474 192 506 l 81 614 q 224 674 139 650 q 383 699 310 699 m 346 133 q 444 174 407 133 q 482 281 482 215 l 482 304 l 458 304 q 301 286 346 304 q 256 221 256 268 q 281 158 256 183 q 346 133 307 133 m 388 764 q 280 807 324 764 q 236 914 236 850 q 280 1019 236 976 q 388 1063 324 1063 q 495 1019 451 1063 q 539 914 539 976 q 495 807 539 850 q 388 764 451 764 m 388 850 q 431 868 414 850 q 447 914 447 886 q 431 958 447 940 q 388 976 414 976 q 344 958 361 976 q 328 914 328 940 q 344 868 328 886 q 388 850 361 850 z "},"ǻ":{"ha":758,"x_min":53,"x_max":733,"o":"m 388 764 q 279 807 324 764 q 235 914 235 850 q 279 1019 235 976 q 388 1063 324 1063 q 447 1050 421 1063 l 540 1186 l 733 1186 l 526 975 q 539 914 539 946 q 494 808 539 851 q 388 764 450 764 m 388 976 q 344 958 361 976 q 326 914 326 940 q 344 868 326 886 q 388 850 361 850 q 431 868 414 850 q 447 914 447 886 q 431 958 447 940 q 388 976 414 976 m 383 699 q 609 626 536 699 q 682 403 682 554 l 682 0 l 483 0 l 483 101 q 414 19 463 49 q 300 -11 365 -11 q 174 17 231 -11 q 85 94 118 44 q 53 206 53 144 q 91 324 53 281 q 214 386 129 367 q 446 406 299 406 l 482 406 l 482 431 q 456 517 482 492 q 364 542 429 542 q 253 524 314 542 q 136 474 192 506 l 81 614 q 224 674 139 650 q 383 699 310 699 m 346 133 q 444 174 407 133 q 482 281 482 215 l 482 304 l 458 304 q 301 286 346 304 q 256 221 256 268 q 281 158 256 183 q 346 133 307 133 z "},"ã":{"ha":758,"x_min":53,"x_max":682,"o":"m 383 699 q 609 626 536 699 q 682 403 682 554 l 682 0 l 483 0 l 483 101 q 414 19 463 49 q 300 -11 365 -11 q 174 17 231 -11 q 85 94 118 44 q 53 206 53 144 q 91 324 53 281 q 214 386 129 367 q 446 406 299 406 l 482 406 l 482 431 q 456 517 482 492 q 364 542 429 542 q 253 524 314 542 q 136 474 192 506 l 81 614 q 224 674 139 650 q 383 699 310 699 m 346 133 q 444 174 407 133 q 482 281 482 215 l 482 304 l 458 304 q 301 286 346 304 q 256 221 256 268 q 281 158 256 183 q 346 133 307 133 m 146 815 q 188 967 146 915 q 297 1018 231 1018 q 345 1008 322 1018 q 403 978 368 999 q 447 953 429 961 q 481 944 464 944 q 522 963 507 944 q 539 1014 536 982 l 629 1014 q 587 863 629 914 q 478 811 544 811 q 430 821 453 811 q 372 851 407 831 q 328 876 344 868 q 294 883 311 883 q 253 865 268 883 q 236 815 239 847 l 146 815 z "},"æ":{"ha":1163,"x_min":53,"x_max":1117,"o":"m 1117 301 l 682 301 q 730 183 692 219 q 843 146 768 146 q 1050 213 957 146 l 1106 72 q 985 11 1057 33 q 842 -11 914 -11 q 674 24 744 -11 q 561 125 603 58 q 469 24 531 60 q 325 -11 407 -11 q 185 17 247 -11 q 88 94 124 44 q 53 206 53 143 q 91 324 53 281 q 214 386 129 367 q 444 406 299 406 l 481 406 l 481 431 q 454 515 481 489 q 371 542 428 542 q 253 524 315 542 q 136 474 192 506 l 81 614 q 223 674 138 650 q 382 699 308 699 q 604 611 539 699 q 701 676 646 653 q 824 699 757 699 q 976 656 910 699 q 1080 534 1043 613 q 1117 353 1117 456 l 1117 301 m 819 554 q 724 516 760 554 q 682 406 689 478 l 940 406 q 905 516 936 478 q 819 554 874 554 m 353 133 q 444 176 407 133 q 481 281 481 218 l 481 304 l 456 304 q 301 285 346 304 q 256 221 256 267 q 283 158 256 182 q 353 133 310 133 z "},"ǽ":{"ha":1163,"x_min":53,"x_max":1117,"o":"m 1117 301 l 682 301 q 730 183 692 219 q 843 146 768 146 q 1050 213 957 146 l 1106 72 q 985 11 1057 33 q 842 -11 914 -11 q 674 24 744 -11 q 561 125 603 58 q 469 24 531 60 q 325 -11 407 -11 q 185 17 247 -11 q 88 94 124 44 q 53 206 53 143 q 91 324 53 281 q 214 386 129 367 q 444 406 299 406 l 481 406 l 481 431 q 454 515 481 489 q 371 542 428 542 q 253 524 315 542 q 136 474 192 506 l 81 614 q 223 674 138 650 q 382 699 308 699 q 604 611 539 699 q 701 676 646 653 q 824 699 757 699 q 976 656 910 699 q 1080 534 1043 613 q 1117 353 1117 456 l 1117 301 m 819 554 q 724 516 760 554 q 682 406 689 478 l 940 406 q 905 516 936 478 q 819 554 874 554 m 353 133 q 444 176 407 133 q 481 281 481 218 l 481 304 l 456 304 q 301 285 346 304 q 256 221 256 267 q 283 158 256 182 q 353 133 310 133 m 514 771 l 650 1056 l 856 1056 l 644 771 l 514 771 z "},"b":{"ha":851,"x_min":81,"x_max":804,"o":"m 503 699 q 660 656 592 699 q 766 533 728 613 q 804 347 804 453 q 766 160 804 242 q 659 34 728 79 q 503 -11 590 -11 q 375 19 432 -11 q 288 101 318 49 l 288 0 l 81 0 l 81 979 l 290 979 l 290 590 q 377 670 321 642 q 503 699 433 699 m 442 149 q 556 201 515 149 q 596 347 596 253 q 556 490 596 440 q 442 539 515 539 q 328 488 368 539 q 288 344 288 438 q 328 199 288 250 q 442 149 368 149 z "},"c":{"ha":686,"x_min":47,"x_max":672,"o":"m 406 -11 q 143 83 239 -11 q 47 340 47 178 q 93 528 47 447 q 222 654 139 610 q 415 699 306 699 q 560 676 490 699 q 672 614 629 653 l 617 471 q 528 520 576 503 q 435 538 481 538 q 308 489 353 538 q 263 344 263 440 q 308 199 263 249 q 435 150 353 150 q 528 167 481 150 q 617 217 576 185 l 672 72 q 556 11 626 33 q 406 -11 485 -11 z "},"ć":{"ha":686,"x_min":47,"x_max":685,"o":"m 406 -11 q 143 83 239 -11 q 47 340 47 178 q 93 528 47 447 q 222 654 139 610 q 415 699 306 699 q 560 676 490 699 q 672 614 629 653 l 617 471 q 528 520 576 503 q 435 538 481 538 q 308 489 353 538 q 263 344 263 440 q 308 199 263 249 q 435 150 353 150 q 528 167 481 150 q 617 217 576 185 l 672 72 q 556 11 626 33 q 406 -11 485 -11 m 343 771 l 479 1056 l 685 1056 l 474 771 l 343 771 z "},"č":{"ha":686,"x_min":47,"x_max":672,"o":"m 406 -11 q 143 83 239 -11 q 47 340 47 178 q 93 528 47 447 q 222 654 139 610 q 415 699 306 699 q 560 676 490 699 q 672 614 629 653 l 617 471 q 528 520 576 503 q 435 538 481 538 q 308 489 353 538 q 263 344 263 440 q 308 199 263 249 q 435 150 353 150 q 528 167 481 150 q 617 217 576 185 l 672 72 q 556 11 626 33 q 406 -11 485 -11 m 651 1056 l 471 771 l 346 771 l 165 1056 l 328 1056 l 408 894 l 489 1056 l 651 1056 z "},"ç":{"ha":686,"x_min":47,"x_max":672,"o":"m 672 72 q 569 16 631 38 q 436 -10 507 -6 l 431 -57 q 447 -56 436 -56 q 532 -81 500 -56 q 564 -151 564 -107 q 515 -240 564 -206 q 376 -274 467 -274 q 310 -267 346 -274 q 246 -249 274 -261 l 263 -168 q 371 -187 325 -187 q 435 -151 435 -187 q 390 -125 435 -125 q 340 -133 365 -125 l 313 -104 l 325 -4 q 121 109 194 18 q 47 340 47 200 q 93 528 47 447 q 222 654 139 610 q 415 699 306 699 q 560 676 490 699 q 672 614 629 653 l 617 471 q 528 520 576 503 q 435 538 481 538 q 308 489 353 538 q 263 344 263 440 q 308 199 263 249 q 435 150 353 150 q 528 167 481 150 q 617 217 576 185 l 672 72 z "},"ḉ":{"ha":686,"x_min":47,"x_max":685,"o":"m 474 771 l 343 771 l 479 1056 l 685 1056 l 474 771 m 435 538 q 308 489 353 538 q 263 344 263 440 q 308 199 263 249 q 435 150 353 150 q 528 167 481 150 q 617 217 576 185 l 672 72 q 569 16 631 38 q 436 -10 507 -6 l 431 -57 q 447 -56 436 -56 q 532 -81 500 -56 q 564 -151 564 -107 q 515 -240 564 -206 q 376 -274 467 -274 q 310 -267 346 -274 q 246 -249 274 -261 l 263 -168 q 371 -187 325 -187 q 435 -151 435 -187 q 390 -125 435 -125 q 340 -133 365 -125 l 313 -104 l 325 -4 q 121 109 194 18 q 47 340 47 200 q 93 528 47 447 q 222 654 139 610 q 415 699 306 699 q 560 676 490 699 q 672 614 629 653 l 617 471 q 528 520 576 503 q 435 538 481 538 z "},"ĉ":{"ha":686,"x_min":47,"x_max":672,"o":"m 406 -11 q 143 83 239 -11 q 47 340 47 178 q 93 528 47 447 q 222 654 139 610 q 415 699 306 699 q 560 676 490 699 q 672 614 629 653 l 617 471 q 528 520 576 503 q 435 538 481 538 q 308 489 353 538 q 263 344 263 440 q 308 199 263 249 q 435 150 353 150 q 528 167 481 150 q 617 217 576 185 l 672 72 q 556 11 626 33 q 406 -11 485 -11 m 165 771 l 346 1056 l 471 1056 l 651 771 l 489 771 l 408 932 l 328 771 l 165 771 z "},"ċ":{"ha":686,"x_min":47,"x_max":672,"o":"m 406 -11 q 143 83 239 -11 q 47 340 47 178 q 93 528 47 447 q 222 654 139 610 q 415 699 306 699 q 560 676 490 699 q 672 614 629 653 l 617 471 q 528 520 576 503 q 435 538 481 538 q 308 489 353 538 q 263 344 263 440 q 308 199 263 249 q 435 150 353 150 q 528 167 481 150 q 617 217 576 185 l 672 72 q 556 11 626 33 q 406 -11 485 -11 m 521 1010 l 521 814 l 296 814 l 296 1010 l 521 1010 z "},"d":{"ha":851,"x_min":47,"x_max":771,"o":"m 771 979 l 771 0 l 563 0 l 563 101 q 476 19 532 49 q 349 -11 419 -11 q 192 34 261 -11 q 85 160 124 79 q 47 347 47 242 q 85 533 47 453 q 192 656 124 613 q 349 699 260 699 q 474 669 418 699 q 561 588 531 640 l 561 979 l 771 979 m 410 149 q 523 199 483 149 q 563 344 563 250 q 523 489 563 439 q 410 539 483 539 q 296 490 336 539 q 256 347 256 440 q 296 201 256 253 q 410 149 336 149 z "},"ð":{"ha":825,"x_min":47,"x_max":779,"o":"m 658 767 q 748 597 717 689 q 779 413 779 506 q 681 99 779 210 q 400 -11 582 -11 q 216 29 296 -11 q 92 143 136 69 q 47 313 47 217 q 90 478 47 406 q 208 591 132 550 q 381 632 283 632 q 563 574 496 632 q 476 717 535 656 l 233 650 l 204 757 l 364 800 q 206 851 296 839 l 251 994 q 571 857 438 968 l 743 904 l 772 797 l 658 767 m 408 149 q 522 191 482 149 q 561 313 561 233 q 522 435 561 393 q 408 476 483 476 q 294 435 333 476 q 256 313 256 393 q 294 190 256 232 q 408 149 333 149 z "},"ď":{"ha":851,"x_min":47,"x_max":914,"o":"m 561 979 l 771 979 l 771 0 l 563 0 l 563 101 q 476 19 532 49 q 349 -11 419 -11 q 192 34 261 -11 q 85 160 124 79 q 47 347 47 242 q 85 533 47 453 q 192 656 124 613 q 349 699 260 699 q 474 669 418 699 q 561 588 531 640 l 561 979 m 914 979 l 878 710 l 806 710 l 806 979 l 914 979 m 410 149 q 523 199 483 149 q 563 344 563 250 q 523 489 563 439 q 410 539 483 539 q 296 490 336 539 q 256 347 256 440 q 296 201 256 253 q 410 149 336 149 z "},"đ":{"ha":851,"x_min":47,"x_max":889,"o":"m 889 740 l 771 740 l 771 0 l 563 0 l 563 101 q 476 19 532 49 q 349 -11 419 -11 q 192 34 261 -11 q 85 160 124 79 q 47 347 47 242 q 85 533 47 453 q 192 656 124 613 q 349 699 260 699 q 474 669 418 699 q 561 588 531 640 l 561 740 l 303 740 l 303 885 l 561 885 l 561 979 l 771 979 l 771 885 l 889 885 l 889 740 m 410 149 q 523 199 483 149 q 563 344 563 250 q 523 489 563 439 q 410 539 483 539 q 296 490 336 539 q 256 347 256 440 q 296 201 256 253 q 410 149 336 149 z "},"ḍ":{"ha":851,"x_min":47,"x_max":771,"o":"m 771 979 l 771 0 l 563 0 l 563 101 q 476 19 532 49 q 349 -11 419 -11 q 192 34 261 -11 q 85 160 124 79 q 47 347 47 242 q 85 533 47 453 q 192 656 124 613 q 349 699 260 699 q 474 669 418 699 q 561 588 531 640 l 561 979 l 771 979 m 410 149 q 523 199 483 149 q 563 344 563 250 q 523 489 563 439 q 410 539 483 539 q 296 490 336 539 q 256 347 256 440 q 296 201 256 253 q 410 149 336 149 m 522 -93 l 522 -276 l 331 -276 l 331 -93 l 522 -93 z "},"ḏ":{"ha":851,"x_min":47,"x_max":771,"o":"m 771 979 l 771 0 l 563 0 l 563 101 q 476 19 532 49 q 349 -11 419 -11 q 192 34 261 -11 q 85 160 124 79 q 47 347 47 242 q 85 533 47 453 q 192 656 124 613 q 349 699 260 699 q 474 669 418 699 q 561 588 531 640 l 561 979 l 771 979 m 410 149 q 523 199 483 149 q 563 344 563 250 q 523 489 563 439 q 410 539 483 539 q 296 490 336 539 q 256 347 256 440 q 296 201 256 253 q 410 149 336 149 m 208 -124 l 644 -124 l 644 -246 l 208 -246 l 208 -124 z "},"ǆ":{"ha":1565,"x_min":47,"x_max":1519,"o":"m 771 979 l 771 0 l 563 0 l 563 101 q 476 19 532 49 q 349 -11 419 -11 q 192 34 261 -11 q 85 160 124 79 q 47 347 47 242 q 85 533 47 453 q 192 656 124 613 q 349 699 260 699 q 474 669 418 699 q 561 588 531 640 l 561 979 l 771 979 m 410 149 q 523 199 483 149 q 563 344 563 250 q 523 489 563 439 q 410 539 483 539 q 296 490 336 539 q 256 347 256 440 q 296 201 256 253 q 410 149 336 149 m 1519 157 l 1519 0 l 915 0 l 915 146 l 1254 525 l 919 525 l 919 682 l 1506 682 l 1506 542 l 1161 157 l 1519 157 m 1463 1056 l 1282 771 l 1157 771 l 976 1056 l 1139 1056 l 1219 894 l 1300 1056 l 1463 1056 z "},"e":{"ha":740,"x_min":47,"x_max":694,"o":"m 694 301 l 250 301 q 303 183 260 219 q 428 146 347 146 q 533 163 481 146 q 628 213 585 181 l 683 72 q 562 11 633 33 q 418 -11 490 -11 q 147 84 246 -11 q 47 343 47 179 q 90 528 47 447 q 210 653 133 608 q 383 699 286 699 q 610 606 526 699 q 694 353 694 513 l 694 301 m 389 554 q 294 516 329 554 q 250 406 258 478 l 518 406 q 481 517 514 479 q 389 554 449 554 z "},"é":{"ha":740,"x_min":47,"x_max":694,"o":"m 694 301 l 250 301 q 303 183 260 219 q 428 146 347 146 q 533 163 481 146 q 628 213 585 181 l 683 72 q 562 11 633 33 q 418 -11 490 -11 q 147 84 246 -11 q 47 343 47 179 q 90 528 47 447 q 210 653 133 608 q 383 699 286 699 q 610 606 526 699 q 694 353 694 513 l 694 301 m 389 554 q 294 516 329 554 q 250 406 258 478 l 518 406 q 481 517 514 479 q 389 554 449 554 m 318 771 l 454 1056 l 660 1056 l 449 771 l 318 771 z "},"ĕ":{"ha":740,"x_min":47,"x_max":694,"o":"m 694 301 l 250 301 q 303 183 260 219 q 428 146 347 146 q 533 163 481 146 q 628 213 585 181 l 683 72 q 562 11 633 33 q 418 -11 490 -11 q 147 84 246 -11 q 47 343 47 179 q 90 528 47 447 q 210 653 133 608 q 383 699 286 699 q 610 606 526 699 q 694 353 694 513 l 694 301 m 389 554 q 294 516 329 554 q 250 406 258 478 l 518 406 q 481 517 514 479 q 389 554 449 554 m 383 801 q 222 853 293 801 q 125 1003 150 906 l 222 1043 q 383 933 282 933 q 544 1043 485 933 l 642 1003 q 545 853 617 906 q 383 801 474 801 z "},"ě":{"ha":740,"x_min":47,"x_max":694,"o":"m 694 301 l 250 301 q 303 183 260 219 q 428 146 347 146 q 533 163 481 146 q 628 213 585 181 l 683 72 q 562 11 633 33 q 418 -11 490 -11 q 147 84 246 -11 q 47 343 47 179 q 90 528 47 447 q 210 653 133 608 q 383 699 286 699 q 610 606 526 699 q 694 353 694 513 l 694 301 m 389 554 q 294 516 329 554 q 250 406 258 478 l 518 406 q 481 517 514 479 q 389 554 449 554 m 626 1056 l 446 771 l 321 771 l 140 1056 l 303 1056 l 383 894 l 464 1056 l 626 1056 z "},"ḝ":{"ha":740,"x_min":47,"x_max":694,"o":"m 383 801 q 222 853 293 801 q 125 1003 150 906 l 222 1043 q 383 933 282 933 q 544 1043 485 933 l 642 1003 q 545 853 617 906 q 383 801 474 801 m 694 301 l 250 301 q 303 183 260 219 q 428 146 347 146 q 533 163 481 146 q 628 213 585 181 l 683 72 q 579 17 640 39 q 453 -10 518 -4 l 447 -57 q 464 -56 453 -56 q 549 -81 517 -56 q 581 -151 581 -107 q 532 -240 581 -206 q 393 -274 483 -274 q 326 -267 363 -274 q 263 -249 290 -261 l 279 -168 q 388 -187 342 -187 q 451 -151 451 -187 q 407 -125 451 -125 q 357 -133 382 -125 l 329 -104 l 342 -6 q 125 107 203 15 q 47 343 47 199 q 90 528 47 447 q 210 653 133 608 q 383 699 286 699 q 610 606 526 699 q 694 353 694 513 l 694 301 m 389 554 q 294 516 329 554 q 250 406 258 478 l 518 406 q 481 517 514 479 q 389 554 449 554 z "},"ê":{"ha":740,"x_min":47,"x_max":694,"o":"m 694 301 l 250 301 q 303 183 260 219 q 428 146 347 146 q 533 163 481 146 q 628 213 585 181 l 683 72 q 562 11 633 33 q 418 -11 490 -11 q 147 84 246 -11 q 47 343 47 179 q 90 528 47 447 q 210 653 133 608 q 383 699 286 699 q 610 606 526 699 q 694 353 694 513 l 694 301 m 389 554 q 294 516 329 554 q 250 406 258 478 l 518 406 q 481 517 514 479 q 389 554 449 554 m 140 771 l 321 1056 l 446 1056 l 626 771 l 464 771 l 383 932 l 303 771 l 140 771 z "},"ế":{"ha":740,"x_min":47,"x_max":788,"o":"m 694 301 l 250 301 q 303 183 260 219 q 428 146 347 146 q 533 163 481 146 q 628 213 585 181 l 683 72 q 562 11 633 33 q 418 -11 490 -11 q 147 84 246 -11 q 47 343 47 179 q 90 528 47 447 q 210 653 133 608 q 383 699 286 699 q 610 606 526 699 q 694 353 694 513 l 694 301 m 389 554 q 294 516 329 554 q 250 406 258 478 l 518 406 q 481 517 514 479 q 389 554 449 554 m 514 918 l 614 1115 l 788 1115 l 617 918 l 514 918 m 140 771 l 324 963 l 443 963 l 626 771 l 472 771 l 383 869 l 294 771 l 140 771 z "},"ệ":{"ha":740,"x_min":47,"x_max":694,"o":"m 694 301 l 250 301 q 303 183 260 219 q 428 146 347 146 q 533 163 481 146 q 628 213 585 181 l 683 72 q 562 11 633 33 q 418 -11 490 -11 q 147 84 246 -11 q 47 343 47 179 q 90 528 47 447 q 210 653 133 608 q 383 699 286 699 q 610 606 526 699 q 694 353 694 513 l 694 301 m 389 554 q 294 516 329 554 q 250 406 258 478 l 518 406 q 481 517 514 479 q 389 554 449 554 m 508 -93 l 508 -276 l 317 -276 l 317 -93 l 508 -93 m 140 771 l 321 1056 l 446 1056 l 626 771 l 464 771 l 383 932 l 303 771 l 140 771 z "},"ề":{"ha":740,"x_min":47,"x_max":694,"o":"m 694 301 l 250 301 q 303 183 260 219 q 428 146 347 146 q 533 163 481 146 q 628 213 585 181 l 683 72 q 562 11 633 33 q 418 -11 490 -11 q 147 84 246 -11 q 47 343 47 179 q 90 528 47 447 q 210 653 133 608 q 383 699 286 699 q 610 606 526 699 q 694 353 694 513 l 694 301 m 389 554 q 294 516 329 554 q 250 406 258 478 l 518 406 q 481 517 514 479 q 389 554 449 554 m 403 1115 l 576 1115 l 675 918 l 572 918 l 403 1115 m 140 771 l 324 963 l 443 963 l 626 771 l 472 771 l 383 869 l 294 771 l 140 771 z "},"ể":{"ha":740,"x_min":47,"x_max":731,"o":"m 694 301 l 250 301 q 303 183 260 219 q 428 146 347 146 q 533 163 481 146 q 628 213 585 181 l 683 72 q 562 11 633 33 q 418 -11 490 -11 q 147 84 246 -11 q 47 343 47 179 q 90 528 47 447 q 210 653 133 608 q 383 699 286 699 q 610 606 526 699 q 694 353 694 513 l 694 301 m 389 554 q 294 516 329 554 q 250 406 258 478 l 518 406 q 481 517 514 479 q 389 554 449 554 m 617 919 l 513 919 l 513 947 q 531 985 513 972 q 578 1010 549 999 q 595 1017 588 1014 q 603 1025 603 1021 q 592 1038 603 1032 q 558 1043 581 1043 q 479 1028 524 1043 l 451 1099 q 583 1122 511 1122 q 691 1099 651 1122 q 731 1039 731 1076 q 714 999 731 1013 q 665 972 697 985 q 628 953 640 961 q 617 931 617 944 l 617 919 m 140 771 l 324 963 l 443 963 l 626 771 l 472 771 l 383 869 l 294 771 l 140 771 z "},"ễ":{"ha":740,"x_min":47,"x_max":694,"o":"m 694 301 l 250 301 q 303 183 260 219 q 428 146 347 146 q 533 163 481 146 q 628 213 585 181 l 683 72 q 562 11 633 33 q 418 -11 490 -11 q 147 84 246 -11 q 47 343 47 179 q 90 528 47 447 q 210 653 133 608 q 383 699 286 699 q 610 606 526 699 q 694 353 694 513 l 694 301 m 389 554 q 294 516 329 554 q 250 406 258 478 l 518 406 q 481 517 514 479 q 389 554 449 554 m 142 988 q 186 1092 142 1050 q 293 1133 231 1133 q 335 1128 315 1133 q 374 1117 356 1124 q 399 1108 392 1111 q 440 1094 419 1100 q 476 1088 460 1088 q 535 1129 531 1088 l 625 1129 q 581 1025 625 1067 q 474 983 536 983 q 431 988 451 983 q 393 999 411 993 q 368 1008 375 1006 q 327 1023 347 1017 q 290 1029 307 1029 q 232 988 236 1029 l 142 988 m 140 771 l 324 963 l 443 963 l 626 771 l 472 771 l 383 869 l 294 771 l 140 771 z "},"ȅ":{"ha":740,"x_min":47,"x_max":694,"o":"m 694 301 l 250 301 q 303 183 260 219 q 428 146 347 146 q 533 163 481 146 q 628 213 585 181 l 683 72 q 562 11 633 33 q 418 -11 490 -11 q 147 84 246 -11 q 47 343 47 179 q 90 528 47 447 q 210 653 133 608 q 383 699 286 699 q 610 606 526 699 q 694 353 694 513 l 694 301 m 389 554 q 294 516 329 554 q 250 406 258 478 l 518 406 q 481 517 514 479 q 389 554 449 554 m 133 1056 l 285 1056 l 332 771 l 242 771 l 133 1056 m 326 1056 l 478 1056 l 525 771 l 435 771 l 326 1056 z "},"ë":{"ha":740,"x_min":47,"x_max":694,"o":"m 694 301 l 250 301 q 303 183 260 219 q 428 146 347 146 q 533 163 481 146 q 628 213 585 181 l 683 72 q 562 11 633 33 q 418 -11 490 -11 q 147 84 246 -11 q 47 343 47 179 q 90 528 47 447 q 210 653 133 608 q 383 699 286 699 q 610 606 526 699 q 694 353 694 513 l 694 301 m 389 554 q 294 516 329 554 q 250 406 258 478 l 518 406 q 481 517 514 479 q 389 554 449 554 m 347 1003 l 347 819 l 154 819 l 154 1003 l 347 1003 m 613 1003 l 613 819 l 419 819 l 419 1003 l 613 1003 z "},"ė":{"ha":740,"x_min":47,"x_max":694,"o":"m 694 301 l 250 301 q 303 183 260 219 q 428 146 347 146 q 533 163 481 146 q 628 213 585 181 l 683 72 q 562 11 633 33 q 418 -11 490 -11 q 147 84 246 -11 q 47 343 47 179 q 90 528 47 447 q 210 653 133 608 q 383 699 286 699 q 610 606 526 699 q 694 353 694 513 l 694 301 m 389 554 q 294 516 329 554 q 250 406 258 478 l 518 406 q 481 517 514 479 q 389 554 449 554 m 496 1010 l 496 814 l 271 814 l 271 1010 l 496 1010 z "},"ẹ":{"ha":740,"x_min":47,"x_max":694,"o":"m 694 301 l 250 301 q 303 183 260 219 q 428 146 347 146 q 533 163 481 146 q 628 213 585 181 l 683 72 q 562 11 633 33 q 418 -11 490 -11 q 147 84 246 -11 q 47 343 47 179 q 90 528 47 447 q 210 653 133 608 q 383 699 286 699 q 610 606 526 699 q 694 353 694 513 l 694 301 m 389 554 q 294 516 329 554 q 250 406 258 478 l 518 406 q 481 517 514 479 q 389 554 449 554 m 508 -93 l 508 -276 l 317 -276 l 317 -93 l 508 -93 z "},"è":{"ha":740,"x_min":47,"x_max":694,"o":"m 694 301 l 250 301 q 303 183 260 219 q 428 146 347 146 q 533 163 481 146 q 628 213 585 181 l 683 72 q 562 11 633 33 q 418 -11 490 -11 q 147 84 246 -11 q 47 343 47 179 q 90 528 47 447 q 210 653 133 608 q 383 699 286 699 q 610 606 526 699 q 694 353 694 513 l 694 301 m 389 554 q 294 516 329 554 q 250 406 258 478 l 518 406 q 481 517 514 479 q 389 554 449 554 m 107 1056 l 313 1056 l 449 771 l 318 771 l 107 1056 z "},"ẻ":{"ha":740,"x_min":47,"x_max":694,"o":"m 694 301 l 250 301 q 303 183 260 219 q 428 146 347 146 q 533 163 481 146 q 628 213 585 181 l 683 72 q 562 11 633 33 q 418 -11 490 -11 q 147 84 246 -11 q 47 343 47 179 q 90 528 47 447 q 210 653 133 608 q 383 699 286 699 q 610 606 526 699 q 694 353 694 513 l 694 301 m 389 554 q 294 516 329 554 q 250 406 258 478 l 518 406 q 481 517 514 479 q 389 554 449 554 m 438 771 l 333 771 l 333 806 q 347 853 333 835 q 383 893 360 872 q 406 915 399 906 q 414 935 414 925 q 368 967 414 967 q 299 954 335 967 l 269 1033 q 389 1058 326 1058 q 508 1028 465 1058 q 550 954 550 999 q 533 902 550 922 q 485 858 517 882 q 449 828 461 842 q 438 799 438 815 l 438 771 z "},"ȇ":{"ha":740,"x_min":47,"x_max":694,"o":"m 694 301 l 250 301 q 303 183 260 219 q 428 146 347 146 q 533 163 481 146 q 628 213 585 181 l 683 72 q 562 11 633 33 q 418 -11 490 -11 q 147 84 246 -11 q 47 343 47 179 q 90 528 47 447 q 210 653 133 608 q 383 699 286 699 q 610 606 526 699 q 694 353 694 513 l 694 301 m 389 554 q 294 516 329 554 q 250 406 258 478 l 518 406 q 481 517 514 479 q 389 554 449 554 m 383 1039 q 545 987 474 1039 q 642 838 617 935 l 544 796 q 383 907 485 907 q 222 796 282 907 l 125 838 q 222 987 150 935 q 383 1039 293 1039 z "},"ē":{"ha":740,"x_min":47,"x_max":694,"o":"m 694 301 l 250 301 q 303 183 260 219 q 428 146 347 146 q 533 163 481 146 q 628 213 585 181 l 683 72 q 562 11 633 33 q 418 -11 490 -11 q 147 84 246 -11 q 47 343 47 179 q 90 528 47 447 q 210 653 133 608 q 383 699 286 699 q 610 606 526 699 q 694 353 694 513 l 694 301 m 389 554 q 294 516 329 554 q 250 406 258 478 l 518 406 q 481 517 514 479 q 389 554 449 554 m 165 976 l 601 976 l 601 846 l 165 846 l 165 976 z "},"ḗ":{"ha":740,"x_min":47,"x_max":694,"o":"m 694 301 l 250 301 q 303 183 260 219 q 428 146 347 146 q 533 163 481 146 q 628 213 585 181 l 683 72 q 562 11 633 33 q 418 -11 490 -11 q 147 84 246 -11 q 47 343 47 179 q 90 528 47 447 q 210 653 133 608 q 383 699 286 699 q 610 606 526 699 q 694 353 694 513 l 694 301 m 389 554 q 294 516 329 554 q 250 406 258 478 l 518 406 q 481 517 514 479 q 389 554 449 554 m 165 976 l 601 976 l 601 846 l 165 846 l 165 976 m 318 1035 l 454 1319 l 660 1319 l 449 1035 l 318 1035 z "},"ḕ":{"ha":740,"x_min":47,"x_max":694,"o":"m 694 301 l 250 301 q 303 183 260 219 q 428 146 347 146 q 533 163 481 146 q 628 213 585 181 l 683 72 q 562 11 633 33 q 418 -11 490 -11 q 147 84 246 -11 q 47 343 47 179 q 90 528 47 447 q 210 653 133 608 q 383 699 286 699 q 610 606 526 699 q 694 353 694 513 l 694 301 m 389 554 q 294 516 329 554 q 250 406 258 478 l 518 406 q 481 517 514 479 q 389 554 449 554 m 165 976 l 601 976 l 601 846 l 165 846 l 165 976 m 107 1319 l 313 1319 l 449 1035 l 318 1035 l 107 1319 z "},"ę":{"ha":740,"x_min":47,"x_max":694,"o":"m 694 301 l 250 301 q 303 183 260 219 q 428 146 347 146 q 533 163 481 146 q 628 213 585 181 l 683 72 q 604 28 664 57 q 524 -27 547 0 q 500 -90 500 -54 q 522 -146 500 -126 q 583 -165 543 -165 q 658 -147 615 -165 l 682 -246 q 543 -274 618 -274 q 416 -231 465 -274 q 367 -121 367 -187 q 413 -11 367 -57 q 144 85 242 -10 q 47 343 47 181 q 90 528 47 447 q 210 653 133 608 q 383 699 286 699 q 610 606 526 699 q 694 353 694 513 l 694 301 m 389 554 q 294 515 331 554 q 250 406 258 476 l 518 406 q 481 517 514 479 q 389 554 449 554 z "},"ẽ":{"ha":740,"x_min":47,"x_max":694,"o":"m 694 301 l 250 301 q 303 183 260 219 q 428 146 347 146 q 533 163 481 146 q 628 213 585 181 l 683 72 q 562 11 633 33 q 418 -11 490 -11 q 147 84 246 -11 q 47 343 47 179 q 90 528 47 447 q 210 653 133 608 q 383 699 286 699 q 610 606 526 699 q 694 353 694 513 l 694 301 m 389 554 q 294 516 329 554 q 250 406 258 478 l 518 406 q 481 517 514 479 q 389 554 449 554 m 142 815 q 184 967 142 915 q 293 1018 226 1018 q 341 1008 318 1018 q 399 978 364 999 q 442 953 425 961 q 476 944 460 944 q 517 963 503 944 q 535 1014 532 982 l 625 1014 q 583 863 625 914 q 474 811 540 811 q 426 821 449 811 q 368 851 403 831 q 324 876 340 868 q 290 883 307 883 q 249 865 264 883 q 232 815 235 847 l 142 815 z "},"ə":{"ha":740,"x_min":46,"x_max":693,"o":"m 338 699 q 525 656 444 699 q 649 532 606 613 q 693 344 693 451 q 652 158 693 239 q 538 33 611 78 q 368 -11 464 -11 q 132 81 218 -11 q 46 332 46 172 l 46 386 l 492 386 q 442 504 482 467 q 324 542 401 542 q 113 474 226 542 l 57 614 q 184 676 110 654 q 338 699 258 699 m 358 133 q 453 171 418 133 q 494 281 488 208 l 228 281 q 358 133 239 133 z "},"f":{"ha":522,"x_min":6,"x_max":556,"o":"m 344 682 l 515 682 l 515 525 l 344 525 l 344 0 l 135 0 l 135 525 l 6 525 l 6 682 l 135 682 q 219 899 138 826 q 467 982 300 972 l 543 986 l 556 832 l 490 829 q 377 799 410 826 q 344 710 344 772 l 344 682 z "},"g":{"ha":857,"x_min":47,"x_max":776,"o":"m 776 682 l 776 74 q 682 -176 776 -92 q 403 -261 588 -261 q 227 -239 311 -261 q 79 -176 143 -217 l 135 -32 q 397 -104 267 -104 q 569 58 569 -104 l 569 133 q 482 50 540 81 q 351 19 424 19 q 194 61 263 19 q 86 180 125 103 q 47 358 47 257 q 86 537 47 460 q 194 656 125 614 q 351 699 263 699 q 480 669 422 699 q 568 586 538 639 l 568 682 l 776 682 m 413 179 q 527 226 486 179 q 568 358 568 274 q 527 491 568 443 q 413 539 486 539 q 297 491 339 539 q 256 358 256 443 q 297 227 256 275 q 413 179 339 179 z "},"ğ":{"ha":857,"x_min":47,"x_max":776,"o":"m 776 682 l 776 74 q 682 -176 776 -92 q 403 -261 588 -261 q 227 -239 311 -261 q 79 -176 143 -217 l 135 -32 q 397 -104 267 -104 q 569 58 569 -104 l 569 133 q 482 50 540 81 q 351 19 424 19 q 194 61 263 19 q 86 180 125 103 q 47 358 47 257 q 86 537 47 460 q 194 656 125 614 q 351 699 263 699 q 480 669 422 699 q 568 586 538 639 l 568 682 l 776 682 m 413 179 q 527 226 486 179 q 568 358 568 274 q 527 491 568 443 q 413 539 486 539 q 297 491 339 539 q 256 358 256 443 q 297 227 256 275 q 413 179 339 179 m 429 801 q 267 853 339 801 q 171 1003 196 906 l 268 1043 q 429 933 328 933 q 590 1043 531 933 l 688 1003 q 591 853 663 906 q 429 801 519 801 z "},"ǧ":{"ha":857,"x_min":47,"x_max":776,"o":"m 776 682 l 776 74 q 682 -176 776 -92 q 403 -261 588 -261 q 227 -239 311 -261 q 79 -176 143 -217 l 135 -32 q 397 -104 267 -104 q 569 58 569 -104 l 569 133 q 482 50 540 81 q 351 19 424 19 q 194 61 263 19 q 86 180 125 103 q 47 358 47 257 q 86 537 47 460 q 194 656 125 614 q 351 699 263 699 q 480 669 422 699 q 568 586 538 639 l 568 682 l 776 682 m 413 179 q 527 226 486 179 q 568 358 568 274 q 527 491 568 443 q 413 539 486 539 q 297 491 339 539 q 256 358 256 443 q 297 227 256 275 q 413 179 339 179 m 672 1056 l 492 771 l 367 771 l 186 1056 l 349 1056 l 429 894 l 510 1056 l 672 1056 z "},"ĝ":{"ha":857,"x_min":47,"x_max":776,"o":"m 776 682 l 776 74 q 682 -176 776 -92 q 403 -261 588 -261 q 227 -239 311 -261 q 79 -176 143 -217 l 135 -32 q 397 -104 267 -104 q 569 58 569 -104 l 569 133 q 482 50 540 81 q 351 19 424 19 q 194 61 263 19 q 86 180 125 103 q 47 358 47 257 q 86 537 47 460 q 194 656 125 614 q 351 699 263 699 q 480 669 422 699 q 568 586 538 639 l 568 682 l 776 682 m 413 179 q 527 226 486 179 q 568 358 568 274 q 527 491 568 443 q 413 539 486 539 q 297 491 339 539 q 256 358 256 443 q 297 227 256 275 q 413 179 339 179 m 186 771 l 367 1056 l 492 1056 l 672 771 l 510 771 l 429 932 l 349 771 l 186 771 z "},"ģ":{"ha":857,"x_min":47,"x_max":776,"o":"m 776 682 l 776 74 q 682 -176 776 -92 q 403 -261 588 -261 q 227 -239 311 -261 q 79 -176 143 -217 l 135 -32 q 397 -104 267 -104 q 569 58 569 -104 l 569 133 q 482 50 540 81 q 351 19 424 19 q 194 61 263 19 q 86 180 125 103 q 47 358 47 257 q 86 537 47 460 q 194 656 125 614 q 351 699 263 699 q 480 669 422 699 q 568 586 538 639 l 568 682 l 776 682 m 413 179 q 527 226 486 179 q 568 358 568 274 q 527 491 568 443 q 413 539 486 539 q 297 491 339 539 q 256 358 256 443 q 297 227 256 275 q 413 179 339 179 m 532 969 l 532 811 l 325 811 l 325 900 q 344 1013 325 965 q 408 1101 363 1060 l 483 1050 q 435 969 443 1014 l 532 969 z "},"ġ":{"ha":857,"x_min":47,"x_max":776,"o":"m 776 682 l 776 74 q 682 -176 776 -92 q 403 -261 588 -261 q 227 -239 311 -261 q 79 -176 143 -217 l 135 -32 q 397 -104 267 -104 q 569 58 569 -104 l 569 133 q 482 50 540 81 q 351 19 424 19 q 194 61 263 19 q 86 180 125 103 q 47 358 47 257 q 86 537 47 460 q 194 656 125 614 q 351 699 263 699 q 480 669 422 699 q 568 586 538 639 l 568 682 l 776 682 m 413 179 q 527 226 486 179 q 568 358 568 274 q 527 491 568 443 q 413 539 486 539 q 297 491 339 539 q 256 358 256 443 q 297 227 256 275 q 413 179 339 179 m 542 1010 l 542 814 l 317 814 l 317 1010 l 542 1010 z "},"ḡ":{"ha":857,"x_min":47,"x_max":776,"o":"m 776 682 l 776 74 q 682 -176 776 -92 q 403 -261 588 -261 q 227 -239 311 -261 q 79 -176 143 -217 l 135 -32 q 397 -104 267 -104 q 569 58 569 -104 l 569 133 q 482 50 540 81 q 351 19 424 19 q 194 61 263 19 q 86 180 125 103 q 47 358 47 257 q 86 537 47 460 q 194 656 125 614 q 351 699 263 699 q 480 669 422 699 q 568 586 538 639 l 568 682 l 776 682 m 413 179 q 527 226 486 179 q 568 358 568 274 q 527 491 568 443 q 413 539 486 539 q 297 491 339 539 q 256 358 256 443 q 297 227 256 275 q 413 179 339 179 m 211 976 l 647 976 l 647 846 l 211 846 l 211 976 z "},"h":{"ha":826,"x_min":81,"x_max":750,"o":"m 508 699 q 690 627 631 699 q 750 411 750 556 l 750 0 l 540 0 l 540 401 q 515 503 540 471 q 435 535 489 535 q 330 493 369 535 q 290 382 290 451 l 290 0 l 81 0 l 81 979 l 290 979 l 290 592 q 383 672 326 644 q 508 699 439 699 z "},"ħ":{"ha":826,"x_min":-37,"x_max":750,"o":"m 508 699 q 690 627 631 699 q 750 411 750 556 l 750 0 l 540 0 l 540 401 q 515 503 540 471 q 435 535 489 535 q 330 493 369 535 q 290 382 290 451 l 290 0 l 81 0 l 81 740 l -37 740 l -37 885 l 81 885 l 81 979 l 290 979 l 290 885 l 549 885 l 549 740 l 290 740 l 290 592 q 383 672 326 644 q 508 699 439 699 z "},"ḫ":{"ha":826,"x_min":81,"x_max":750,"o":"m 508 699 q 690 627 631 699 q 750 411 750 556 l 750 0 l 540 0 l 540 401 q 515 503 540 471 q 435 535 489 535 q 330 493 369 535 q 290 382 290 451 l 290 0 l 81 0 l 81 979 l 290 979 l 290 592 q 383 672 326 644 q 508 699 439 699 m 415 -315 q 253 -264 325 -315 q 157 -114 182 -212 l 254 -74 q 415 -183 314 -183 q 576 -74 517 -183 l 674 -114 q 577 -264 649 -212 q 415 -315 506 -315 z "},"ĥ":{"ha":826,"x_min":-54,"x_max":750,"o":"m 508 699 q 690 627 631 699 q 750 411 750 556 l 750 0 l 540 0 l 540 401 q 515 503 540 471 q 435 535 489 535 q 330 493 369 535 q 290 382 290 451 l 290 0 l 81 0 l 81 979 l 290 979 l 290 592 q 383 672 326 644 q 508 699 439 699 m -54 1063 l 129 1279 l 249 1279 l 432 1063 l 275 1063 l 189 1181 l 103 1063 l -54 1063 z "},"ḥ":{"ha":826,"x_min":81,"x_max":750,"o":"m 508 699 q 690 627 631 699 q 750 411 750 556 l 750 0 l 540 0 l 540 401 q 515 503 540 471 q 435 535 489 535 q 330 493 369 535 q 290 382 290 451 l 290 0 l 81 0 l 81 979 l 290 979 l 290 592 q 383 672 326 644 q 508 699 439 699 m 511 -93 l 511 -276 l 319 -276 l 319 -93 l 511 -93 z "},"i":{"ha":371,"x_min":74,"x_max":299,"o":"m 81 682 l 290 682 l 290 0 l 81 0 l 81 682 m 299 1010 l 299 814 l 74 814 l 74 1010 l 299 1010 z "},"ı":{"ha":371,"x_min":81,"x_max":290,"o":"m 81 682 l 290 682 l 290 0 l 81 0 l 81 682 z "},"í":{"ha":371,"x_min":81,"x_max":463,"o":"m 81 682 l 290 682 l 290 0 l 81 0 l 81 682 m 121 771 l 257 1056 l 463 1056 l 251 771 l 121 771 z "},"ĭ":{"ha":371,"x_min":-72,"x_max":444,"o":"m 81 682 l 290 682 l 290 0 l 81 0 l 81 682 m 186 801 q 24 853 96 801 q -72 1003 -47 906 l 25 1043 q 186 933 85 933 q 347 1043 288 933 l 444 1003 q 348 853 419 906 q 186 801 276 801 z "},"î":{"ha":371,"x_min":-57,"x_max":429,"o":"m 81 682 l 290 682 l 290 0 l 81 0 l 81 682 m -57 771 l 124 1056 l 249 1056 l 429 771 l 267 771 l 186 932 l 106 771 l -57 771 z "},"ȉ":{"ha":371,"x_min":-64,"x_max":328,"o":"m 81 682 l 290 682 l 290 0 l 81 0 l 81 682 m -64 1056 l 88 1056 l 135 771 l 44 771 l -64 1056 m 129 1056 l 281 1056 l 328 771 l 238 771 l 129 1056 z "},"ï":{"ha":371,"x_min":-43,"x_max":415,"o":"m 81 682 l 290 682 l 290 0 l 81 0 l 81 682 m 150 1003 l 150 819 l -43 819 l -43 1003 l 150 1003 m 415 1003 l 415 819 l 222 819 l 222 1003 l 415 1003 z "},"ḯ":{"ha":371,"x_min":-43,"x_max":463,"o":"m 81 682 l 290 682 l 290 0 l 81 0 l 81 682 m 150 1003 l 150 819 l -43 819 l -43 1003 l 150 1003 m 415 1003 l 415 819 l 222 819 l 222 1003 l 415 1003 m 121 1035 l 257 1319 l 463 1319 l 251 1035 l 121 1035 z "},"ị":{"ha":371,"x_min":74,"x_max":299,"o":"m 81 682 l 290 682 l 290 0 l 81 0 l 81 682 m 299 1010 l 299 814 l 74 814 l 74 1010 l 299 1010 m 282 -93 l 282 -276 l 90 -276 l 90 -93 l 282 -93 z "},"ì":{"ha":371,"x_min":-90,"x_max":290,"o":"m 81 682 l 290 682 l 290 0 l 81 0 l 81 682 m -90 1056 l 115 1056 l 251 771 l 121 771 l -90 1056 z "},"ỉ":{"ha":371,"x_min":72,"x_max":353,"o":"m 81 682 l 290 682 l 290 0 l 81 0 l 81 682 m 240 771 l 136 771 l 136 806 q 149 853 136 835 q 186 893 163 872 q 209 915 201 906 q 217 935 217 925 q 171 967 217 967 q 101 954 138 967 l 72 1033 q 192 1058 129 1058 q 310 1028 268 1058 q 353 954 353 999 q 336 902 353 922 q 288 858 319 882 q 252 828 264 842 q 240 799 240 815 l 240 771 z "},"ȋ":{"ha":371,"x_min":-72,"x_max":444,"o":"m 81 682 l 290 682 l 290 0 l 81 0 l 81 682 m 186 1039 q 348 987 276 1039 q 444 838 419 935 l 347 796 q 186 907 288 907 q 25 796 85 907 l -72 838 q 24 987 -47 935 q 186 1039 96 1039 z "},"ī":{"ha":371,"x_min":-32,"x_max":404,"o":"m 81 682 l 290 682 l 290 0 l 81 0 l 81 682 m -32 976 l 404 976 l 404 846 l -32 846 l -32 976 z "},"į":{"ha":371,"x_min":26,"x_max":343,"o":"m 297 814 l 74 814 l 74 1010 l 297 1010 l 297 814 m 343 -246 q 204 -274 279 -274 q 77 -231 128 -274 q 26 -118 26 -189 q 81 3 26 -47 l 81 682 l 290 682 l 290 0 l 278 0 q 193 -26 225 0 q 161 -90 161 -51 q 183 -146 161 -126 q 244 -165 204 -165 q 319 -147 276 -165 l 343 -246 z "},"ĩ":{"ha":371,"x_min":-56,"x_max":428,"o":"m 81 682 l 290 682 l 290 0 l 81 0 l 81 682 m -56 815 q -13 967 -56 915 q 96 1018 29 1018 q 144 1008 121 1018 q 201 978 167 999 q 245 953 228 961 q 279 944 263 944 q 320 963 306 944 q 338 1014 335 982 l 428 1014 q 385 863 428 914 q 276 811 343 811 q 228 821 251 811 q 171 851 206 831 q 126 876 143 868 q 93 883 110 883 q 52 865 67 883 q 35 815 38 847 l -56 815 z "},"j":{"ha":371,"x_min":-101,"x_max":297,"o":"m 290 44 q 260 -122 290 -60 q 162 -216 229 -185 q -21 -254 94 -247 l -86 -258 l -101 -108 l -31 -103 q 55 -74 29 -99 q 81 6 81 -49 l 81 682 l 290 682 l 290 44 m 297 1010 l 297 814 l 72 814 l 72 1010 l 297 1010 z "},"ȷ":{"ha":371,"x_min":-101,"x_max":290,"o":"m 290 44 q 260 -122 290 -60 q 162 -216 229 -185 q -21 -254 94 -247 l -86 -258 l -101 -108 l -31 -103 q 55 -74 29 -99 q 81 6 81 -49 l 81 682 l 290 682 l 290 44 z "},"ĵ":{"ha":371,"x_min":-101,"x_max":428,"o":"m 290 44 q 260 -122 290 -60 q 162 -216 229 -185 q -21 -254 94 -247 l -86 -258 l -101 -108 l -31 -103 q 55 -74 29 -99 q 81 6 81 -49 l 81 682 l 290 682 l 290 44 m -58 771 l 122 1056 l 247 1056 l 428 771 l 265 771 l 185 932 l 104 771 l -58 771 z "},"k":{"ha":775,"x_min":81,"x_max":808,"o":"m 551 0 l 290 304 l 290 0 l 81 0 l 81 979 l 290 979 l 290 390 l 542 681 l 792 681 l 506 356 l 808 0 l 551 0 z "},"ķ":{"ha":775,"x_min":81,"x_max":808,"o":"m 551 0 l 290 304 l 290 0 l 81 0 l 81 979 l 290 979 l 290 390 l 542 681 l 792 681 l 506 356 l 808 0 l 551 0 m 490 -90 l 490 -181 q 472 -293 490 -244 q 407 -382 453 -342 l 332 -331 q 381 -249 372 -293 l 283 -249 l 283 -90 l 490 -90 z "},"ĸ":{"ha":775,"x_min":81,"x_max":808,"o":"m 551 0 l 290 304 l 290 0 l 81 0 l 81 682 l 290 682 l 290 390 l 542 681 l 792 681 l 506 356 l 808 0 l 551 0 z "},"l":{"ha":371,"x_min":81,"x_max":290,"o":"m 81 979 l 290 979 l 290 0 l 81 0 l 81 979 z "},"ĺ":{"ha":371,"x_min":81,"x_max":458,"o":"m 81 979 l 290 979 l 290 0 l 81 0 l 81 979 m 121 1063 l 264 1279 l 458 1279 l 251 1063 l 121 1063 z "},"ľ":{"ha":371,"x_min":81,"x_max":435,"o":"m 81 979 l 290 979 l 290 0 l 81 0 l 81 979 m 326 710 l 326 979 l 435 979 l 399 710 l 326 710 z "},"ļ":{"ha":371,"x_min":81,"x_max":290,"o":"m 81 979 l 290 979 l 290 0 l 81 0 l 81 979 m 289 -90 l 289 -181 q 270 -293 289 -244 q 206 -382 251 -342 l 131 -331 q 179 -249 171 -293 l 82 -249 l 82 -90 l 289 -90 z "},"ŀ":{"ha":519,"x_min":81,"x_max":558,"o":"m 81 979 l 290 979 l 290 0 l 81 0 l 81 979 m 558 586 l 558 392 l 333 392 l 333 586 l 558 586 z "},"ḷ":{"ha":371,"x_min":81,"x_max":290,"o":"m 81 979 l 290 979 l 290 0 l 81 0 l 81 979 m 282 -93 l 282 -276 l 90 -276 l 90 -93 l 282 -93 z "},"ǉ":{"ha":742,"x_min":81,"x_max":668,"o":"m 81 979 l 290 979 l 290 0 l 81 0 l 81 979 m 661 44 q 631 -122 661 -60 q 533 -216 600 -185 q 350 -254 465 -247 l 285 -258 l 269 -108 l 340 -103 q 426 -74 400 -99 q 451 6 451 -49 l 451 682 l 661 682 l 661 44 m 668 1010 l 668 814 l 443 814 l 443 1010 l 668 1010 z "},"ḻ":{"ha":371,"x_min":-32,"x_max":404,"o":"m 81 979 l 290 979 l 290 0 l 81 0 l 81 979 m -32 -124 l 404 -124 l 404 -246 l -32 -246 l -32 -124 z "},"ł":{"ha":488,"x_min":-22,"x_max":510,"o":"m 349 460 l 349 0 l 139 0 l 139 339 l 56 290 l -22 431 l 139 524 l 139 979 l 349 979 l 349 644 l 432 693 l 510 553 l 349 460 z "},"m":{"ha":1229,"x_min":81,"x_max":1151,"o":"m 921 699 q 1094 628 1038 699 q 1151 411 1151 557 l 1151 0 l 942 0 l 942 404 q 920 504 942 474 q 847 535 899 535 q 754 493 788 535 q 721 376 721 451 l 721 0 l 511 0 l 511 404 q 490 504 511 474 q 417 535 468 535 q 324 493 357 535 q 290 376 290 451 l 290 0 l 81 0 l 81 682 l 285 682 l 285 590 q 370 671 317 643 q 493 699 424 699 q 696 572 644 699 q 789 665 729 631 q 921 699 849 699 z "},"ṃ":{"ha":1229,"x_min":81,"x_max":1151,"o":"m 921 699 q 1094 628 1038 699 q 1151 411 1151 557 l 1151 0 l 942 0 l 942 404 q 920 504 942 474 q 847 535 899 535 q 754 493 788 535 q 721 376 721 451 l 721 0 l 511 0 l 511 404 q 490 504 511 474 q 417 535 468 535 q 324 493 357 535 q 290 376 290 451 l 290 0 l 81 0 l 81 682 l 285 682 l 285 590 q 370 671 317 643 q 493 699 424 699 q 696 572 644 699 q 789 665 729 631 q 921 699 849 699 m 713 -93 l 713 -276 l 521 -276 l 521 -93 l 713 -93 z "},"n":{"ha":826,"x_min":81,"x_max":750,"o":"m 508 699 q 690 627 631 699 q 750 411 750 556 l 750 0 l 540 0 l 540 401 q 515 503 540 471 q 435 535 489 535 q 330 493 369 535 q 290 382 290 451 l 290 0 l 81 0 l 81 682 l 285 682 l 285 585 q 378 669 321 640 q 508 699 436 699 z "},"ń":{"ha":826,"x_min":81,"x_max":750,"o":"m 508 699 q 690 627 631 699 q 750 411 750 556 l 750 0 l 540 0 l 540 401 q 515 503 540 471 q 435 535 489 535 q 330 493 369 535 q 290 382 290 451 l 290 0 l 81 0 l 81 682 l 285 682 l 285 585 q 378 669 321 640 q 508 699 436 699 m 350 771 l 486 1056 l 692 1056 l 481 771 l 350 771 z "},"ŉ":{"ha":826,"x_min":81,"x_max":750,"o":"m 308 1056 l 308 965 q 290 853 308 901 q 225 764 271 804 l 150 815 q 199 897 190 853 l 101 897 l 101 1056 l 308 1056 m 508 699 q 690 627 631 699 q 750 411 750 556 l 750 0 l 540 0 l 540 401 q 515 503 540 471 q 435 535 489 535 q 330 493 369 535 q 290 382 290 451 l 290 0 l 81 0 l 81 682 l 285 682 l 285 585 q 378 669 321 640 q 508 699 436 699 z "},"ň":{"ha":826,"x_min":81,"x_max":750,"o":"m 508 699 q 690 627 631 699 q 750 411 750 556 l 750 0 l 540 0 l 540 401 q 515 503 540 471 q 435 535 489 535 q 330 493 369 535 q 290 382 290 451 l 290 0 l 81 0 l 81 682 l 285 682 l 285 585 q 378 669 321 640 q 508 699 436 699 m 658 1056 l 478 771 l 353 771 l 172 1056 l 335 1056 l 415 894 l 496 1056 l 658 1056 z "},"ņ":{"ha":826,"x_min":81,"x_max":750,"o":"m 508 699 q 690 627 631 699 q 750 411 750 556 l 750 0 l 540 0 l 540 401 q 515 503 540 471 q 435 535 489 535 q 330 493 369 535 q 290 382 290 451 l 290 0 l 81 0 l 81 682 l 285 682 l 285 585 q 378 669 321 640 q 508 699 436 699 m 518 -90 l 518 -181 q 499 -293 518 -244 q 435 -382 481 -342 l 360 -331 q 408 -249 400 -293 l 311 -249 l 311 -90 l 518 -90 z "},"ṅ":{"ha":826,"x_min":81,"x_max":750,"o":"m 508 699 q 690 627 631 699 q 750 411 750 556 l 750 0 l 540 0 l 540 401 q 515 503 540 471 q 435 535 489 535 q 330 493 369 535 q 290 382 290 451 l 290 0 l 81 0 l 81 682 l 285 682 l 285 585 q 378 669 321 640 q 508 699 436 699 m 528 1010 l 528 814 l 303 814 l 303 1010 l 528 1010 z "},"ṇ":{"ha":826,"x_min":81,"x_max":750,"o":"m 508 699 q 690 627 631 699 q 750 411 750 556 l 750 0 l 540 0 l 540 401 q 515 503 540 471 q 435 535 489 535 q 330 493 369 535 q 290 382 290 451 l 290 0 l 81 0 l 81 682 l 285 682 l 285 585 q 378 669 321 640 q 508 699 436 699 m 511 -93 l 511 -276 l 319 -276 l 319 -93 l 511 -93 z "},"ŋ":{"ha":826,"x_min":81,"x_max":750,"o":"m 508 699 q 750 411 750 699 l 750 46 q 719 -121 750 -58 q 622 -215 689 -183 q 439 -253 554 -246 l 372 -257 l 360 -107 l 429 -101 q 515 -72 489 -97 q 540 7 540 -47 l 540 401 q 515 503 540 472 q 435 535 489 535 q 330 493 369 535 q 290 382 290 451 l 290 0 l 81 0 l 81 682 l 285 682 l 285 585 q 378 669 321 640 q 508 699 436 699 z "},"ǌ":{"ha":1197,"x_min":81,"x_max":1124,"o":"m 508 699 q 690 627 631 699 q 750 411 750 556 l 750 0 l 540 0 l 540 401 q 515 503 540 471 q 435 535 489 535 q 330 493 369 535 q 290 382 290 451 l 290 0 l 81 0 l 81 682 l 285 682 l 285 585 q 378 669 321 640 q 508 699 436 699 m 1117 44 q 1086 -122 1117 -60 q 988 -216 1056 -185 q 806 -254 921 -247 l 740 -258 l 725 -108 l 796 -103 q 881 -74 856 -99 q 907 6 907 -49 l 907 682 l 1117 682 l 1117 44 m 1124 1010 l 1124 814 l 899 814 l 899 1010 l 1124 1010 z "},"ṉ":{"ha":826,"x_min":81,"x_max":750,"o":"m 508 699 q 690 627 631 699 q 750 411 750 556 l 750 0 l 540 0 l 540 401 q 515 503 540 471 q 435 535 489 535 q 330 493 369 535 q 290 382 290 451 l 290 0 l 81 0 l 81 682 l 285 682 l 285 585 q 378 669 321 640 q 508 699 436 699 m 197 -124 l 633 -124 l 633 -246 l 197 -246 l 197 -124 z "},"ñ":{"ha":826,"x_min":81,"x_max":750,"o":"m 508 699 q 690 627 631 699 q 750 411 750 556 l 750 0 l 540 0 l 540 401 q 515 503 540 471 q 435 535 489 535 q 330 493 369 535 q 290 382 290 451 l 290 0 l 81 0 l 81 682 l 285 682 l 285 585 q 378 669 321 640 q 508 699 436 699 m 174 815 q 216 967 174 915 q 325 1018 258 1018 q 373 1008 350 1018 q 431 978 396 999 q 474 953 457 961 q 508 944 492 944 q 549 963 535 944 q 567 1014 564 982 l 657 1014 q 615 863 657 914 q 506 811 572 811 q 458 821 481 811 q 400 851 435 831 q 356 876 372 868 q 322 883 339 883 q 281 865 296 883 q 264 815 267 847 l 174 815 z "},"o":{"ha":817,"x_min":47,"x_max":769,"o":"m 408 -11 q 218 33 300 -11 q 92 156 136 76 q 47 344 47 236 q 92 533 47 453 q 218 656 136 613 q 408 699 300 699 q 599 656 517 699 q 725 533 681 613 q 769 344 769 453 q 725 156 769 236 q 599 33 681 76 q 408 -11 517 -11 m 408 149 q 561 344 561 149 q 522 492 561 443 q 408 540 482 540 q 256 344 256 540 q 408 149 256 149 z "},"ó":{"ha":817,"x_min":47,"x_max":769,"o":"m 408 -11 q 218 33 300 -11 q 92 156 136 76 q 47 344 47 236 q 92 533 47 453 q 218 656 136 613 q 408 699 300 699 q 599 656 517 699 q 725 533 681 613 q 769 344 769 453 q 725 156 769 236 q 599 33 681 76 q 408 -11 517 -11 m 408 149 q 561 344 561 149 q 522 492 561 443 q 408 540 482 540 q 256 344 256 540 q 408 149 256 149 m 343 771 l 479 1056 l 685 1056 l 474 771 l 343 771 z "},"ŏ":{"ha":817,"x_min":47,"x_max":769,"o":"m 408 -11 q 218 33 300 -11 q 92 156 136 76 q 47 344 47 236 q 92 533 47 453 q 218 656 136 613 q 408 699 300 699 q 599 656 517 699 q 725 533 681 613 q 769 344 769 453 q 725 156 769 236 q 599 33 681 76 q 408 -11 517 -11 m 408 149 q 561 344 561 149 q 522 492 561 443 q 408 540 482 540 q 256 344 256 540 q 408 149 256 149 m 408 801 q 247 853 318 801 q 150 1003 175 906 l 247 1043 q 408 933 307 933 q 569 1043 510 933 l 667 1003 q 570 853 642 906 q 408 801 499 801 z "},"ô":{"ha":817,"x_min":47,"x_max":769,"o":"m 408 -11 q 218 33 300 -11 q 92 156 136 76 q 47 344 47 236 q 92 533 47 453 q 218 656 136 613 q 408 699 300 699 q 599 656 517 699 q 725 533 681 613 q 769 344 769 453 q 725 156 769 236 q 599 33 681 76 q 408 -11 517 -11 m 408 149 q 561 344 561 149 q 522 492 561 443 q 408 540 482 540 q 256 344 256 540 q 408 149 256 149 m 165 771 l 346 1056 l 471 1056 l 651 771 l 489 771 l 408 932 l 328 771 l 165 771 z "},"ố":{"ha":817,"x_min":47,"x_max":813,"o":"m 408 -11 q 218 33 300 -11 q 92 156 136 76 q 47 344 47 236 q 92 533 47 453 q 218 656 136 613 q 408 699 300 699 q 599 656 517 699 q 725 533 681 613 q 769 344 769 453 q 725 156 769 236 q 599 33 681 76 q 408 -11 517 -11 m 408 149 q 561 344 561 149 q 522 492 561 443 q 408 540 482 540 q 256 344 256 540 q 408 149 256 149 m 539 918 l 639 1115 l 813 1115 l 642 918 l 539 918 m 165 771 l 349 963 l 468 963 l 651 771 l 497 771 l 408 869 l 319 771 l 165 771 z "},"ộ":{"ha":817,"x_min":47,"x_max":769,"o":"m 408 -11 q 218 33 300 -11 q 92 156 136 76 q 47 344 47 236 q 92 533 47 453 q 218 656 136 613 q 408 699 300 699 q 599 656 517 699 q 725 533 681 613 q 769 344 769 453 q 725 156 769 236 q 599 33 681 76 q 408 -11 517 -11 m 408 149 q 561 344 561 149 q 522 492 561 443 q 408 540 482 540 q 256 344 256 540 q 408 149 256 149 m 504 -93 l 504 -276 l 313 -276 l 313 -93 l 504 -93 m 165 771 l 346 1056 l 471 1056 l 651 771 l 489 771 l 408 932 l 328 771 l 165 771 z "},"ồ":{"ha":817,"x_min":47,"x_max":769,"o":"m 408 -11 q 218 33 300 -11 q 92 156 136 76 q 47 344 47 236 q 92 533 47 453 q 218 656 136 613 q 408 699 300 699 q 599 656 517 699 q 725 533 681 613 q 769 344 769 453 q 725 156 769 236 q 599 33 681 76 q 408 -11 517 -11 m 408 149 q 561 344 561 149 q 522 492 561 443 q 408 540 482 540 q 256 344 256 540 q 408 149 256 149 m 428 1115 l 601 1115 l 700 918 l 597 918 l 428 1115 m 165 771 l 349 963 l 468 963 l 651 771 l 497 771 l 408 869 l 319 771 l 165 771 z "},"ổ":{"ha":817,"x_min":47,"x_max":769,"o":"m 408 -11 q 218 33 300 -11 q 92 156 136 76 q 47 344 47 236 q 92 533 47 453 q 218 656 136 613 q 408 699 300 699 q 599 656 517 699 q 725 533 681 613 q 769 344 769 453 q 725 156 769 236 q 599 33 681 76 q 408 -11 517 -11 m 408 149 q 561 344 561 149 q 522 492 561 443 q 408 540 482 540 q 256 344 256 540 q 408 149 256 149 m 642 919 l 538 919 l 538 947 q 556 985 538 972 q 603 1010 574 999 q 620 1017 613 1014 q 628 1025 628 1021 q 617 1038 628 1032 q 583 1043 606 1043 q 504 1028 549 1043 l 476 1099 q 608 1122 536 1122 q 716 1099 676 1122 q 756 1039 756 1076 q 739 999 756 1013 q 690 972 722 985 q 653 953 665 961 q 642 931 642 944 l 642 919 m 165 771 l 349 963 l 468 963 l 651 771 l 497 771 l 408 869 l 319 771 l 165 771 z "},"ỗ":{"ha":817,"x_min":47,"x_max":769,"o":"m 408 -11 q 218 33 300 -11 q 92 156 136 76 q 47 344 47 236 q 92 533 47 453 q 218 656 136 613 q 408 699 300 699 q 599 656 517 699 q 725 533 681 613 q 769 344 769 453 q 725 156 769 236 q 599 33 681 76 q 408 -11 517 -11 m 408 149 q 561 344 561 149 q 522 492 561 443 q 408 540 482 540 q 256 344 256 540 q 408 149 256 149 m 167 988 q 211 1092 167 1050 q 318 1133 256 1133 q 360 1128 340 1133 q 399 1117 381 1124 q 424 1108 417 1111 q 465 1094 444 1100 q 501 1088 485 1088 q 560 1129 556 1088 l 650 1129 q 606 1025 650 1067 q 499 983 561 983 q 456 988 476 983 q 418 999 436 993 q 393 1008 400 1006 q 352 1023 372 1017 q 315 1029 332 1029 q 257 988 261 1029 l 167 988 m 165 771 l 349 963 l 468 963 l 651 771 l 497 771 l 408 869 l 319 771 l 165 771 z "},"ȍ":{"ha":817,"x_min":47,"x_max":769,"o":"m 408 -11 q 218 33 300 -11 q 92 156 136 76 q 47 344 47 236 q 92 533 47 453 q 218 656 136 613 q 408 699 300 699 q 599 656 517 699 q 725 533 681 613 q 769 344 769 453 q 725 156 769 236 q 599 33 681 76 q 408 -11 517 -11 m 408 149 q 561 344 561 149 q 522 492 561 443 q 408 540 482 540 q 256 344 256 540 q 408 149 256 149 m 158 1056 l 310 1056 l 357 771 l 267 771 l 158 1056 m 351 1056 l 503 1056 l 550 771 l 460 771 l 351 1056 z "},"ö":{"ha":817,"x_min":47,"x_max":769,"o":"m 408 -11 q 218 33 300 -11 q 92 156 136 76 q 47 344 47 236 q 92 533 47 453 q 218 656 136 613 q 408 699 300 699 q 599 656 517 699 q 725 533 681 613 q 769 344 769 453 q 725 156 769 236 q 599 33 681 76 q 408 -11 517 -11 m 408 149 q 561 344 561 149 q 522 492 561 443 q 408 540 482 540 q 256 344 256 540 q 408 149 256 149 m 372 1003 l 372 819 l 179 819 l 179 1003 l 372 1003 m 638 1003 l 638 819 l 444 819 l 444 1003 l 638 1003 z "},"ȫ":{"ha":817,"x_min":47,"x_max":769,"o":"m 408 -11 q 218 33 300 -11 q 92 156 136 76 q 47 344 47 236 q 92 533 47 453 q 218 656 136 613 q 408 699 300 699 q 599 656 517 699 q 725 533 681 613 q 769 344 769 453 q 725 156 769 236 q 599 33 681 76 q 408 -11 517 -11 m 408 149 q 561 344 561 149 q 522 492 561 443 q 408 540 482 540 q 256 344 256 540 q 408 149 256 149 m 372 1003 l 372 819 l 179 819 l 179 1003 l 372 1003 m 638 1003 l 638 819 l 444 819 l 444 1003 l 638 1003 m 190 1240 l 626 1240 l 626 1110 l 190 1110 l 190 1240 z "},"ȱ":{"ha":817,"x_min":47,"x_max":769,"o":"m 408 -11 q 218 33 300 -11 q 92 156 136 76 q 47 344 47 236 q 92 533 47 453 q 218 656 136 613 q 408 699 300 699 q 599 656 517 699 q 725 533 681 613 q 769 344 769 453 q 725 156 769 236 q 599 33 681 76 q 408 -11 517 -11 m 408 149 q 561 344 561 149 q 522 492 561 443 q 408 540 482 540 q 256 344 256 540 q 408 149 256 149 m 521 1010 l 521 814 l 296 814 l 296 1010 l 521 1010 m 190 1240 l 626 1240 l 626 1110 l 190 1110 l 190 1240 z "},"ọ":{"ha":817,"x_min":47,"x_max":769,"o":"m 408 -11 q 218 33 300 -11 q 92 156 136 76 q 47 344 47 236 q 92 533 47 453 q 218 656 136 613 q 408 699 300 699 q 599 656 517 699 q 725 533 681 613 q 769 344 769 453 q 725 156 769 236 q 599 33 681 76 q 408 -11 517 -11 m 408 149 q 561 344 561 149 q 522 492 561 443 q 408 540 482 540 q 256 344 256 540 q 408 149 256 149 m 504 -93 l 504 -276 l 313 -276 l 313 -93 l 504 -93 z "},"ò":{"ha":817,"x_min":47,"x_max":769,"o":"m 408 -11 q 218 33 300 -11 q 92 156 136 76 q 47 344 47 236 q 92 533 47 453 q 218 656 136 613 q 408 699 300 699 q 599 656 517 699 q 725 533 681 613 q 769 344 769 453 q 725 156 769 236 q 599 33 681 76 q 408 -11 517 -11 m 408 149 q 561 344 561 149 q 522 492 561 443 q 408 540 482 540 q 256 344 256 540 q 408 149 256 149 m 132 1056 l 338 1056 l 474 771 l 343 771 l 132 1056 z "},"ỏ":{"ha":817,"x_min":47,"x_max":769,"o":"m 408 -11 q 218 33 300 -11 q 92 156 136 76 q 47 344 47 236 q 92 533 47 453 q 218 656 136 613 q 408 699 300 699 q 599 656 517 699 q 725 533 681 613 q 769 344 769 453 q 725 156 769 236 q 599 33 681 76 q 408 -11 517 -11 m 408 149 q 561 344 561 149 q 522 492 561 443 q 408 540 482 540 q 256 344 256 540 q 408 149 256 149 m 463 771 l 358 771 l 358 806 q 372 853 358 835 q 408 893 385 872 q 431 915 424 906 q 439 935 439 925 q 393 967 439 967 q 324 954 360 967 l 294 1033 q 414 1058 351 1058 q 533 1028 490 1058 q 575 954 575 999 q 558 902 575 922 q 510 858 542 882 q 474 828 486 842 q 463 799 463 815 l 463 771 z "},"ơ":{"ha":817,"x_min":47,"x_max":803,"o":"m 803 803 q 767 676 803 731 q 671 599 732 621 q 744 487 719 553 q 769 343 769 421 q 725 156 769 236 q 599 32 681 75 q 408 -11 517 -11 q 218 32 300 -11 q 92 156 136 75 q 47 343 47 236 q 92 532 47 451 q 217 656 136 613 q 404 699 297 699 q 489 690 439 699 l 519 688 q 594 717 567 688 q 622 828 622 747 l 622 856 l 803 856 l 803 803 m 408 149 q 561 344 561 149 q 522 492 561 443 q 408 540 482 540 q 256 344 256 540 q 408 149 256 149 z "},"ớ":{"ha":817,"x_min":47,"x_max":803,"o":"m 803 803 q 767 676 803 731 q 671 599 732 621 q 744 487 719 553 q 769 343 769 421 q 725 156 769 236 q 599 32 681 75 q 408 -11 517 -11 q 218 32 300 -11 q 92 156 136 75 q 47 343 47 236 q 92 532 47 451 q 217 656 136 613 q 404 699 297 699 q 489 690 439 699 l 519 688 q 594 717 567 688 q 622 828 622 747 l 622 856 l 803 856 l 803 803 m 408 149 q 561 344 561 149 q 522 492 561 443 q 408 540 482 540 q 256 344 256 540 q 408 149 256 149 m 343 771 l 479 1056 l 685 1056 l 474 771 l 343 771 z "},"ợ":{"ha":817,"x_min":47,"x_max":803,"o":"m 803 803 q 767 676 803 731 q 671 599 732 621 q 744 487 719 553 q 769 343 769 421 q 725 156 769 236 q 599 32 681 75 q 408 -11 517 -11 q 218 32 300 -11 q 92 156 136 75 q 47 343 47 236 q 92 532 47 451 q 217 656 136 613 q 404 699 297 699 q 489 690 439 699 l 519 688 q 594 717 567 688 q 622 828 622 747 l 622 856 l 803 856 l 803 803 m 408 149 q 561 344 561 149 q 522 492 561 443 q 408 540 482 540 q 256 344 256 540 q 408 149 256 149 m 504 -93 l 504 -276 l 313 -276 l 313 -93 l 504 -93 z "},"ờ":{"ha":817,"x_min":47,"x_max":803,"o":"m 803 803 q 767 676 803 731 q 671 599 732 621 q 744 487 719 553 q 769 343 769 421 q 725 156 769 236 q 599 32 681 75 q 408 -11 517 -11 q 218 32 300 -11 q 92 156 136 75 q 47 343 47 236 q 92 532 47 451 q 217 656 136 613 q 404 699 297 699 q 489 690 439 699 l 519 688 q 594 717 567 688 q 622 828 622 747 l 622 856 l 803 856 l 803 803 m 408 149 q 561 344 561 149 q 522 492 561 443 q 408 540 482 540 q 256 344 256 540 q 408 149 256 149 m 132 1056 l 338 1056 l 474 771 l 343 771 l 132 1056 z "},"ở":{"ha":817,"x_min":47,"x_max":803,"o":"m 803 803 q 767 676 803 731 q 671 599 732 621 q 744 487 719 553 q 769 343 769 421 q 725 156 769 236 q 599 32 681 75 q 408 -11 517 -11 q 218 32 300 -11 q 92 156 136 75 q 47 343 47 236 q 92 532 47 451 q 217 656 136 613 q 404 699 297 699 q 489 690 439 699 l 519 688 q 594 717 567 688 q 622 828 622 747 l 622 856 l 803 856 l 803 803 m 408 149 q 561 344 561 149 q 522 492 561 443 q 408 540 482 540 q 256 344 256 540 q 408 149 256 149 m 463 771 l 358 771 l 358 806 q 372 853 358 835 q 408 893 385 872 q 431 915 424 906 q 439 935 439 925 q 393 967 439 967 q 324 954 360 967 l 294 1033 q 414 1058 351 1058 q 533 1028 490 1058 q 575 954 575 999 q 558 902 575 922 q 510 858 542 882 q 474 828 486 842 q 463 799 463 815 l 463 771 z "},"ỡ":{"ha":817,"x_min":47,"x_max":803,"o":"m 803 803 q 767 676 803 731 q 671 599 732 621 q 744 487 719 553 q 769 343 769 421 q 725 156 769 236 q 599 32 681 75 q 408 -11 517 -11 q 218 32 300 -11 q 92 156 136 75 q 47 343 47 236 q 92 532 47 451 q 217 656 136 613 q 404 699 297 699 q 489 690 439 699 l 519 688 q 594 717 567 688 q 622 828 622 747 l 622 856 l 803 856 l 803 803 m 408 149 q 561 344 561 149 q 522 492 561 443 q 408 540 482 540 q 256 344 256 540 q 408 149 256 149 m 167 815 q 209 967 167 915 q 318 1018 251 1018 q 366 1008 343 1018 q 424 978 389 999 q 467 953 450 961 q 501 944 485 944 q 542 963 528 944 q 560 1014 557 982 l 650 1014 q 608 863 650 914 q 499 811 565 811 q 451 821 474 811 q 393 851 428 831 q 349 876 365 868 q 315 883 332 883 q 274 865 289 883 q 257 815 260 847 l 167 815 z "},"ő":{"ha":817,"x_min":47,"x_max":769,"o":"m 408 -11 q 218 33 300 -11 q 92 156 136 76 q 47 344 47 236 q 92 533 47 453 q 218 656 136 613 q 408 699 300 699 q 599 656 517 699 q 725 533 681 613 q 769 344 769 453 q 725 156 769 236 q 599 33 681 76 q 408 -11 517 -11 m 408 149 q 561 344 561 149 q 522 492 561 443 q 408 540 482 540 q 256 344 256 540 q 408 149 256 149 m 267 771 l 314 1056 l 465 1056 l 357 771 l 267 771 m 460 771 l 507 1056 l 658 1056 l 550 771 l 460 771 z "},"ȏ":{"ha":817,"x_min":47,"x_max":769,"o":"m 408 -11 q 218 33 300 -11 q 92 156 136 76 q 47 344 47 236 q 92 533 47 453 q 218 656 136 613 q 408 699 300 699 q 599 656 517 699 q 725 533 681 613 q 769 344 769 453 q 725 156 769 236 q 599 33 681 76 q 408 -11 517 -11 m 408 149 q 561 344 561 149 q 522 492 561 443 q 408 540 482 540 q 256 344 256 540 q 408 149 256 149 m 408 1039 q 570 987 499 1039 q 667 838 642 935 l 569 796 q 408 907 510 907 q 247 796 307 907 l 150 838 q 247 987 175 935 q 408 1039 318 1039 z "},"ō":{"ha":817,"x_min":47,"x_max":769,"o":"m 408 -11 q 218 33 300 -11 q 92 156 136 76 q 47 344 47 236 q 92 533 47 453 q 218 656 136 613 q 408 699 300 699 q 599 656 517 699 q 725 533 681 613 q 769 344 769 453 q 725 156 769 236 q 599 33 681 76 q 408 -11 517 -11 m 408 149 q 561 344 561 149 q 522 492 561 443 q 408 540 482 540 q 256 344 256 540 q 408 149 256 149 m 190 976 l 626 976 l 626 846 l 190 846 l 190 976 z "},"ṓ":{"ha":817,"x_min":47,"x_max":769,"o":"m 408 -11 q 218 33 300 -11 q 92 156 136 76 q 47 344 47 236 q 92 533 47 453 q 218 656 136 613 q 408 699 300 699 q 599 656 517 699 q 725 533 681 613 q 769 344 769 453 q 725 156 769 236 q 599 33 681 76 q 408 -11 517 -11 m 408 149 q 561 344 561 149 q 522 492 561 443 q 408 540 482 540 q 256 344 256 540 q 408 149 256 149 m 190 976 l 626 976 l 626 846 l 190 846 l 190 976 m 343 1035 l 479 1319 l 685 1319 l 474 1035 l 343 1035 z "},"ṑ":{"ha":817,"x_min":47,"x_max":769,"o":"m 408 -11 q 218 33 300 -11 q 92 156 136 76 q 47 344 47 236 q 92 533 47 453 q 218 656 136 613 q 408 699 300 699 q 599 656 517 699 q 725 533 681 613 q 769 344 769 453 q 725 156 769 236 q 599 33 681 76 q 408 -11 517 -11 m 408 149 q 561 344 561 149 q 522 492 561 443 q 408 540 482 540 q 256 344 256 540 q 408 149 256 149 m 190 976 l 626 976 l 626 846 l 190 846 l 190 976 m 132 1319 l 338 1319 l 474 1035 l 343 1035 l 132 1319 z "},"ǫ":{"ha":817,"x_min":47,"x_max":769,"o":"m 542 8 q 451 -90 451 -17 q 472 -146 451 -126 q 533 -165 493 -165 q 608 -147 565 -165 l 632 -246 q 493 -274 569 -274 q 367 -231 417 -274 q 317 -121 317 -187 q 364 -8 317 -56 q 132 101 217 7 q 47 344 47 194 q 92 533 47 453 q 218 656 136 613 q 408 699 300 699 q 599 656 517 699 q 725 533 681 613 q 769 344 769 453 q 708 128 769 218 q 542 8 647 39 m 408 149 q 561 344 561 149 q 522 492 561 443 q 408 540 482 540 q 256 344 256 540 q 408 149 256 149 z "},"ø":{"ha":817,"x_min":47,"x_max":769,"o":"m 640 629 q 736 510 703 583 q 769 344 769 438 q 725 156 769 236 q 599 33 681 76 q 408 -11 517 -11 q 279 7 342 -11 l 224 -87 l 125 -29 l 176 58 q 81 178 114 104 q 47 344 47 251 q 92 533 47 453 q 218 656 136 613 q 408 699 300 699 q 538 681 482 699 l 593 775 l 692 717 l 640 629 m 251 344 q 274 225 251 269 l 454 536 q 408 542 436 542 q 251 344 251 542 m 408 147 q 564 344 564 147 q 543 461 564 417 l 363 151 q 408 147 383 147 z "},"ǿ":{"ha":817,"x_min":47,"x_max":769,"o":"m 640 629 q 736 510 703 583 q 769 344 769 438 q 725 156 769 236 q 599 33 681 76 q 408 -11 517 -11 q 279 7 342 -11 l 224 -87 l 125 -29 l 176 58 q 81 178 114 104 q 47 344 47 251 q 92 533 47 453 q 218 656 136 613 q 408 699 300 699 q 538 681 482 699 l 593 775 l 692 717 l 640 629 m 251 344 q 274 225 251 269 l 454 536 q 408 542 436 542 q 251 344 251 542 m 408 147 q 564 344 564 147 q 543 461 564 417 l 363 151 q 408 147 383 147 m 343 771 l 479 1056 l 685 1056 l 474 771 l 343 771 z "},"õ":{"ha":817,"x_min":47,"x_max":769,"o":"m 408 -11 q 218 33 300 -11 q 92 156 136 76 q 47 344 47 236 q 92 533 47 453 q 218 656 136 613 q 408 699 300 699 q 599 656 517 699 q 725 533 681 613 q 769 344 769 453 q 725 156 769 236 q 599 33 681 76 q 408 -11 517 -11 m 408 149 q 561 344 561 149 q 522 492 561 443 q 408 540 482 540 q 256 344 256 540 q 408 149 256 149 m 167 815 q 209 967 167 915 q 318 1018 251 1018 q 366 1008 343 1018 q 424 978 389 999 q 467 953 450 961 q 501 944 485 944 q 542 963 528 944 q 560 1014 557 982 l 650 1014 q 608 863 650 914 q 499 811 565 811 q 451 821 474 811 q 393 851 428 831 q 349 876 365 868 q 315 883 332 883 q 274 865 289 883 q 257 815 260 847 l 167 815 z "},"ṍ":{"ha":817,"x_min":47,"x_max":769,"o":"m 408 -11 q 218 33 300 -11 q 92 156 136 76 q 47 344 47 236 q 92 533 47 453 q 218 656 136 613 q 408 699 300 699 q 599 656 517 699 q 725 533 681 613 q 769 344 769 453 q 725 156 769 236 q 599 33 681 76 q 408 -11 517 -11 m 408 149 q 561 344 561 149 q 522 492 561 443 q 408 540 482 540 q 256 344 256 540 q 408 149 256 149 m 167 815 q 209 967 167 915 q 318 1018 251 1018 q 366 1008 343 1018 q 424 978 389 999 q 467 953 450 961 q 501 944 485 944 q 542 963 528 944 q 560 1014 557 982 l 650 1014 q 608 863 650 914 q 499 811 565 811 q 451 821 474 811 q 393 851 428 831 q 349 876 365 868 q 315 883 332 883 q 274 865 289 883 q 257 815 260 847 l 167 815 m 343 1035 l 479 1319 l 685 1319 l 474 1035 l 343 1035 z "},"ṏ":{"ha":817,"x_min":47,"x_max":769,"o":"m 408 -11 q 218 33 300 -11 q 92 156 136 76 q 47 344 47 236 q 92 533 47 453 q 218 656 136 613 q 408 699 300 699 q 599 656 517 699 q 725 533 681 613 q 769 344 769 453 q 725 156 769 236 q 599 33 681 76 q 408 -11 517 -11 m 408 149 q 561 344 561 149 q 522 492 561 443 q 408 540 482 540 q 256 344 256 540 q 408 149 256 149 m 167 815 q 209 967 167 915 q 318 1018 251 1018 q 366 1008 343 1018 q 424 978 389 999 q 467 953 450 961 q 501 944 485 944 q 542 963 528 944 q 560 1014 557 982 l 650 1014 q 608 863 650 914 q 499 811 565 811 q 451 821 474 811 q 393 851 428 831 q 349 876 365 868 q 315 883 332 883 q 274 865 289 883 q 257 815 260 847 l 167 815 m 372 1267 l 372 1083 l 179 1083 l 179 1267 l 372 1267 m 638 1267 l 638 1083 l 444 1083 l 444 1267 l 638 1267 z "},"ȭ":{"ha":817,"x_min":47,"x_max":769,"o":"m 408 -11 q 218 33 300 -11 q 92 156 136 76 q 47 344 47 236 q 92 533 47 453 q 218 656 136 613 q 408 699 300 699 q 599 656 517 699 q 725 533 681 613 q 769 344 769 453 q 725 156 769 236 q 599 33 681 76 q 408 -11 517 -11 m 408 149 q 561 344 561 149 q 522 492 561 443 q 408 540 482 540 q 256 344 256 540 q 408 149 256 149 m 167 815 q 209 967 167 915 q 318 1018 251 1018 q 366 1008 343 1018 q 424 978 389 999 q 467 953 450 961 q 501 944 485 944 q 542 963 528 944 q 560 1014 557 982 l 650 1014 q 608 863 650 914 q 499 811 565 811 q 451 821 474 811 q 393 851 428 831 q 349 876 365 868 q 315 883 332 883 q 274 865 289 883 q 257 815 260 847 l 167 815 m 190 1240 l 626 1240 l 626 1110 l 190 1110 l 190 1240 z "},"œ":{"ha":1247,"x_min":47,"x_max":1203,"o":"m 1203 301 l 767 301 q 815 183 776 219 q 928 146 853 146 q 1136 213 1042 146 l 1192 72 q 1070 11 1142 33 q 926 -11 999 -11 q 772 18 839 -11 q 663 103 706 47 q 552 18 618 47 q 403 -11 486 -11 q 215 33 296 -11 q 91 157 135 76 q 47 344 47 238 q 91 532 47 451 q 215 656 135 613 q 403 699 296 699 q 554 669 488 699 q 664 583 621 639 q 768 669 706 639 q 908 699 831 699 q 1062 656 994 699 q 1166 534 1129 613 q 1203 353 1203 456 l 1203 301 m 904 554 q 809 516 844 554 q 767 406 774 478 l 1026 406 q 991 516 1022 478 q 904 554 960 554 m 406 149 q 517 197 479 149 q 556 344 556 246 q 517 492 556 443 q 406 540 479 540 q 294 492 332 540 q 256 344 256 443 q 294 197 256 246 q 406 149 332 149 z "},"p":{"ha":851,"x_min":81,"x_max":804,"o":"m 503 699 q 659 653 590 699 q 766 527 728 608 q 804 340 804 446 q 766 155 804 235 q 660 32 728 75 q 503 -11 592 -11 q 377 17 433 -11 q 290 97 321 46 l 290 -250 l 81 -250 l 81 682 l 288 682 l 288 586 q 375 669 318 639 q 503 699 432 699 m 442 149 q 556 198 515 149 q 596 340 596 247 q 556 487 596 435 q 442 539 515 539 q 328 488 368 539 q 288 343 288 438 q 328 199 288 250 q 442 149 368 149 z "},"þ":{"ha":851,"x_min":81,"x_max":804,"o":"m 503 699 q 659 653 590 699 q 766 527 728 608 q 804 340 804 446 q 766 155 804 235 q 660 32 728 75 q 503 -11 592 -11 q 377 17 433 -11 q 290 97 321 46 l 290 -250 l 81 -250 l 81 979 l 290 979 l 290 590 q 377 670 321 642 q 503 699 433 699 m 442 149 q 556 198 515 149 q 596 340 596 247 q 556 487 596 435 q 442 539 515 539 q 328 488 368 539 q 288 343 288 438 q 328 199 288 250 q 442 149 368 149 z "},"q":{"ha":851,"x_min":47,"x_max":771,"o":"m 771 682 l 771 -250 l 561 -250 l 561 99 q 474 18 531 47 q 349 -11 418 -11 q 192 32 260 -11 q 85 155 124 75 q 47 340 47 235 q 85 527 47 446 q 192 653 124 608 q 349 699 261 699 q 476 669 419 699 q 563 586 532 639 l 563 682 l 771 682 m 410 149 q 523 199 483 149 q 563 343 563 249 q 523 488 563 438 q 410 539 483 539 q 296 487 336 539 q 256 340 256 435 q 296 198 256 247 q 410 149 336 149 z "},"r":{"ha":557,"x_min":81,"x_max":568,"o":"m 568 526 l 450 514 q 326 465 363 506 q 290 356 290 424 l 290 0 l 81 0 l 81 682 l 282 682 l 282 567 q 494 696 333 685 l 556 700 l 568 526 z "},"ŕ":{"ha":557,"x_min":81,"x_max":601,"o":"m 568 526 l 450 514 q 326 465 363 506 q 290 356 290 424 l 290 0 l 81 0 l 81 682 l 282 682 l 282 567 q 494 696 333 685 l 556 700 l 568 526 m 260 771 l 396 1056 l 601 1056 l 390 771 l 260 771 z "},"ř":{"ha":557,"x_min":81,"x_max":568,"o":"m 568 526 l 450 514 q 326 465 363 506 q 290 356 290 424 l 290 0 l 81 0 l 81 682 l 282 682 l 282 567 q 494 696 333 685 l 556 700 l 568 526 m 568 1056 l 388 771 l 263 771 l 82 1056 l 244 1056 l 325 894 l 406 1056 l 568 1056 z "},"ŗ":{"ha":557,"x_min":81,"x_max":568,"o":"m 568 526 l 450 514 q 326 465 363 506 q 290 356 290 424 l 290 0 l 81 0 l 81 682 l 282 682 l 282 567 q 494 696 333 685 l 556 700 l 568 526 m 289 -90 l 289 -181 q 270 -293 289 -244 q 206 -382 251 -342 l 131 -331 q 179 -249 171 -293 l 82 -249 l 82 -90 l 289 -90 z "},"ȑ":{"ha":557,"x_min":75,"x_max":568,"o":"m 568 526 l 450 514 q 326 465 363 506 q 290 356 290 424 l 290 0 l 81 0 l 81 682 l 282 682 l 282 567 q 494 696 333 685 l 556 700 l 568 526 m 75 1056 l 226 1056 l 274 771 l 183 771 l 75 1056 m 268 1056 l 419 1056 l 467 771 l 376 771 l 268 1056 z "},"ṛ":{"ha":557,"x_min":81,"x_max":568,"o":"m 568 526 l 450 514 q 326 465 363 506 q 290 356 290 424 l 290 0 l 81 0 l 81 682 l 282 682 l 282 567 q 494 696 333 685 l 556 700 l 568 526 m 282 -93 l 282 -276 l 90 -276 l 90 -93 l 282 -93 z "},"ȓ":{"ha":557,"x_min":67,"x_max":583,"o":"m 568 526 l 450 514 q 326 465 363 506 q 290 356 290 424 l 290 0 l 81 0 l 81 682 l 282 682 l 282 567 q 494 696 333 685 l 556 700 l 568 526 m 325 1039 q 487 987 415 1039 q 583 838 558 935 l 486 796 q 325 907 426 907 q 164 796 224 907 l 67 838 q 163 987 92 935 q 325 1039 235 1039 z "},"ṟ":{"ha":557,"x_min":-32,"x_max":568,"o":"m 568 526 l 450 514 q 326 465 363 506 q 290 356 290 424 l 290 0 l 81 0 l 81 682 l 282 682 l 282 567 q 494 696 333 685 l 556 700 l 568 526 m -32 -124 l 404 -124 l 404 -246 l -32 -246 l -32 -124 z "},"s":{"ha":676,"x_min":35,"x_max":638,"o":"m 343 -11 q 170 10 249 -11 q 35 72 92 32 l 90 217 q 213 158 146 179 q 347 138 279 138 q 423 153 396 138 q 450 197 450 169 q 431 236 450 222 q 361 261 413 250 l 250 286 q 105 355 151 308 q 58 482 58 401 q 95 594 58 546 q 199 671 132 643 q 353 699 267 699 q 496 676 426 699 q 621 614 565 654 l 565 475 q 351 550 457 550 q 275 533 303 550 q 247 486 247 517 q 264 451 247 464 q 322 428 281 439 l 438 401 q 590 330 542 378 q 638 200 638 282 q 559 45 638 101 q 343 -11 481 -11 z "},"ś":{"ha":676,"x_min":35,"x_max":638,"o":"m 343 -11 q 170 10 249 -11 q 35 72 92 32 l 90 217 q 213 158 146 179 q 347 138 279 138 q 423 153 396 138 q 450 197 450 169 q 431 236 450 222 q 361 261 413 250 l 250 286 q 105 355 151 308 q 58 482 58 401 q 95 594 58 546 q 199 671 132 643 q 353 699 267 699 q 496 676 426 699 q 621 614 565 654 l 565 475 q 351 550 457 550 q 275 533 303 550 q 247 486 247 517 q 264 451 247 464 q 322 428 281 439 l 438 401 q 590 330 542 378 q 638 200 638 282 q 559 45 638 101 q 343 -11 481 -11 m 286 771 l 422 1056 l 628 1056 l 417 771 l 286 771 z "},"ṥ":{"ha":676,"x_min":35,"x_max":651,"o":"m 343 -11 q 170 10 249 -11 q 35 72 92 32 l 90 217 q 213 158 146 179 q 347 138 279 138 q 423 153 396 138 q 450 197 450 169 q 431 236 450 222 q 361 261 413 250 l 250 286 q 105 355 151 308 q 58 482 58 401 q 95 594 58 546 q 199 671 132 643 q 353 699 267 699 q 496 676 426 699 q 621 614 565 654 l 565 475 q 351 550 457 550 q 275 533 303 550 q 247 486 247 517 q 264 451 247 464 q 322 428 281 439 l 438 401 q 590 330 542 378 q 638 200 638 282 q 559 45 638 101 q 343 -11 481 -11 m 310 771 l 446 1056 l 651 1056 l 440 771 l 310 771 m 322 1053 l 322 857 l 97 857 l 97 1053 l 322 1053 z "},"š":{"ha":676,"x_min":35,"x_max":638,"o":"m 343 -11 q 170 10 249 -11 q 35 72 92 32 l 90 217 q 213 158 146 179 q 347 138 279 138 q 423 153 396 138 q 450 197 450 169 q 431 236 450 222 q 361 261 413 250 l 250 286 q 105 355 151 308 q 58 482 58 401 q 95 594 58 546 q 199 671 132 643 q 353 699 267 699 q 496 676 426 699 q 621 614 565 654 l 565 475 q 351 550 457 550 q 275 533 303 550 q 247 486 247 517 q 264 451 247 464 q 322 428 281 439 l 438 401 q 590 330 542 378 q 638 200 638 282 q 559 45 638 101 q 343 -11 481 -11 m 594 1056 l 414 771 l 289 771 l 108 1056 l 271 1056 l 351 894 l 432 1056 l 594 1056 z "},"ṧ":{"ha":676,"x_min":35,"x_max":638,"o":"m 343 -11 q 170 10 249 -11 q 35 72 92 32 l 90 217 q 213 158 146 179 q 347 138 279 138 q 423 153 396 138 q 450 197 450 169 q 431 236 450 222 q 361 261 413 250 l 250 286 q 105 355 151 308 q 58 482 58 401 q 95 594 58 546 q 199 671 132 643 q 353 699 267 699 q 496 676 426 699 q 621 614 565 654 l 565 475 q 351 550 457 550 q 275 533 303 550 q 247 486 247 517 q 264 451 247 464 q 322 428 281 439 l 438 401 q 590 330 542 378 q 638 200 638 282 q 559 45 638 101 q 343 -11 481 -11 m 594 1056 l 414 771 l 289 771 l 108 1056 l 271 1056 l 351 894 l 432 1056 l 594 1056 m 464 1274 l 464 1078 l 239 1078 l 239 1274 l 464 1274 z "},"ş":{"ha":676,"x_min":35,"x_max":638,"o":"m 638 200 q 569 53 638 108 q 379 -10 501 -3 l 374 -57 q 390 -56 379 -56 q 475 -81 443 -56 q 507 -151 507 -107 q 458 -240 507 -206 q 319 -274 410 -274 q 253 -267 289 -274 q 189 -249 217 -261 l 206 -168 q 314 -187 268 -187 q 378 -151 378 -187 q 333 -125 378 -125 q 283 -133 308 -125 l 256 -104 l 268 -7 q 35 72 128 6 l 90 217 q 213 158 146 179 q 347 138 279 138 q 423 153 396 138 q 450 197 450 169 q 431 236 450 222 q 361 261 413 250 l 250 286 q 105 355 151 308 q 58 482 58 401 q 95 594 58 546 q 199 671 132 643 q 353 699 267 699 q 496 676 426 699 q 621 614 565 654 l 565 475 q 351 550 457 550 q 275 533 303 550 q 247 486 247 517 q 264 451 247 464 q 322 428 281 439 l 438 401 q 590 330 542 378 q 638 200 638 282 z "},"ŝ":{"ha":676,"x_min":35,"x_max":638,"o":"m 343 -11 q 170 10 249 -11 q 35 72 92 32 l 90 217 q 213 158 146 179 q 347 138 279 138 q 423 153 396 138 q 450 197 450 169 q 431 236 450 222 q 361 261 413 250 l 250 286 q 105 355 151 308 q 58 482 58 401 q 95 594 58 546 q 199 671 132 643 q 353 699 267 699 q 496 676 426 699 q 621 614 565 654 l 565 475 q 351 550 457 550 q 275 533 303 550 q 247 486 247 517 q 264 451 247 464 q 322 428 281 439 l 438 401 q 590 330 542 378 q 638 200 638 282 q 559 45 638 101 q 343 -11 481 -11 m 108 771 l 289 1056 l 414 1056 l 594 771 l 432 771 l 351 932 l 271 771 l 108 771 z "},"ș":{"ha":676,"x_min":35,"x_max":638,"o":"m 343 -11 q 170 10 249 -11 q 35 72 92 32 l 90 217 q 213 158 146 179 q 347 138 279 138 q 423 153 396 138 q 450 197 450 169 q 431 236 450 222 q 361 261 413 250 l 250 286 q 105 355 151 308 q 58 482 58 401 q 95 594 58 546 q 199 671 132 643 q 353 699 267 699 q 496 676 426 699 q 621 614 565 654 l 565 475 q 351 550 457 550 q 275 533 303 550 q 247 486 247 517 q 264 451 247 464 q 322 428 281 439 l 438 401 q 590 330 542 378 q 638 200 638 282 q 559 45 638 101 q 343 -11 481 -11 m 442 -90 l 442 -181 q 423 -293 442 -244 q 358 -382 404 -342 l 283 -331 q 332 -249 324 -293 l 235 -249 l 235 -90 l 442 -90 z "},"ṡ":{"ha":676,"x_min":35,"x_max":638,"o":"m 343 -11 q 170 10 249 -11 q 35 72 92 32 l 90 217 q 213 158 146 179 q 347 138 279 138 q 423 153 396 138 q 450 197 450 169 q 431 236 450 222 q 361 261 413 250 l 250 286 q 105 355 151 308 q 58 482 58 401 q 95 594 58 546 q 199 671 132 643 q 353 699 267 699 q 496 676 426 699 q 621 614 565 654 l 565 475 q 351 550 457 550 q 275 533 303 550 q 247 486 247 517 q 264 451 247 464 q 322 428 281 439 l 438 401 q 590 330 542 378 q 638 200 638 282 q 559 45 638 101 q 343 -11 481 -11 m 464 1010 l 464 814 l 239 814 l 239 1010 l 464 1010 z "},"ṣ":{"ha":676,"x_min":35,"x_max":638,"o":"m 343 -11 q 170 10 249 -11 q 35 72 92 32 l 90 217 q 213 158 146 179 q 347 138 279 138 q 423 153 396 138 q 450 197 450 169 q 431 236 450 222 q 361 261 413 250 l 250 286 q 105 355 151 308 q 58 482 58 401 q 95 594 58 546 q 199 671 132 643 q 353 699 267 699 q 496 676 426 699 q 621 614 565 654 l 565 475 q 351 550 457 550 q 275 533 303 550 q 247 486 247 517 q 264 451 247 464 q 322 428 281 439 l 438 401 q 590 330 542 378 q 638 200 638 282 q 559 45 638 101 q 343 -11 481 -11 m 435 -93 l 435 -276 l 243 -276 l 243 -93 l 435 -93 z "},"ṩ":{"ha":676,"x_min":35,"x_max":638,"o":"m 343 -11 q 170 10 249 -11 q 35 72 92 32 l 90 217 q 213 158 146 179 q 347 138 279 138 q 423 153 396 138 q 450 197 450 169 q 431 236 450 222 q 361 261 413 250 l 250 286 q 105 355 151 308 q 58 482 58 401 q 95 594 58 546 q 199 671 132 643 q 353 699 267 699 q 496 676 426 699 q 621 614 565 654 l 565 475 q 351 550 457 550 q 275 533 303 550 q 247 486 247 517 q 264 451 247 464 q 322 428 281 439 l 438 401 q 590 330 542 378 q 638 200 638 282 q 559 45 638 101 q 343 -11 481 -11 m 435 -93 l 435 -276 l 243 -276 l 243 -93 l 435 -93 m 464 1010 l 464 814 l 239 814 l 239 1010 l 464 1010 z "},"ß":{"ha":943,"x_min":81,"x_max":914,"o":"m 81 617 q 180 894 81 797 q 464 990 279 990 q 676 936 600 990 q 753 785 753 882 q 728 691 753 731 q 657 604 703 651 q 610 549 625 571 q 594 504 594 528 q 622 461 594 476 q 706 428 649 446 q 812 386 771 407 q 883 324 853 365 q 914 218 914 283 q 837 51 914 114 q 632 -11 760 -11 q 478 11 553 -11 q 351 72 404 33 l 407 217 q 522 163 464 182 q 629 143 579 143 q 724 200 724 143 q 695 247 724 231 q 606 283 667 264 q 502 324 542 304 q 433 383 463 344 q 404 482 404 421 q 427 572 404 533 q 494 661 450 611 q 542 718 526 694 q 557 767 557 742 q 531 822 557 803 q 454 840 504 840 q 333 790 376 840 q 290 649 290 740 l 290 0 l 81 0 l 81 617 z "},"t":{"ha":538,"x_min":6,"x_max":525,"o":"m 458 143 q 525 147 490 143 l 514 -6 q 433 -11 474 -11 q 206 57 278 -11 q 135 264 135 125 l 135 525 l 6 525 l 6 682 l 135 682 l 135 882 l 344 882 l 344 682 l 515 682 l 515 525 l 344 525 l 344 265 q 458 143 344 143 z "},"ŧ":{"ha":551,"x_min":13,"x_max":532,"o":"m 465 143 q 532 147 497 143 l 521 -6 q 440 -11 481 -11 q 213 57 285 -11 q 142 264 142 125 l 142 314 l 40 314 l 40 460 l 142 460 l 142 525 l 13 525 l 13 682 l 142 682 l 142 882 l 351 882 l 351 682 l 522 682 l 522 525 l 351 525 l 351 460 l 494 460 l 494 314 l 351 314 l 351 265 q 465 143 351 143 z "},"ť":{"ha":538,"x_min":6,"x_max":563,"o":"m 519 738 l 403 738 l 403 979 l 563 979 l 519 738 m 344 265 q 458 143 344 143 q 525 147 490 143 l 514 -6 q 433 -11 474 -11 q 206 57 278 -11 q 135 264 135 125 l 135 525 l 6 525 l 6 682 l 135 682 l 135 882 l 344 882 l 344 682 l 515 682 l 515 525 l 344 525 l 344 265 z "},"ţ":{"ha":538,"x_min":6,"x_max":525,"o":"m 433 -11 q 378 -8 414 -11 l 372 -57 q 389 -56 378 -56 q 474 -81 442 -56 q 506 -151 506 -107 q 457 -240 506 -206 q 318 -274 408 -274 q 251 -267 288 -274 q 188 -249 215 -261 l 204 -168 q 313 -187 267 -187 q 376 -151 376 -187 q 332 -125 376 -125 q 282 -133 307 -125 l 254 -104 l 269 17 q 167 108 200 47 q 135 264 135 169 l 135 525 l 6 525 l 6 682 l 135 682 l 135 882 l 344 882 l 344 682 l 515 682 l 515 525 l 344 525 l 344 265 q 458 143 344 143 q 525 147 490 143 l 514 -6 q 433 -11 474 -11 z "},"ț":{"ha":538,"x_min":6,"x_max":525,"o":"m 458 143 q 525 147 490 143 l 514 -6 q 433 -11 474 -11 q 206 57 278 -11 q 135 264 135 125 l 135 525 l 6 525 l 6 682 l 135 682 l 135 882 l 344 882 l 344 682 l 515 682 l 515 525 l 344 525 l 344 265 q 458 143 344 143 m 440 -90 l 440 -181 q 422 -293 440 -244 q 357 -382 403 -342 l 282 -331 q 331 -249 322 -293 l 233 -249 l 233 -90 l 440 -90 z "},"ẗ":{"ha":538,"x_min":6,"x_max":525,"o":"m 458 143 q 525 147 490 143 l 514 -6 q 433 -11 474 -11 q 206 57 278 -11 q 135 264 135 125 l 135 525 l 6 525 l 6 682 l 135 682 l 135 882 l 344 882 l 344 682 l 515 682 l 515 525 l 344 525 l 344 265 q 458 143 344 143 m 204 1165 l 204 983 l 11 983 l 11 1165 l 204 1165 m 469 1165 l 469 983 l 276 983 l 276 1165 l 469 1165 z "},"ṭ":{"ha":538,"x_min":6,"x_max":525,"o":"m 458 143 q 525 147 490 143 l 514 -6 q 433 -11 474 -11 q 206 57 278 -11 q 135 264 135 125 l 135 525 l 6 525 l 6 682 l 135 682 l 135 882 l 344 882 l 344 682 l 515 682 l 515 525 l 344 525 l 344 265 q 458 143 344 143 m 433 -93 l 433 -276 l 242 -276 l 242 -93 l 433 -93 z "},"ṯ":{"ha":538,"x_min":6,"x_max":556,"o":"m 458 143 q 525 147 490 143 l 514 -6 q 433 -11 474 -11 q 206 57 278 -11 q 135 264 135 125 l 135 525 l 6 525 l 6 682 l 135 682 l 135 882 l 344 882 l 344 682 l 515 682 l 515 525 l 344 525 l 344 265 q 458 143 344 143 m 119 -124 l 556 -124 l 556 -246 l 119 -246 l 119 -124 z "},"u":{"ha":818,"x_min":76,"x_max":738,"o":"m 738 682 l 738 0 l 533 0 l 533 97 q 449 17 501 44 q 332 -11 397 -11 q 140 60 203 -11 q 76 276 76 132 l 76 682 l 286 682 l 286 272 q 312 182 286 211 q 390 153 338 153 q 490 194 451 153 q 528 304 528 236 l 528 682 l 738 682 z "},"ú":{"ha":818,"x_min":76,"x_max":738,"o":"m 738 682 l 738 0 l 533 0 l 533 97 q 449 17 501 44 q 332 -11 397 -11 q 140 60 203 -11 q 76 276 76 132 l 76 682 l 286 682 l 286 272 q 312 182 286 211 q 390 153 338 153 q 490 194 451 153 q 528 304 528 236 l 528 682 l 738 682 m 343 771 l 479 1056 l 685 1056 l 474 771 l 343 771 z "},"ŭ":{"ha":818,"x_min":76,"x_max":738,"o":"m 738 682 l 738 0 l 533 0 l 533 97 q 449 17 501 44 q 332 -11 397 -11 q 140 60 203 -11 q 76 276 76 132 l 76 682 l 286 682 l 286 272 q 312 182 286 211 q 390 153 338 153 q 490 194 451 153 q 528 304 528 236 l 528 682 l 738 682 m 408 801 q 247 853 318 801 q 150 1003 175 906 l 247 1043 q 408 933 307 933 q 569 1043 510 933 l 667 1003 q 570 853 642 906 q 408 801 499 801 z "},"û":{"ha":818,"x_min":76,"x_max":738,"o":"m 738 682 l 738 0 l 533 0 l 533 97 q 449 17 501 44 q 332 -11 397 -11 q 140 60 203 -11 q 76 276 76 132 l 76 682 l 286 682 l 286 272 q 312 182 286 211 q 390 153 338 153 q 490 194 451 153 q 528 304 528 236 l 528 682 l 738 682 m 165 771 l 346 1056 l 471 1056 l 651 771 l 489 771 l 408 932 l 328 771 l 165 771 z "},"ȕ":{"ha":818,"x_min":76,"x_max":738,"o":"m 738 682 l 738 0 l 533 0 l 533 97 q 449 17 501 44 q 332 -11 397 -11 q 140 60 203 -11 q 76 276 76 132 l 76 682 l 286 682 l 286 272 q 312 182 286 211 q 390 153 338 153 q 490 194 451 153 q 528 304 528 236 l 528 682 l 738 682 m 158 1056 l 310 1056 l 357 771 l 267 771 l 158 1056 m 351 1056 l 503 1056 l 550 771 l 460 771 l 351 1056 z "},"ü":{"ha":818,"x_min":76,"x_max":738,"o":"m 738 682 l 738 0 l 533 0 l 533 97 q 449 17 501 44 q 332 -11 397 -11 q 140 60 203 -11 q 76 276 76 132 l 76 682 l 286 682 l 286 272 q 312 182 286 211 q 390 153 338 153 q 490 194 451 153 q 528 304 528 236 l 528 682 l 738 682 m 372 1003 l 372 819 l 179 819 l 179 1003 l 372 1003 m 638 1003 l 638 819 l 444 819 l 444 1003 l 638 1003 z "},"ụ":{"ha":818,"x_min":76,"x_max":738,"o":"m 738 682 l 738 0 l 533 0 l 533 97 q 449 17 501 44 q 332 -11 397 -11 q 140 60 203 -11 q 76 276 76 132 l 76 682 l 286 682 l 286 272 q 312 182 286 211 q 390 153 338 153 q 490 194 451 153 q 528 304 528 236 l 528 682 l 738 682 m 504 -93 l 504 -276 l 313 -276 l 313 -93 l 504 -93 z "},"ù":{"ha":818,"x_min":76,"x_max":738,"o":"m 738 682 l 738 0 l 533 0 l 533 97 q 449 17 501 44 q 332 -11 397 -11 q 140 60 203 -11 q 76 276 76 132 l 76 682 l 286 682 l 286 272 q 312 182 286 211 q 390 153 338 153 q 490 194 451 153 q 528 304 528 236 l 528 682 l 738 682 m 132 1056 l 338 1056 l 474 771 l 343 771 l 132 1056 z "},"ủ":{"ha":818,"x_min":76,"x_max":738,"o":"m 738 682 l 738 0 l 533 0 l 533 97 q 449 17 501 44 q 332 -11 397 -11 q 140 60 203 -11 q 76 276 76 132 l 76 682 l 286 682 l 286 272 q 312 182 286 211 q 390 153 338 153 q 490 194 451 153 q 528 304 528 236 l 528 682 l 738 682 m 463 771 l 358 771 l 358 806 q 372 853 358 835 q 408 893 385 872 q 431 915 424 906 q 439 935 439 925 q 393 967 439 967 q 324 954 360 967 l 294 1033 q 414 1058 351 1058 q 533 1028 490 1058 q 575 954 575 999 q 558 902 575 922 q 510 858 542 882 q 474 828 486 842 q 463 799 463 815 l 463 771 z "},"ư":{"ha":851,"x_min":76,"x_max":893,"o":"m 893 856 l 893 803 q 851 667 893 724 q 738 592 808 610 l 738 0 l 533 0 l 533 97 q 449 17 501 44 q 332 -11 397 -11 q 140 60 203 -11 q 76 276 76 132 l 76 682 l 286 682 l 286 272 q 312 182 286 211 q 390 153 338 153 q 490 194 451 153 q 528 304 528 236 l 528 682 l 586 682 q 684 715 656 682 q 713 828 713 747 l 713 856 l 893 856 z "},"ứ":{"ha":851,"x_min":76,"x_max":893,"o":"m 893 856 l 893 803 q 851 667 893 724 q 738 592 808 610 l 738 0 l 533 0 l 533 97 q 449 17 501 44 q 332 -11 397 -11 q 140 60 203 -11 q 76 276 76 132 l 76 682 l 286 682 l 286 272 q 312 182 286 211 q 390 153 338 153 q 490 194 451 153 q 528 304 528 236 l 528 682 l 586 682 q 684 715 656 682 q 713 828 713 747 l 713 856 l 893 856 m 343 771 l 479 1056 l 685 1056 l 474 771 l 343 771 z "},"ự":{"ha":851,"x_min":76,"x_max":893,"o":"m 893 856 l 893 803 q 851 667 893 724 q 738 592 808 610 l 738 0 l 533 0 l 533 97 q 449 17 501 44 q 332 -11 397 -11 q 140 60 203 -11 q 76 276 76 132 l 76 682 l 286 682 l 286 272 q 312 182 286 211 q 390 153 338 153 q 490 194 451 153 q 528 304 528 236 l 528 682 l 586 682 q 684 715 656 682 q 713 828 713 747 l 713 856 l 893 856 m 504 -93 l 504 -276 l 313 -276 l 313 -93 l 504 -93 z "},"ừ":{"ha":851,"x_min":76,"x_max":893,"o":"m 893 856 l 893 803 q 851 667 893 724 q 738 592 808 610 l 738 0 l 533 0 l 533 97 q 449 17 501 44 q 332 -11 397 -11 q 140 60 203 -11 q 76 276 76 132 l 76 682 l 286 682 l 286 272 q 312 182 286 211 q 390 153 338 153 q 490 194 451 153 q 528 304 528 236 l 528 682 l 586 682 q 684 715 656 682 q 713 828 713 747 l 713 856 l 893 856 m 132 1056 l 338 1056 l 474 771 l 343 771 l 132 1056 z "},"ử":{"ha":851,"x_min":76,"x_max":893,"o":"m 893 856 l 893 803 q 851 667 893 724 q 738 592 808 610 l 738 0 l 533 0 l 533 97 q 449 17 501 44 q 332 -11 397 -11 q 140 60 203 -11 q 76 276 76 132 l 76 682 l 286 682 l 286 272 q 312 182 286 211 q 390 153 338 153 q 490 194 451 153 q 528 304 528 236 l 528 682 l 586 682 q 684 715 656 682 q 713 828 713 747 l 713 856 l 893 856 m 463 771 l 358 771 l 358 806 q 372 853 358 835 q 408 893 385 872 q 431 915 424 906 q 439 935 439 925 q 393 967 439 967 q 324 954 360 967 l 294 1033 q 414 1058 351 1058 q 533 1028 490 1058 q 575 954 575 999 q 558 902 575 922 q 510 858 542 882 q 474 828 486 842 q 463 799 463 815 l 463 771 z "},"ữ":{"ha":851,"x_min":76,"x_max":893,"o":"m 893 856 l 893 803 q 851 667 893 724 q 738 592 808 610 l 738 0 l 533 0 l 533 97 q 449 17 501 44 q 332 -11 397 -11 q 140 60 203 -11 q 76 276 76 132 l 76 682 l 286 682 l 286 272 q 312 182 286 211 q 390 153 338 153 q 490 194 451 153 q 528 304 528 236 l 528 682 l 586 682 q 684 715 656 682 q 713 828 713 747 l 713 856 l 893 856 m 167 815 q 209 967 167 915 q 318 1018 251 1018 q 366 1008 343 1018 q 424 978 389 999 q 467 953 450 961 q 501 944 485 944 q 542 963 528 944 q 560 1014 557 982 l 650 1014 q 608 863 650 914 q 499 811 565 811 q 451 821 474 811 q 393 851 428 831 q 349 876 365 868 q 315 883 332 883 q 274 865 289 883 q 257 815 260 847 l 167 815 z "},"ű":{"ha":818,"x_min":76,"x_max":738,"o":"m 738 682 l 738 0 l 533 0 l 533 97 q 449 17 501 44 q 332 -11 397 -11 q 140 60 203 -11 q 76 276 76 132 l 76 682 l 286 682 l 286 272 q 312 182 286 211 q 390 153 338 153 q 490 194 451 153 q 528 304 528 236 l 528 682 l 738 682 m 267 771 l 314 1056 l 465 1056 l 357 771 l 267 771 m 460 771 l 507 1056 l 658 1056 l 550 771 l 460 771 z "},"ȗ":{"ha":818,"x_min":76,"x_max":738,"o":"m 738 682 l 738 0 l 533 0 l 533 97 q 449 17 501 44 q 332 -11 397 -11 q 140 60 203 -11 q 76 276 76 132 l 76 682 l 286 682 l 286 272 q 312 182 286 211 q 390 153 338 153 q 490 194 451 153 q 528 304 528 236 l 528 682 l 738 682 m 408 1039 q 570 987 499 1039 q 667 838 642 935 l 569 796 q 408 907 510 907 q 247 796 307 907 l 150 838 q 247 987 175 935 q 408 1039 318 1039 z "},"ū":{"ha":818,"x_min":76,"x_max":738,"o":"m 738 682 l 738 0 l 533 0 l 533 97 q 449 17 501 44 q 332 -11 397 -11 q 140 60 203 -11 q 76 276 76 132 l 76 682 l 286 682 l 286 272 q 312 182 286 211 q 390 153 338 153 q 490 194 451 153 q 528 304 528 236 l 528 682 l 738 682 m 190 976 l 626 976 l 626 846 l 190 846 l 190 976 z "},"ṻ":{"ha":818,"x_min":76,"x_max":738,"o":"m 738 682 l 738 0 l 533 0 l 533 97 q 449 17 501 44 q 332 -11 397 -11 q 140 60 203 -11 q 76 276 76 132 l 76 682 l 286 682 l 286 272 q 312 182 286 211 q 390 153 338 153 q 490 194 451 153 q 528 304 528 236 l 528 682 l 738 682 m 190 976 l 626 976 l 626 846 l 190 846 l 190 976 m 372 1267 l 372 1083 l 179 1083 l 179 1267 l 372 1267 m 638 1267 l 638 1083 l 444 1083 l 444 1267 l 638 1267 z "},"ų":{"ha":818,"x_min":76,"x_max":789,"o":"m 789 -246 q 650 -274 726 -274 q 523 -230 572 -274 q 474 -118 474 -186 q 533 8 474 -43 l 533 97 q 449 17 501 44 q 332 -11 397 -11 q 140 60 203 -11 q 76 276 76 132 l 76 682 l 286 682 l 286 272 q 312 182 286 211 q 390 153 338 153 q 490 194 451 153 q 528 304 528 236 l 528 682 l 738 682 l 738 0 l 724 0 q 640 -25 672 0 q 608 -90 608 -50 q 629 -146 608 -126 q 690 -165 650 -165 q 765 -147 722 -165 l 789 -246 z "},"ů":{"ha":818,"x_min":76,"x_max":738,"o":"m 738 682 l 738 0 l 533 0 l 533 97 q 449 17 501 44 q 332 -11 397 -11 q 140 60 203 -11 q 76 276 76 132 l 76 682 l 286 682 l 286 272 q 312 182 286 211 q 390 153 338 153 q 490 194 451 153 q 528 304 528 236 l 528 682 l 738 682 m 408 764 q 301 807 344 764 q 257 914 257 850 q 301 1019 257 976 q 408 1063 344 1063 q 516 1019 472 1063 q 560 914 560 976 q 516 807 560 850 q 408 764 472 764 m 408 850 q 451 868 435 850 q 468 914 468 886 q 451 958 468 940 q 408 976 435 976 q 365 958 382 976 q 349 914 349 940 q 365 868 349 886 q 408 850 382 850 z "},"ũ":{"ha":818,"x_min":76,"x_max":738,"o":"m 738 682 l 738 0 l 533 0 l 533 97 q 449 17 501 44 q 332 -11 397 -11 q 140 60 203 -11 q 76 276 76 132 l 76 682 l 286 682 l 286 272 q 312 182 286 211 q 390 153 338 153 q 490 194 451 153 q 528 304 528 236 l 528 682 l 738 682 m 167 815 q 209 967 167 915 q 318 1018 251 1018 q 366 1008 343 1018 q 424 978 389 999 q 467 953 450 961 q 501 944 485 944 q 542 963 528 944 q 560 1014 557 982 l 650 1014 q 608 863 650 914 q 499 811 565 811 q 451 821 474 811 q 393 851 428 831 q 349 876 365 868 q 315 883 332 883 q 274 865 289 883 q 257 815 260 847 l 167 815 z "},"ṹ":{"ha":818,"x_min":76,"x_max":738,"o":"m 738 682 l 738 0 l 533 0 l 533 97 q 449 17 501 44 q 332 -11 397 -11 q 140 60 203 -11 q 76 276 76 132 l 76 682 l 286 682 l 286 272 q 312 182 286 211 q 390 153 338 153 q 490 194 451 153 q 528 304 528 236 l 528 682 l 738 682 m 167 815 q 209 967 167 915 q 318 1018 251 1018 q 366 1008 343 1018 q 424 978 389 999 q 467 953 450 961 q 501 944 485 944 q 542 963 528 944 q 560 1014 557 982 l 650 1014 q 608 863 650 914 q 499 811 565 811 q 451 821 474 811 q 393 851 428 831 q 349 876 365 868 q 315 883 332 883 q 274 865 289 883 q 257 815 260 847 l 167 815 m 343 1035 l 479 1319 l 685 1319 l 474 1035 l 343 1035 z "},"v":{"ha":742,"x_min":-15,"x_max":758,"o":"m 758 681 l 458 0 l 281 0 l -15 681 l 203 681 l 375 247 l 553 681 l 758 681 z "},"w":{"ha":1199,"x_min":-3,"x_max":1201,"o":"m 1201 682 l 925 0 l 747 0 l 597 385 l 451 0 l 275 0 l -3 682 l 211 682 l 372 250 l 533 682 l 675 682 l 838 246 l 997 682 l 1201 682 z "},"ẃ":{"ha":1199,"x_min":-3,"x_max":1201,"o":"m 1201 682 l 925 0 l 747 0 l 597 385 l 451 0 l 275 0 l -3 682 l 211 682 l 372 250 l 533 682 l 675 682 l 838 246 l 997 682 l 1201 682 m 535 771 l 671 1056 l 876 1056 l 665 771 l 535 771 z "},"ŵ":{"ha":1199,"x_min":-3,"x_max":1201,"o":"m 1201 682 l 925 0 l 747 0 l 597 385 l 451 0 l 275 0 l -3 682 l 211 682 l 372 250 l 533 682 l 675 682 l 838 246 l 997 682 l 1201 682 m 357 771 l 538 1056 l 663 1056 l 843 771 l 681 771 l 600 932 l 519 771 l 357 771 z "},"ẅ":{"ha":1199,"x_min":-3,"x_max":1201,"o":"m 1201 682 l 925 0 l 747 0 l 597 385 l 451 0 l 275 0 l -3 682 l 211 682 l 372 250 l 533 682 l 675 682 l 838 246 l 997 682 l 1201 682 m 564 1003 l 564 819 l 371 819 l 371 1003 l 564 1003 m 829 1003 l 829 819 l 636 819 l 636 1003 l 829 1003 z "},"ẁ":{"ha":1199,"x_min":-3,"x_max":1201,"o":"m 1201 682 l 925 0 l 747 0 l 597 385 l 451 0 l 275 0 l -3 682 l 211 682 l 372 250 l 533 682 l 675 682 l 838 246 l 997 682 l 1201 682 m 324 1056 l 529 1056 l 665 771 l 535 771 l 324 1056 z "},"x":{"ha":750,"x_min":-33,"x_max":783,"o":"m 783 0 l 538 0 l 375 204 l 214 0 l -33 0 l 256 351 l -17 682 l 232 682 l 375 497 l 519 682 l 767 682 l 494 351 l 783 0 z "},"y":{"ha":742,"x_min":-15,"x_max":758,"o":"m 758 681 l 347 -250 l 135 -250 l 265 38 l -15 681 l 203 681 l 375 247 l 553 681 l 758 681 z "},"ý":{"ha":742,"x_min":-15,"x_max":758,"o":"m 758 681 l 347 -250 l 135 -250 l 265 38 l -15 681 l 203 681 l 375 247 l 553 681 l 758 681 m 306 771 l 442 1056 l 647 1056 l 436 771 l 306 771 z "},"ŷ":{"ha":742,"x_min":-15,"x_max":758,"o":"m 758 681 l 347 -250 l 135 -250 l 265 38 l -15 681 l 203 681 l 375 247 l 553 681 l 758 681 m 128 771 l 308 1056 l 433 1056 l 614 771 l 451 771 l 371 932 l 290 771 l 128 771 z "},"ÿ":{"ha":742,"x_min":-15,"x_max":758,"o":"m 758 681 l 347 -250 l 135 -250 l 265 38 l -15 681 l 203 681 l 375 247 l 553 681 l 758 681 m 335 1003 l 335 819 l 142 819 l 142 1003 l 335 1003 m 600 1003 l 600 819 l 407 819 l 407 1003 l 600 1003 z "},"ẏ":{"ha":742,"x_min":-15,"x_max":758,"o":"m 758 681 l 347 -250 l 135 -250 l 265 38 l -15 681 l 203 681 l 375 247 l 553 681 l 758 681 m 483 1010 l 483 814 l 258 814 l 258 1010 l 483 1010 z "},"ỵ":{"ha":742,"x_min":-15,"x_max":758,"o":"m 758 681 l 347 -250 l 135 -250 l 265 38 l -15 681 l 203 681 l 375 247 l 553 681 l 758 681 m 683 -93 l 683 -276 l 492 -276 l 492 -93 l 683 -93 z "},"ỳ":{"ha":742,"x_min":-15,"x_max":758,"o":"m 758 681 l 347 -250 l 135 -250 l 265 38 l -15 681 l 203 681 l 375 247 l 553 681 l 758 681 m 94 1056 l 300 1056 l 436 771 l 306 771 l 94 1056 z "},"ỷ":{"ha":742,"x_min":-15,"x_max":758,"o":"m 758 681 l 347 -250 l 135 -250 l 265 38 l -15 681 l 203 681 l 375 247 l 553 681 l 758 681 m 425 771 l 321 771 l 321 806 q 334 853 321 835 q 371 893 347 872 q 394 915 386 906 q 401 935 401 925 q 356 967 401 967 q 286 954 322 967 l 257 1033 q 376 1058 314 1058 q 495 1028 453 1058 q 538 954 538 999 q 521 902 538 922 q 472 858 504 882 q 437 828 449 842 q 425 799 425 815 l 425 771 z "}}}
